<?xml version="1.0" standalone="no"?>
<!DOCTYPE svg PUBLIC "-//W3C//DTD SVG 1.1//EN" "http://www.w3.org/Graphics/SVG/1.1/DTD/svg11.dtd" >
<!--
2018-5-11: Created with FontForge (http://fontforge.org)
-->
<svg xmlns="http://www.w3.org/2000/svg" xmlns:xlink="http://www.w3.org/1999/xlink" version="1.1">
<metadata>
Created by FontForge 20160405 at Fri May 11 08:48:00 2018
 By Apache
Copyright (c) 2018, Apache
</metadata>
<defs>
<font id="Flaticon" horiz-adv-x="512" >
  <font-face 
    font-family="Flaticon"
    font-weight="400"
    font-stretch="normal"
    units-per-em="512"
    panose-1="2 0 5 3 0 0 0 0 0 0"
    ascent="448"
    descent="-64"
    bbox="0 -64 512 448"
    underline-thickness="25.6"
    underline-position="-51.2"
    unicode-range="U+0020-F123"
  />
    <missing-glyph />
    <glyph glyph-name="space" unicode=" " horiz-adv-x="200" 
 />
    <glyph glyph-name="uniF122" unicode="&#xf122;" 
d="M232 -32v224h80v-224h-80zM104 -32v304h80v-304h-80zM360 -32v144h80v-144h-80zM496 448c8.7998 0 16 -7.2002 16 -16v-480c0 -8.7998 -7.2002 -16 -16 -16h-480c-8.7998 0 -16 7.2002 -16 16v480c0 8.7998 7.2002 16 16 16h480zM368 416v-16h96v16h-96zM336 416v-16h16
v16h-16zM336 384v-16h128v16h-128zM336 352v-16h128v16h-128zM496 -48v16h-40v152c0 4.7998 -3.2002 8 -8 8h-96c-4.7998 0 -8 -3.2002 -8 -8v-152h-16v232c0 4.7998 -3.2002 8 -8 8h-96c-4.7998 0 -8 -3.2002 -8 -8v-232h-16v312c0 4.7998 -3.2002 8 -8 8h-96
c-4.7998 0 -8 -3.2002 -8 -8v-312h-32v464h-16v-16h-24v-16h24v-96h-24v-16h24v-96h-24v-16h24v-96h-24v-16h24v-104c0 -4.7998 3.2002 -8 8 -8h448z" />
    <glyph glyph-name="uniF116" unicode="&#xf116;" 
d="M232 176c0 -4.7998 3.2002 -8 8 -8h208c-4.7998 -112 -96 -200 -208 -200c-115.2 0 -208 92.7998 -208 208c0 112 88 203.2 200 208v-208zM280 416c108.8 -4.7998 195.2 -91.2002 200 -200h-200v200zM496 448c8.7998 0 16 -7.2002 16 -16v-480
c0 -8.7998 -7.2002 -16 -16 -16h-480c-8.7998 0 -16 7.2002 -16 16v480c0 8.7998 7.2002 16 16 16h480zM240 -48c124 0 224 100 224 224c0 4.7998 -3.2002 8 -8 8h-208v208c0 4.7998 -3.2002 8 -8 8c-124 0 -224 -100 -224 -224s100 -224 224 -224zM488 200
c4.7998 0 8 3.2002 8 8c0 124 -100 224 -224 224c-4.7998 0 -8 -3.2002 -8 -8v-216c0 -4.7998 3.2002 -8 8 -8h216z" />
    <glyph glyph-name="uniF123" unicode="&#xf123;" 
d="M112 168c0 4.7998 -3.2002 8 -8 8h-6.40039l38.4004 44l38.4004 -44h-6.40039c-4.7998 0 -8 -3.2002 -8 -8v-168h-48v168zM384 328c0 4.7998 -3.2002 8 -8 8h-6.40039l38.4004 44l38.4004 -44h-6.40039c-4.7998 0 -8 -3.2002 -8 -8v-328h-48v328zM248 248
c0 4.7998 -3.2002 8 -8 8h-6.40039l38.4004 44l38.4004 -44h-6.40039c-4.7998 0 -8 -3.2002 -8 -8v-248h-48v248zM496 448c8.7998 0 16 -7.2002 16 -16v-480c0 -8.7998 -7.2002 -16 -16 -16h-480c-8.7998 0 -16 7.2002 -16 16v480c0 8.7998 7.2002 16 16 16h480z
M346.4 333.6c-3.2002 -4 -3.2002 -8.7998 0 -12c1.59961 -0.799805 4 -1.59961 5.59961 -1.59961h16v-328c0 -4.7998 3.2002 -8 8 -8h64c4.7998 0 8 3.2002 8 8v328h16c4.7998 0 8 3.2002 8 8c0 2.40039 0 4 -1.59961 5.59961l-56 64c-3.2002 3.2002 -8.80078 3.2002 -12 0z
M278.4 317.6c-3.2002 3.2002 -8.80078 3.2002 -12 0l-56 -64c-2.40039 -2.39941 -3.2002 -5.59961 -1.60059 -8.7998c1.60059 -3.2002 4 -4.7998 7.2002 -4.7998h16v-248c0 -4.7998 3.2002 -8 8 -8h64c4.7998 0 8 3.2002 8 8v248h16c4.7998 0 8 3.2002 8 8
c0 2.40039 0 4 -1.59961 5.59961zM120 416v-16h96v16h-96zM88 416v-16h16v16h-16zM88 384v-16h128v16h-128zM88 352v-16h128v16h-128zM74.4004 173.6c-3.2002 -4 -3.2002 -8.7998 0 -12c1.59961 -0.799805 4 -1.59961 5.59961 -1.59961h16v-168c0 -4.7998 3.2002 -8 8 -8h64
c4.7998 0 8 3.2002 8 8v168h16c4.7998 0 8 3.2002 8 8c0 2.40039 0 4 -1.59961 5.59961l-56 64c-3.2002 3.2002 -8.80078 3.2002 -12 0zM496 -48v16h-440v464h-16v-16h-24v-16h24v-96h-24v-16h24v-96h-24v-16h24v-96h-24v-16h24v-104c0 -4.7998 3.2002 -8 8 -8h448z" />
    <glyph glyph-name="uniF110" unicode="&#xf110;" 
d="M88 112v48h272v-48h-272zM88 208v48h144v-48h-144zM88 304v48h224v-48h-224zM496 448c8.7998 0 16 -7.2002 16 -16v-480c0 -8.7998 -7.2002 -16 -16 -16h-480c-8.7998 0 -16 7.2002 -16 16v480c0 8.7998 7.2002 16 16 16h480zM384 400v-16h96v16h-96zM352 400v-16h16v16
h-16zM352 368v-16h128v16h-128zM352 336v-16h128v16h-128zM72 360v-64c0 -4.7998 3.2002 -8 8 -8h240c4.7998 0 8 3.2002 8 8v64c0 4.7998 -3.2002 8 -8 8h-240c-4.7998 0 -8 -3.2002 -8 -8zM72 264v-64c0 -4.7998 3.2002 -8 8 -8h160c4.7998 0 8 3.2002 8 8v64
c0 4.7998 -3.2002 8 -8 8h-160c-4.7998 0 -8 -3.2002 -8 -8zM72 168v-64c0 -4.7998 3.2002 -8 8 -8h288c4.7998 0 8 3.2002 8 8v64c0 4.7998 -3.2002 8 -8 8h-288c-4.7998 0 -8 -3.2002 -8 -8zM72 72v-64c0 -4.7998 3.2002 -8 8 -8h208c4.7998 0 8 3.2002 8 8v64
c0 4.7998 -3.2002 8 -8 8h-208c-4.7998 0 -8 -3.2002 -8 -8zM496 -48v16h-440v464h-16v-16h-24v-16h24v-96h-24v-16h24v-96h-24v-16h24v-96h-24v-16h24v-104c0 -4.7998 3.2002 -8 8 -8h448zM88 16v48h192v-48h-192z" />
    <glyph glyph-name="uniF111" unicode="&#xf111;" 
d="M264 200c0 4.41797 3.58203 8 8 8s8 -3.58203 8 -8s-3.58203 -8 -8 -8s-8 3.58203 -8 8zM416 272c0 4.41797 3.58203 8 8 8s8 -3.58203 8 -8s-3.58203 -8 -8 -8s-8 3.58203 -8 8zM192 24c0 4.41797 3.58203 8 8 8s8 -3.58203 8 -8s-3.58203 -8 -8 -8s-8 3.58203 -8 8z
M352 112c0 4.41797 3.58203 8 8 8s8 -3.58203 8 -8s-3.58203 -8 -8 -8s-8 3.58203 -8 8zM496 448c8.7998 0 16 -7.2002 16 -16v-480c0 -8.7998 -7.2002 -16 -16 -16h-480c-8.7998 0 -16 7.2002 -16 16v480c0 8.7998 7.2002 16 16 16h480zM272 224
c-12.7998 0 -24 -10.4004 -24 -23.2002c0 -7.2002 3.2002 -13.5996 8 -18.3994l-55.2002 -135.2h-0.799805c-4.7998 0 -8.7998 -1.60059 -12.7998 -4l-44.7998 36c0.799805 2.39941 1.59961 5.59961 1.59961 8c0 13.5996 -10.4004 24 -24 24s-24 -10.4004 -24 -24
c0 -13.6006 10.4004 -24 24 -24c4.7998 0 8.7998 1.59961 12.7998 4l44.7998 -36c-0.799805 -2.40039 -1.59961 -5.60059 -1.59961 -8c0 -12.7998 10.4004 -24 24 -24c12.7998 0 24 10.3994 24 24c0 7.2002 -3.2002 13.5996 -8 18.3994l55.2002 134.4h0.799805
c3.2002 0 7.2002 0.799805 10.4004 1.59961l56 -56c-1.60059 -3.19922 -2.40039 -7.19922 -2.40039 -10.3994c0 -12.7998 10.4004 -24 24 -24c12.7998 0 24 10.3994 24 24c0 7.2002 -2.40039 13.5996 -8 18.3994l47.2002 118.4h0.799805
c13.5996 0 24.7998 10.4004 24.7998 24s-10.3994 24.7998 -24 24.7998c-13.5996 0 -24.7998 -10.3994 -24.7998 -24c0 -7.2002 2.40039 -13.5996 8 -18.3994l-47.2002 -118.4h-0.799805c-4 0 -7.2002 -0.799805 -10.4004 -2.40039l-56 56
c1.60059 3.2002 2.40039 7.2002 2.40039 10.4004c0 12.7998 -10.4004 24 -24 24zM120 416v-16h96v16h-96zM88 416v-16h16v16h-16zM88 384v-16h128v16h-128zM88 352v-16h128v16h-128zM496 -48v16h-440v464h-16v-16h-24v-16h24v-96h-24v-16h24v-96h-24v-16h24v-96h-24v-16h24
v-104c0 -4.7998 3.2002 -8 8 -8h448zM112 88c0 4.41797 3.58203 8 8 8s8 -3.58203 8 -8s-3.58203 -8 -8 -8s-8 3.58203 -8 8z" />
    <glyph glyph-name="uniF109" unicode="&#xf109;" 
d="M496 448c8.7998 0 16 -7.2002 16 -16v-480c0 -8.7998 -7.2002 -16 -16 -16h-480c-8.7998 0 -16 7.2002 -16 16v480c0 8.7998 7.2002 16 16 16h480zM368 400v-16h96v16h-96zM336 400v-16h16v16h-16zM336 368v-16h128v16h-128zM336 336v-16h128v16h-128zM93.5996 365.6
l-11.1992 -11.1992l346.399 -346.4h-28.7998v-16h48c4.7998 0 8 3.2002 8 8v48h-16v-28.7998zM496 -48v16h-440v464h-16v-16h-24v-16h24v-96h-24v-16h24v-96h-24v-16h24v-96h-24v-16h24v-104c0 -4.7998 3.2002 -8 8 -8h448z" />
    <glyph glyph-name="uniF108" unicode="&#xf108;" 
d="M496 448c8.7998 0 16 -7.2002 16 -16v-480c0 -8.7998 -7.2002 -16 -16 -16h-480c-8.7998 0 -16 7.2002 -16 16v480c0 8.7998 7.2002 16 16 16h480zM120 416v-16h96v16h-96zM88 416v-16h16v16h-16zM88 384v-16h128v16h-128zM88 352v-16h128v16h-128zM496 -48v16h-440
v52.7998l96 88l26.4004 -26.3994c3.19922 -3.2002 8 -3.2002 11.1992 0l74.4004 74.3994l42.4004 -41.5996c1.59961 -1.60059 4 -2.40039 6.39941 -2.40039c2.40039 0 4 1.60059 5.60059 3.2002l144 192l-12.8008 9.59961l-138.399 -184.8l-41.6006 41.6006
c-3.19922 3.19922 -8 3.19922 -11.1992 0l-74.4004 -74.4004l-26.4004 26.4004c-3.19922 3.19922 -8 3.19922 -11.1992 0l-90.4004 -84v88.7998l96 51.2002l28 -20.8008c3.2002 -2.39941 8.7998 -1.59961 11.2002 1.60059c0 0.799805 0.799805 0.799805 0.799805 1.59961
l67.2002 142.4l48 -40.7998c2.39941 -2.40039 5.59961 -2.40039 8.7998 -0.800781l144 80l-8 13.6006l-139.2 -77.6006l-52 44c-3.2002 3.2002 -8 2.40039 -11.2002 -0.799805c0 0 -0.799805 -0.799805 -0.799805 -1.59961l-68 -143.2l-24 18.4004
c-2.39941 2.39941 -6.39941 2.39941 -8.7998 0.799805l-92 -49.6006v282.4h-16v-16h-24v-16h24v-96h-24v-16h24v-96h-24v-16h24v-96h-24v-16h24v-104c0 -4.7998 3.2002 -8 8 -8h448z" />
    <glyph glyph-name="uniF118" unicode="&#xf118;" 
d="M200 -32v224h48v-224h-48zM104 -32v144h48v-144h-48zM296 -32v304h48v-304h-48zM392 -32v384h48v-384h-48zM496 448c8.7998 0 16 -7.2002 16 -16v-480c0 -8.7998 -7.2002 -16 -16 -16h-480c-8.7998 0 -16 7.2002 -16 16v480c0 8.7998 7.2002 16 16 16h480zM136 400v-16
h96v16h-96zM104 400v-16h16v16h-16zM104 368v-16h128v16h-128zM104 336v-16h128v16h-128zM496 -48v16h-40v392c0 4.7998 -3.2002 8 -8 8h-64c-4.7998 0 -8 -3.2002 -8 -8v-392h-16v312c0 4.7998 -3.2002 8 -8 8h-64c-4.7998 0 -8 -3.2002 -8 -8v-312h-16v232
c0 4.7998 -3.2002 8 -8 8h-64c-4.7998 0 -8 -3.2002 -8 -8v-232h-16v152c0 4.7998 -3.2002 8 -8 8h-64c-4.7998 0 -8 -3.2002 -8 -8v-152h-32v464h-16v-16h-24v-16h24v-96h-24v-16h24v-96h-24v-16h24v-96h-24v-16h24v-104c0 -4.7998 3.2002 -8 8 -8h448z" />
    <glyph glyph-name="uniF106" unicode="&#xf106;" 
d="M496 448c8.7998 0 16 -7.2002 16 -16v-480c0 -8.7998 -7.2002 -16 -16 -16h-480c-8.7998 0 -16 7.2002 -16 16v480c0 8.7998 7.2002 16 16 16h480zM136 400v-16h96v16h-96zM104 400v-16h16v16h-16zM104 368v-16h128v16h-128zM104 336v-16h128v16h-128zM496 -48v16h-440
v68.7998l123.2 123.2h140.8c2.40039 0 4 0.799805 5.59961 2.40039l138.4 138.399v-28.7998h16v48c0 4.7998 -3.2002 8 -8 8h-48v-16h28.7998l-136 -136h-140.8c-2.40039 0 -4 -0.799805 -5.59961 -2.40039l-114.4 -114.399v372.8h-16v-16h-24v-16h24v-96h-24v-16h24v-96
h-24v-16h24v-96h-24v-16h24v-104c0 -4.7998 3.2002 -8 8 -8h448z" />
    <glyph glyph-name="uniF10A" unicode="&#xf10a;" 
d="M496 448c8.7998 0 16 -7.2002 16 -16v-480c0 -8.7998 -7.2002 -16 -16 -16h-480c-8.7998 0 -16 7.2002 -16 16v480c0 8.7998 7.2002 16 16 16h480zM368 416v-16h96v16h-96zM336 416v-16h16v16h-16zM336 384v-16h128v16h-128zM336 352v-16h128v16h-128zM86.4004 380.8
l-12.8008 -9.59961l32 -48c0.800781 -1.60059 3.2002 -3.2002 5.60059 -3.2002c2.39941 0 4.7998 0.799805 6.39941 2.40039l22.4004 22.3994l20 -67.2002c0.799805 -4.7998 5.59961 -7.19922 9.59961 -5.59961c0.800781 0.799805 2.40039 1.59961 3.2002 2.40039
l22.4004 22.3994l28 -91.2002c1.59961 -4.7998 6.39941 -7.19922 10.3994 -5.59961c2.40039 0.799805 4 2.40039 4.80078 4.7998l25.5996 76.7998l24 -52.7998c0.799805 -2.39941 3.2002 -4 5.59961 -4.7998c2.40039 0 5.60059 0.799805 7.2002 2.40039l20.7998 20.7998
l29.6006 -176.8c0.799805 -4 5.59961 -7.2002 9.59961 -6.40039c3.2002 0 5.60059 2.40039 6.40039 4.7998l24 59.2002l24.7998 -81.5996c0.799805 -4.80078 5.59961 -7.2002 9.59961 -5.60059c2.40039 0.799805 4 2.40039 4.80078 4l15.1992 29.6006l18.4004 -60.8008
l14.4004 4l-24 80c-0.800781 3.2002 -4 5.60059 -7.2002 5.60059c-3.2002 0.799805 -6.40039 -0.799805 -8 -4l-15.2002 -30.4004l-26.4004 84.7998c-0.799805 3.2002 -4 5.60059 -7.19922 5.60059c-4 0.799805 -7.2002 -1.60059 -8 -4.7998l-21.6006 -53.6006l-27.2002 164
c-0.799805 4 -5.59961 7.2002 -9.59961 6.40039c-1.59961 -0.799805 -3.2002 -1.60059 -4 -2.40039l-24 -24l-27.2002 61.6006c-1.59961 4 -6.39941 5.59961 -10.3994 4c-1.60059 -0.800781 -3.2002 -2.40039 -4 -4.80078l-24 -72l-24.8008 80
c-0.799805 4.80078 -5.59961 7.2002 -9.59961 5.60059c-0.799805 0 -2.40039 -0.799805 -3.2002 -1.60059l-22.3994 -22.3994l-20 67.2002c-0.800781 4.7998 -5.60059 7.19922 -9.60059 5.59961c-0.799805 -0.799805 -2.39941 -1.59961 -3.2002 -2.40039l-24.7998 -24.7998z
M496 -48v16h-440v464h-16v-16h-24v-16h24v-96h-24v-16h24v-96h-24v-16h24v-96h-24v-16h24v-104c0 -4.7998 3.2002 -8 8 -8h448z" />
    <glyph glyph-name="uniF10E" unicode="&#xf10e;" 
d="M232 200c0 4.41797 3.58203 8 8 8s8 -3.58203 8 -8s-3.58203 -8 -8 -8s-8 3.58203 -8 8zM408 40c0 4.41797 3.58203 8 8 8s8 -3.58203 8 -8s-3.58203 -8 -8 -8s-8 3.58203 -8 8zM280 280c0 4.41797 3.58203 8 8 8s8 -3.58203 8 -8s-3.58203 -8 -8 -8s-8 3.58203 -8 8z
M328 120c0 4.41797 3.58203 8 8 8s8 -3.58203 8 -8s-3.58203 -8 -8 -8s-8 3.58203 -8 8zM496 448c8.7998 0 16 -7.2002 16 -16v-480c0 -8.7998 -7.2002 -16 -16 -16h-480c-8.7998 0 -16 7.2002 -16 16v480c0 8.7998 7.2002 16 16 16h480zM384 304v-16h96v16h-96zM352 256
h128v16h-128v-16zM480 240h-128v-16h128v16zM368 288v16h-16v-16h16zM496 -48v16h-440v64h337.6c4 -12 17.6006 -19.2002 30.4004 -14.4004c12 4 19.2002 17.6006 14.4004 30.4004c-4 12 -17.6006 19.2002 -30.4004 14.4004
c-6.40039 -2.40039 -12 -7.2002 -14.4004 -14.4004h-337.6v64h257.6c4 -12 17.6006 -19.2002 30.4004 -14.4004c12 4 19.2002 17.6006 14.4004 30.4004c-4 12 -17.6006 19.2002 -30.4004 14.4004c-6.40039 -2.40039 -12 -7.2002 -14.4004 -14.4004h-257.6v64h161.6
c4 -12 17.6006 -19.2002 30.4004 -14.4004c12 4 19.2002 17.6006 14.4004 30.4004c-4 12 -17.6006 19.2002 -30.4004 14.4004c-6.40039 -2.40039 -12 -7.2002 -14.4004 -14.4004h-161.6v64h209.6c4 -12 17.6006 -19.2002 30.4004 -14.4004
c12 4 19.2002 17.6006 14.4004 30.4004c-4 12 -17.6006 19.2002 -30.4004 14.4004c-6.40039 -2.40039 -12 -7.2002 -14.4004 -14.4004h-209.6v64h257.6c4 -12 17.6006 -19.2002 30.4004 -14.4004c12 4 19.2002 17.6006 14.4004 30.4004
c-4 12 -17.6006 19.2002 -30.4004 14.4004c-6.40039 -2.40039 -12 -7.2002 -14.4004 -14.4004h-257.6v64h-16v-16h-24v-16h24v-96h-24v-16h24v-96h-24v-16h24v-96h-24v-16h24v-104c0 -4.7998 3.2002 -8 8 -8h448zM328 360c0 4.41797 3.58203 8 8 8s8 -3.58203 8 -8
s-3.58203 -8 -8 -8s-8 3.58203 -8 8z" />
    <glyph glyph-name="uniF120" unicode="&#xf120;" 
d="M152 0v96h16v-96h-16zM216 144v96h16v-96h-16zM152 144v96h16v-96h-16zM216 288v96h16v-96h-16zM152 288v96h16v-96h-16zM344 288v96h16v-96h-16zM280 144v96h16v-96h-16zM280 288v96h16v-96h-16zM88 0v96h16v-96h-16zM496 448c8.7998 0 16 -7.2002 16 -16v-480
c0 -8.7998 -7.2002 -16 -16 -16h-480c-8.7998 0 -16 7.2002 -16 16v480c0 8.7998 7.2002 16 16 16h480zM336 32h128v16h-128v-16zM464 16h-128v-16h128v16zM336 64h16v16h-16v-16zM368 64h96v16h-96v-16zM392 392v-112c0 -4.7998 3.2002 -8 8 -8h32c4.7998 0 8 3.2002 8 8
v112c0 4.7998 -3.2002 8 -8 8h-32c-4.7998 0 -8 -3.2002 -8 -8zM328 392v-112c0 -4.7998 3.2002 -8 8 -8h32c4.7998 0 8 3.2002 8 8v112c0 4.7998 -3.2002 8 -8 8h-32c-4.7998 0 -8 -3.2002 -8 -8zM264 392v-112c0 -4.7998 3.2002 -8 8 -8h32c4.7998 0 8 3.2002 8 8v112
c0 4.7998 -3.2002 8 -8 8h-32c-4.7998 0 -8 -3.2002 -8 -8zM264 248v-112c0 -4.7998 3.2002 -8 8 -8h32c4.7998 0 8 3.2002 8 8v112c0 4.7998 -3.2002 8 -8 8h-32c-4.7998 0 -8 -3.2002 -8 -8zM200 392v-112c0 -4.7998 3.2002 -8 8 -8h32c4.7998 0 8 3.2002 8 8v112
c0 4.7998 -3.2002 8 -8 8h-32c-4.7998 0 -8 -3.2002 -8 -8zM200 248v-112c0 -4.7998 3.2002 -8 8 -8h32c4.7998 0 8 3.2002 8 8v112c0 4.7998 -3.2002 8 -8 8h-32c-4.7998 0 -8 -3.2002 -8 -8zM136 392v-112c0 -4.7998 3.2002 -8 8 -8h32c4.7998 0 8 3.2002 8 8v112
c0 4.7998 -3.2002 8 -8 8h-32c-4.7998 0 -8 -3.2002 -8 -8zM136 248v-112c0 -4.7998 3.2002 -8 8 -8h32c4.7998 0 8 3.2002 8 8v112c0 4.7998 -3.2002 8 -8 8h-32c-4.7998 0 -8 -3.2002 -8 -8zM136 104v-112c0 -4.7998 3.2002 -8 8 -8h32c4.7998 0 8 3.2002 8 8v112
c0 4.7998 -3.2002 8 -8 8h-32c-4.7998 0 -8 -3.2002 -8 -8zM72 392v-112c0 -4.7998 3.2002 -8 8 -8h32c4.7998 0 8 3.2002 8 8v112c0 4.7998 -3.2002 8 -8 8h-32c-4.7998 0 -8 -3.2002 -8 -8zM72 248v-112c0 -4.7998 3.2002 -8 8 -8h32c4.7998 0 8 3.2002 8 8v112
c0 4.7998 -3.2002 8 -8 8h-32c-4.7998 0 -8 -3.2002 -8 -8zM72 104v-112c0 -4.7998 3.2002 -8 8 -8h32c4.7998 0 8 3.2002 8 8v112c0 4.7998 -3.2002 8 -8 8h-32c-4.7998 0 -8 -3.2002 -8 -8zM496 -48v16h-440v464h-16v-16h-24v-16h24v-96h-24v-16h24v-96h-24v-16h24v-96
h-24v-16h24v-104c0 -4.7998 3.2002 -8 8 -8h448zM88 144v96h16v-96h-16zM88 288v96h16v-96h-16zM408 288v96h16v-96h-16z" />
    <glyph glyph-name="uniF105" unicode="&#xf105;" 
d="M56 194.4l69.5996 -81.6006l-69.5996 -69.5996v151.2zM214.4 152l-32.8008 -80.7998l-34.3994 40.7998l40 40h27.2002zM387.2 192.8l-16 -24.7998h-132.8l23.1992 56h109.601zM496 448c8.7998 0 16 -7.2002 16 -16v-480c0 -8.7998 -7.2002 -16 -16 -16h-480
c-8.7998 0 -16 7.2002 -16 16v480c0 8.7998 7.2002 16 16 16h480zM368 416v-16h96v16h-96zM336 416v-16h16v16h-16zM336 384v-16h128v16h-128zM336 352v-16h128v16h-128zM496 -48v16h-440v52.7998l80 80l40.7998 -49.5996c1.60059 -2.40039 4 -3.2002 6.40039 -3.2002
h1.59961c3.2002 0 5.60059 2.40039 6.40039 4.7998l40.7998 99.2002h144c2.40039 0 5.59961 1.59961 6.40039 4l12.7998 20l46.3994 -91.2002l-28.7998 8l-4.7998 -15.2002l45.5996 -13.5996h2.40039c4 0 7.2002 2.40039 8 5.59961l12.7998 46.4004l-15.2002 4.7998
l-7.19922 -26.3994l-48.8008 97.5996l46.4004 74.4004l4.7998 -26.4004l16 2.40039l-8 47.1992c-0.799805 4 -5.59961 7.2002 -9.59961 6.40039l-47.2002 -8l2.40039 -16l28.7998 4.7998l-43.2002 -68.7998l-13.5996 27.2002c-1.60059 3.2002 -4 4.7998 -7.2002 4.7998h-120
c-3.2002 0 -5.60059 -1.59961 -7.2002 -4.7998l-27.2002 -67.2002h-36.7998c-2.40039 0 -4 -0.799805 -5.59961 -2.40039l-41.6006 -41.5996l-80.7998 95.2002v212.8h-16v-16h-24v-16h24v-96h-24v-16h24v-96h-24v-16h24v-96h-24v-16h24v-104c0 -4.7998 3.2002 -8 8 -8h448z
" />
    <glyph glyph-name="uniF113" unicode="&#xf113;" 
d="M496 448c8.7998 0 16 -7.2002 16 -16v-480c0 -8.7998 -7.2002 -16 -16 -16h-480c-8.7998 0 -16 7.2002 -16 16v480c0 8.7998 7.2002 16 16 16h480zM120 416v-16h96v16h-96zM88 416v-16h16v16h-16zM88 384v-16h128v16h-128zM88 352v-16h128v16h-128zM496 -48v16h-440
v50.4004c29.5996 9.59961 57.5996 22.3994 84.7998 37.5996c63.2002 36.7998 105.601 82.4004 122.4 133.6c40.7998 120 144 186.4 200.8 186.4v16c-62.4004 0 -172.8 -68.7998 -215.2 -197.6c-32.7998 -97.6006 -156.8 -146.4 -192.8 -159.2v396.8h-16v-16h-24v-16h24v-96
h-24v-16h24v-96h-24v-16h24v-96h-24v-16h24v-104c0 -4.7998 3.2002 -8 8 -8h448z" />
    <glyph glyph-name="uniF112" unicode="&#xf112;" 
d="M496 448c8.7998 0 16 -7.2002 16 -16v-480c0 -8.7998 -7.2002 -16 -16 -16h-480c-8.7998 0 -16 7.2002 -16 16v480c0 8.7998 7.2002 16 16 16h480zM368 400v-16h96v16h-96zM336 400v-16h16v16h-16zM336 368v-16h128v16h-128zM336 336v-16h128v16h-128zM240 360
c-91.2002 0 -152 -144.8 -152 -360h16c0 202.4 56 344 136 344c45.5996 0 83.2002 -45.5996 107.2 -122.4c-68 -18.3994 -83.2002 -128 -83.2002 -221.6h16c0 87.2002 12.7998 189.6 72 205.6c16.7998 -67.1992 24.7998 -136 24 -205.6h16
c0.799805 70.4004 -7.2002 140 -24 208c72.7998 0 88 -112.8 88 -208h16c0 184.8 -56.7998 224 -104 224h-4.7998c-26.4004 85.5996 -69.6006 136 -123.2 136zM496 -48v16h-440v464h-16v-16h-24v-16h24v-96h-24v-16h24v-96h-24v-16h24v-96h-24v-16h24v-104
c0 -4.7998 3.2002 -8 8 -8h448z" />
    <glyph glyph-name="uniF107" unicode="&#xf107;" 
d="M496 448c8.7998 0 16 -7.2002 16 -16v-480c0 -8.7998 -7.2002 -16 -16 -16h-480c-8.7998 0 -16 7.2002 -16 16v480c0 8.7998 7.2002 16 16 16h480zM120 416v-16h96v16h-96zM88 416v-16h16v16h-16zM88 384v-16h128v16h-128zM88 352v-16h128v16h-128zM496 -48v16h-440
v68.7998l120.8 136l89.6006 -82.3994c1.59961 -1.60059 3.19922 -2.40039 5.59961 -2.40039s4.7998 0.799805 5.59961 3.2002l186.4 208v-27.2002h16v48c0 4.7998 -3.2002 8 -8 8h-48v-16h30.4004l-183.2 -205.6l-90.4004 82.3994
c-1.59961 1.60059 -3.2002 2.40039 -5.59961 2.40039c-2.40039 0 -4 -0.799805 -5.60059 -2.40039l-113.6 -128v371.2h-16v-16h-24v-16h24v-96h-24v-16h24v-96h-24v-16h24v-96h-24v-16h24v-104c0 -4.7998 3.2002 -8 8 -8h448z" />
    <glyph glyph-name="uniF115" unicode="&#xf115;" 
d="M420 39.2002l-144.8 144.8h204.8c-1.59961 -54.4004 -23.2002 -105.6 -60 -144.8zM248 192c0 -2.40039 0.799805 -4 2.40039 -5.59961l158.399 -158.4c-90.3994 -84 -232 -79.2002 -316.8 11.2002c-38.4004 41.5996 -60 96 -60 152.8c0 120.8 95.2002 219.2 216 224v-224
zM264 416c117.6 -4.7998 211.2 -98.4004 216 -216h-216v216zM496 448c8.7998 0 16 -7.2002 16 -16v-480c0 -8.7998 -7.2002 -16 -16 -16h-480c-8.7998 0 -16 7.2002 -16 16v480c0 8.7998 7.2002 16 16 16h480zM256 -48c132.8 0 240 107.2 240 240s-107.2 240 -240 240
s-240 -107.2 -240 -240s107.2 -240 240 -240z" />
    <glyph glyph-name="uniF121" unicode="&#xf121;" 
d="M232 0v16h96v-16h-96zM232 112v16h96v-16h-96zM232 56v16h96v-16h-96zM376 168v16h96v-16h-96zM376 56v16h96v-16h-96zM232 168v16h96v-16h-96zM376 224v16h96v-16h-96zM376 0v16h96v-16h-96zM88 0v16h96v-16h-96zM88 56v16h96v-16h-96zM496 448
c8.7998 0 16 -7.2002 16 -16v-480c0 -8.7998 -7.2002 -16 -16 -16h-480c-8.7998 0 -16 7.2002 -16 16v480c0 8.7998 7.2002 16 16 16h480zM360 360v-32c0 -4.7998 3.2002 -8 8 -8h112c4.7998 0 8 3.2002 8 8v32c0 4.7998 -3.2002 8 -8 8h-112c-4.7998 0 -8 -3.2002 -8 -8z
M360 304v-32c0 -4.7998 3.2002 -8 8 -8h112c4.7998 0 8 3.2002 8 8v32c0 4.7998 -3.2002 8 -8 8h-112c-4.7998 0 -8 -3.2002 -8 -8zM360 248v-32c0 -4.7998 3.2002 -8 8 -8h112c4.7998 0 8 3.2002 8 8v32c0 4.7998 -3.2002 8 -8 8h-112c-4.7998 0 -8 -3.2002 -8 -8zM360 192
v-32c0 -4.7998 3.2002 -8 8 -8h112c4.7998 0 8 3.2002 8 8v32c0 4.7998 -3.2002 8 -8 8h-112c-4.7998 0 -8 -3.2002 -8 -8zM360 136v-32c0 -4.7998 3.2002 -8 8 -8h112c4.7998 0 8 3.2002 8 8v32c0 4.7998 -3.2002 8 -8 8h-112c-4.7998 0 -8 -3.2002 -8 -8zM360 80v-32
c0 -4.7998 3.2002 -8 8 -8h112c4.7998 0 8 3.2002 8 8v32c0 4.7998 -3.2002 8 -8 8h-112c-4.7998 0 -8 -3.2002 -8 -8zM360 24v-32c0 -4.7998 3.2002 -8 8 -8h112c4.7998 0 8 3.2002 8 8v32c0 4.7998 -3.2002 8 -8 8h-112c-4.7998 0 -8 -3.2002 -8 -8zM224 200
c-4.7998 0 -8 -3.2002 -8 -8v-32c0 -4.7998 3.2002 -8 8 -8h112c4.7998 0 8 3.2002 8 8v32c0 4.7998 -3.2002 8 -8 8h-112zM336 40c4.7998 0 8 3.2002 8 8v32c0 4.7998 -3.2002 8 -8 8h-112c-4.7998 0 -8 -3.2002 -8 -8v-32c0 -4.7998 3.2002 -8 8 -8h112zM344 24
c0 4.7998 -3.2002 8 -8 8h-112c-4.7998 0 -8 -3.2002 -8 -8v-32c0 -4.7998 3.2002 -8 8 -8h112c4.7998 0 8 3.2002 8 8v32zM336 96c4.7998 0 8 3.2002 8 8v32c0 4.7998 -3.2002 8 -8 8h-112c-4.7998 0 -8 -3.2002 -8 -8v-32c0 -4.7998 3.2002 -8 8 -8h112zM120 416v-16h96
v16h-96zM88 416v-16h16v16h-16zM88 384v-16h128v16h-128zM88 352v-16h128v16h-128zM72 80v-32c0 -4.7998 3.2002 -8 8 -8h112c4.7998 0 8 3.2002 8 8v32c0 4.7998 -3.2002 8 -8 8h-112c-4.7998 0 -8 -3.2002 -8 -8zM72 24v-32c0 -4.7998 3.2002 -8 8 -8h112
c4.7998 0 8 3.2002 8 8v32c0 4.7998 -3.2002 8 -8 8h-112c-4.7998 0 -8 -3.2002 -8 -8zM496 -48v16h-440v464h-16v-16h-24v-16h24v-96h-24v-16h24v-96h-24v-16h24v-96h-24v-16h24v-104c0 -4.7998 3.2002 -8 8 -8h448zM376 112v16h96v-16h-96zM376 280v16h96v-16h-96z
M376 336v16h96v-16h-96z" />
    <glyph glyph-name="uniF103" unicode="&#xf103;" 
d="M384 184c0 4.41797 3.58203 8 8 8s8 -3.58203 8 -8s-3.58203 -8 -8 -8s-8 3.58203 -8 8zM104 -32v304h80v-304h-80zM136 344c0 4.41797 3.58203 8 8 8s8 -3.58203 8 -8s-3.58203 -8 -8 -8s-8 3.58203 -8 8zM264 264c0 4.41797 3.58203 8 8 8s8 -3.58203 8 -8
s-3.58203 -8 -8 -8s-8 3.58203 -8 8zM232 -32v224h80v-224h-80zM496 448c8.7998 0 16 -7.2002 16 -16v-480c0 -8.7998 -7.2002 -16 -16 -16h-480c-8.7998 0 -16 7.2002 -16 16v480c0 8.7998 7.2002 16 16 16h480zM368 400v-16h96v16h-96zM336 400v-16h16v16h-16zM336 368
v-16h128v16h-128zM336 336v-16h128v16h-128zM120.8 348.8c-3.2002 -12.7998 4.7998 -25.5996 17.6006 -28c2.39941 -0.799805 4 -0.799805 5.59961 -0.799805c5.59961 0 10.4004 1.59961 15.2002 5.59961l89.5996 -56c-2.39941 -12.7998 5.60059 -25.5996 18.4004 -28.7998
c7.2002 -1.59961 14.3994 0 20 4l82.3994 -55.2002c-0.799805 -1.59961 -0.799805 -4 -0.799805 -5.59961c0 -13.5996 10.4004 -24 24 -24c13.6006 0 24 10.4004 24 24s-10.3994 24 -24 24c-5.59961 0 -10.3994 -1.59961 -14.3994 -4.7998l-82.4004 55.2002
c0.799805 1.59961 0.799805 4 0.799805 5.59961c0 13.5996 -10.3994 24 -24 24c-5.59961 0 -11.2002 -2.40039 -15.2002 -5.59961l-89.5996 56c2.40039 12.7998 -5.59961 25.5996 -18.4004 28.7998c-12.7998 2.39941 -25.5996 -5.60059 -28.7998 -18.4004zM496 -48v16h-40
v152c0 4.7998 -3.2002 8 -8 8h-96c-4.7998 0 -8 -3.2002 -8 -8v-152h-16v232c0 4.7998 -3.2002 8 -8 8h-96c-4.7998 0 -8 -3.2002 -8 -8v-232h-16v312c0 4.7998 -3.2002 8 -8 8h-96c-4.7998 0 -8 -3.2002 -8 -8v-312h-32v464h-16v-16h-24v-16h24v-96h-24v-16h24v-96h-24v-16
h24v-96h-24v-16h24v-104c0 -4.7998 3.2002 -8 8 -8h448zM360 -32v144h80v-144h-80z" />
    <glyph glyph-name="uniF10B" unicode="&#xf10b;" 
d="M496 448c8.7998 0 16 -7.2002 16 -16v-480c0 -8.7998 -7.2002 -16 -16 -16h-480c-8.7998 0 -16 7.2002 -16 16v480c0 8.7998 7.2002 16 16 16h480zM368 416v-16h96v16h-96zM336 416v-16h16v16h-16zM336 384v-16h128v16h-128zM336 352v-16h128v16h-128zM176.8 267.2
l-88.7998 -232.8l15.2002 -5.60059l86.3994 227.2h158.4l83.2002 -117.6l-28.7998 4l-2.40039 -16l47.2002 -6.40039h0.799805c4 0 7.2002 3.2002 8 7.2002l6.40039 47.2002l-16 2.39941l-4 -27.2002l-84 119.2c-1.60059 1.60059 -4 3.2002 -6.40039 3.2002h-168
c-3.2002 0 -6.40039 -1.59961 -7.2002 -4.7998zM496 -48v16h-440v464h-16v-16h-24v-16h24v-96h-24v-16h24v-96h-24v-16h24v-96h-24v-16h24v-104c0 -4.7998 3.2002 -8 8 -8h448z" />
    <glyph glyph-name="uniF100" unicode="&#xf100;" 
d="M184 192c0 4.41797 3.58203 8 8 8s8 -3.58203 8 -8s-3.58203 -8 -8 -8s-8 3.58203 -8 8zM104 112c0 4.41797 3.58203 8 8 8s8 -3.58203 8 -8s-3.58203 -8 -8 -8s-8 3.58203 -8 8zM296 192c0 4.41797 3.58203 8 8 8s8 -3.58203 8 -8s-3.58203 -8 -8 -8s-8 3.58203 -8 8z
M432 328c0 4.41797 3.58203 8 8 8s8 -3.58203 8 -8s-3.58203 -8 -8 -8s-8 3.58203 -8 8zM496 448c8.7998 0 16 -7.2002 16 -16v-480c0 -8.7998 -7.2002 -16 -16 -16h-480c-8.7998 0 -16 7.2002 -16 16v480c0 8.7998 7.2002 16 16 16h480zM136 400v-16h96v16h-96zM104 400
v-16h16v16h-16zM104 368v-16h128v16h-128zM104 336v-16h128v16h-128zM112 136c-13.5996 0 -24 -10.4004 -24 -24s10.4004 -24 24 -24s24 10.4004 24 24c0 4 -0.799805 7.2002 -2.40039 10.4004l48 48c3.2002 -1.60059 7.2002 -2.40039 10.4004 -2.40039
c10.4004 0 19.2002 6.40039 22.4004 16h67.1992c4 -12 17.6006 -18.4004 30.4004 -14.4004c9.59961 3.2002 16 12 16 22.4004c0 4 -0.799805 7.2002 -2.40039 10.4004l104 104c3.2002 -1.60059 7.2002 -2.40039 10.4004 -2.40039c13.5996 0 24 10.4004 24 24
s-10.4004 24 -24 24s-24 -10.4004 -24 -24c0 -3.2002 0.799805 -7.2002 2.40039 -10.4004l-104 -104c-3.2002 1.60059 -7.2002 2.40039 -10.4004 2.40039c-10.4004 0 -19.2002 -6.40039 -22.4004 -16h-67.1992c-4 12 -17.6006 18.4004 -30.4004 14.4004
c-9.59961 -3.2002 -16 -12 -16 -22.4004c0 -3.2002 0.799805 -7.2002 2.40039 -10.4004l-48 -48c-3.2002 1.60059 -7.2002 2.40039 -10.4004 2.40039zM496 -48v16h-440v464h-16v-16h-24v-16h24v-96h-24v-16h24v-96h-24v-16h24v-96h-24v-16h24v-104c0 -4.7998 3.2002 -8 8 -8
h448z" />
    <glyph glyph-name="uniF11C" unicode="&#xf11c;" 
d="M496 448c8.7998 0 16 -7.2002 16 -16v-480c0 -8.7998 -7.2002 -16 -16 -16h-480c-8.7998 0 -16 7.2002 -16 16v480c0 8.7998 7.2002 16 16 16h480zM368 416v-16h96v16h-96zM336 416v-16h16v16h-16zM336 384v-16h128v16h-128zM336 352v-16h128v16h-128zM496 -48v16h-24v40
h-16v-40h-16v72h-16v-72h-16v104h-16v-104h-16v136h-16v-136h-16v168h-16v-168h-16v200h-16v-200h-16v232h-16v-232h-16v264h-16v-264h-16v296h-16v-296h-16v328h-16v-328h-16v360h-16v-360h-16v392h-16v-392h-16v424h-16v-424h-16v464h-16v-16h-24v-16h24v-96h-24v-16h24
v-96h-24v-16h24v-96h-24v-16h24v-104c0 -4.7998 3.2002 -8 8 -8h448z" />
    <glyph glyph-name="uniF11A" unicode="&#xf11a;" 
d="M360 -32v144h80v-144h-80zM104 -32v304h80v-304h-80zM232 -32v224h80v-224h-80zM496 448c8.7998 0 16 -7.2002 16 -16v-480c0 -8.7998 -7.2002 -16 -16 -16h-480c-8.7998 0 -16 7.2002 -16 16v480c0 8.7998 7.2002 16 16 16h480zM368 400v-16h96v16h-96zM336 400v-16h16
v16h-16zM336 368v-16h128v16h-128zM336 336v-16h128v16h-128zM113.6 393.6l-11.1992 -11.1992l124 -116c1.59961 -1.60059 3.19922 -2.40039 5.59961 -2.40039h92l65.5996 -72h-29.5996v-16h48c4.7998 0 8 3.2002 8 8v48h-16v-27.2002l-66.4004 72.7998
c-0.799805 1.60059 -3.19922 2.40039 -5.59961 2.40039h-92.7998zM496 -48v16h-40v152c0 4.7998 -3.2002 8 -8 8h-96c-4.7998 0 -8 -3.2002 -8 -8v-152h-16v232c0 4.7998 -3.2002 8 -8 8h-96c-4.7998 0 -8 -3.2002 -8 -8v-232h-16v312c0 4.7998 -3.2002 8 -8 8h-96
c-4.7998 0 -8 -3.2002 -8 -8v-312h-32v464h-16v-16h-24v-16h24v-96h-24v-16h24v-96h-24v-16h24v-96h-24v-16h24v-104c0 -4.7998 3.2002 -8 8 -8h448z" />
    <glyph glyph-name="uniF11B" unicode="&#xf11b;" 
d="M200 -32v208h48v-208h-48zM104 -32v136h48v-136h-48zM104 120v72h48v-72h-48zM296 -32v176h48v-176h-48zM200 192v64h48v-64h-48zM392 224v128h48v-128h-48zM496 448c8.7998 0 16 -7.2002 16 -16v-480c0 -8.7998 -7.2002 -16 -16 -16h-480c-8.7998 0 -16 7.2002 -16 16
v480c0 8.7998 7.2002 16 16 16h480zM120 416v-16h96v16h-96zM88 416v-16h16v16h-16zM88 384v-16h128v16h-128zM88 352v-16h128v16h-128zM496 -48v16h-40v392c0 4.7998 -3.2002 8 -8 8h-64c-4.7998 0 -8 -3.2002 -8 -8v-392h-16v328c0 4.7998 -3.2002 8 -8 8h-64
c-4.7998 0 -8 -3.2002 -8 -8v-328h-16v296c0 4.7998 -3.2002 8 -8 8h-64c-4.7998 0 -8 -3.2002 -8 -8v-296h-16v232c0 4.7998 -3.2002 8 -8 8h-64c-4.7998 0 -8 -3.2002 -8 -8v-232h-32v464h-16v-16h-24v-16h24v-96h-24v-16h24v-96h-24v-16h24v-96h-24v-16h24v-104
c0 -4.7998 3.2002 -8 8 -8h448zM296 160v128h48v-128h-48zM392 -32v240h48v-240h-48z" />
    <glyph glyph-name="uniF11F" unicode="&#xf11f;" 
d="M264 120v72h16v-224h-16v152zM232 -32v144h16v-144h-16zM128 120v160h16v-312h-16v152zM160 -32v224h16v-224h-16zM96 -32v144h16v-144h-16zM296 -32v368h16v-368h-16zM440 -32v400h16v-400h-16zM496 448c8.7998 0 16 -7.2002 16 -16v-480c0 -8.7998 -7.2002 -16 -16 -16
h-480c-8.7998 0 -16 7.2002 -16 16v480c0 8.7998 7.2002 16 16 16h480zM120 416v-16h96v16h-96zM88 416v-16h16v16h-16zM88 384v-16h128v16h-128zM88 352v-16h128v16h-128zM496 -48v16h-24v408c0 4.7998 -3.2002 8 -8 8h-32c-4.7998 0 -8 -3.2002 -8 -8v-216h-16v40
c0 4.7998 -3.2002 8 -8 8h-32c-4.7998 0 -8 -3.2002 -8 -8v-232h-32v376c0 4.7998 -3.2002 8 -8 8h-32c-4.7998 0 -8 -3.2002 -8 -8v-136h-24c-4.7998 0 -8 -3.2002 -8 -8v-72h-24c-4.7998 0 -8 -3.2002 -8 -8v-152h-24v232c0 4.7998 -3.2002 8 -8 8h-24v80
c0 4.7998 -3.2002 8 -8 8h-32c-4.7998 0 -8 -3.2002 -8 -8v-160h-24c-4.7998 0 -8 -3.2002 -8 -8v-152h-24v464h-16v-16h-24v-16h24v-96h-24v-16h24v-96h-24v-16h24v-96h-24v-16h24v-104c0 -4.7998 3.2002 -8 8 -8h448zM376 -32v224h16v-224h-16zM408 -32v176h16v-176h-16z
" />
    <glyph glyph-name="uniF102" unicode="&#xf102;" 
d="M136 184c0 4.41797 3.58203 8 8 8s8 -3.58203 8 -8s-3.58203 -8 -8 -8s-8 3.58203 -8 8zM104 -32v144h80v-144h-80zM264 264c0 4.41797 3.58203 8 8 8s8 -3.58203 8 -8s-3.58203 -8 -8 -8s-8 3.58203 -8 8zM392 344c0 4.41797 3.58203 8 8 8s8 -3.58203 8 -8
s-3.58203 -8 -8 -8s-8 3.58203 -8 8zM360 -32v304h80v-304h-80zM496 448c8.7998 0 16 -7.2002 16 -16v-480c0 -8.7998 -7.2002 -16 -16 -16h-480c-8.7998 0 -16 7.2002 -16 16v480c0 8.7998 7.2002 16 16 16h480zM272 288c-12.7998 0 -24 -10.4004 -24 -24
c0 -1.59961 0 -3.2002 0.799805 -5.59961l-89.5996 -56c-4.7998 4 -9.60059 5.59961 -15.2002 5.59961c-12.7998 0 -24 -10.4004 -24 -24c0 -12.7998 10.4004 -24 24 -24c12.7998 0 24 10.4004 24 24c0 1.59961 0 3.2002 -0.799805 5.59961l89.5996 56
c4.7998 -4 9.60059 -5.59961 15.2002 -5.59961c12.7998 0 24 11.2002 24 24c0 1.59961 0 3.2002 -0.799805 5.59961l89.5996 56c4.7998 -4 9.60059 -5.59961 15.2002 -5.59961c12.7998 0 24 10.4004 24 24c0 12.7998 -10.4004 24 -24 24c-12.7998 0 -24 -10.4004 -24 -24
c0 -1.59961 0 -3.2002 0.799805 -5.59961l-89.5996 -56c-4.7998 4 -9.60059 5.59961 -15.2002 5.59961zM136 400v-16h96v16h-96zM104 400v-16h16v16h-16zM104 368v-16h128v16h-128zM104 336v-16h128v16h-128zM496 -48v16h-40v312c0 4.7998 -3.2002 8 -8 8h-96
c-4.7998 0 -8 -3.2002 -8 -8v-312h-16v232c0 4.7998 -3.2002 8 -8 8h-96c-4.7998 0 -8 -3.2002 -8 -8v-232h-16v152c0 4.7998 -3.2002 8 -8 8h-96c-4.7998 0 -8 -3.2002 -8 -8v-152h-32v464h-16v-16h-24v-16h24v-96h-24v-16h24v-96h-24v-16h24v-96h-24v-16h24v-104
c0 -4.7998 3.2002 -8 8 -8h448zM232 -32v224h80v-224h-80z" />
    <glyph glyph-name="uniF11D" unicode="&#xf11d;" 
d="M496 448c8.7998 0 16 -7.2002 16 -16v-480c0 -8.7998 -7.2002 -16 -16 -16h-480c-8.7998 0 -16 7.2002 -16 16v480c0 8.7998 7.2002 16 16 16h480zM120 416v-16h96v16h-96zM88 416v-16h16v16h-16zM88 384v-16h128v16h-128zM88 352v-16h128v16h-128zM496 -48v16h-24v424
h-16v-424h-16v392h-16v-392h-16v360h-16v-360h-16v328h-16v-328h-16v296h-16v-296h-16v264h-16v-264h-16v232h-16v-232h-16v200h-16v-200h-16v168h-16v-168h-16v136h-16v-136h-16v104h-16v-104h-16v72h-16v-72h-16v40h-16v-40h-16v464h-16v-16h-24v-16h24v-96h-24v-16h24
v-96h-24v-16h24v-96h-24v-16h24v-104c0 -4.7998 3.2002 -8 8 -8h448z" />
    <glyph glyph-name="uniF10D" unicode="&#xf10d;" 
d="M496 448c8.7998 0 16 -7.2002 16 -16v-480c0 -8.7998 -7.2002 -16 -16 -16h-480c-8.7998 0 -16 7.2002 -16 16v480c0 8.7998 7.2002 16 16 16h480zM368 416v-16h96v16h-96zM336 416v-16h16v16h-16zM336 384v-16h128v16h-128zM336 352v-16h128v16h-128zM496 -48v16h-440
v357.6l113.6 -170.399c1.60059 -1.60059 4 -3.2002 6.40039 -3.2002s4.7998 0.799805 6.40039 2.40039l104 112l122.399 -229.601l-28 8l-4.7998 -15.2002l46.4004 -13.5996c4 -0.799805 8 1.59961 9.59961 5.59961l12.7998 46.4004l-15.2002 4.7998l-8 -27.2002
l-126.399 238.4c-2.40039 4 -7.2002 5.59961 -11.2002 3.2002c-0.799805 -0.799805 -1.59961 -0.799805 -2.40039 -1.60059l-104.8 -112.8l-120.8 181.601v77.5996h-16v-16h-24v-16h24v-96h-24v-16h24v-96h-24v-16h24v-96h-24v-16h24v-104c0 -4.7998 3.2002 -8 8 -8h448z
" />
    <glyph glyph-name="uniF104" unicode="&#xf104;" 
d="M496 448c8.7998 0 16 -7.2002 16 -16v-480c0 -8.7998 -7.2002 -16 -16 -16h-480c-8.7998 0 -16 7.2002 -16 16v480c0 8.7998 7.2002 16 16 16h480zM136 400v-16h96v16h-96zM104 400v-16h16v16h-16zM104 368v-16h128v16h-128zM104 336v-16h128v16h-128zM120.8 75.2002
l-31.2002 -63.2002l14.4004 -7.2002l26.4004 52l16 -21.5996c2.39941 -3.2002 8 -4 11.1992 -1.60059c0.800781 0.800781 1.60059 1.60059 2.40039 3.2002l24.7998 62.4004l16 -38.4004c1.60059 -4 6.40039 -5.59961 10.4004 -4
c1.59961 0.799805 2.39941 1.60059 3.2002 2.40039l24 30.3994l18.3994 -36.7998c0.799805 -3.2002 4 -4.7998 7.2002 -4.7998s6.40039 2.40039 7.2002 4.7998l72 187.2l16.7998 -50.4004c1.59961 -4 6.40039 -6.39941 10.4004 -4.7998
c1.59961 0 3.19922 0.799805 4 2.40039l24 29.5996l26.3994 -60c1.60059 -4 6.40039 -5.59961 10.4004 -4c2.39941 0.799805 4 3.2002 4.7998 5.60059l24 120l-16 3.19922l-20.7998 -96l-21.6006 48.8008c-1.59961 4 -6.39941 5.59961 -10.3994 4
c-1.60059 -0.800781 -2.40039 -1.60059 -3.2002 -2.40039l-22.4004 -28.7998l-19.1992 58.3994c-0.800781 3.2002 -4 5.60059 -7.2002 5.60059c-4 0.799805 -7.2002 -1.60059 -8 -4.7998l-73.6006 -191.2l-16 32c-1.59961 3.2002 -6.39941 4.7998 -10.3994 3.2002
c-0.799805 -0.800781 -1.60059 -1.60059 -2.40039 -2.40039l-24 -29.5996l-18.3994 44c-0.800781 3.19922 -4 4.7998 -7.2002 4.7998s-5.60059 -1.60059 -7.2002 -4.7998l-26.4004 -66.4004l-15.1992 20.7998c-2.40039 3.2002 -8 4 -11.2002 1.60059
c-0.799805 -0.800781 -1.60059 -2.40039 -2.40039 -3.2002zM496 -48v16h-440v464h-16v-16h-24v-16h24v-96h-24v-16h24v-96h-24v-16h24v-96h-24v-16h24v-104c0 -4.7998 3.2002 -8 8 -8h448z" />
    <glyph glyph-name="uniF10F" unicode="&#xf10f;" 
d="M384 344c0 4.41797 3.58203 8 8 8s8 -3.58203 8 -8s-3.58203 -8 -8 -8s-8 3.58203 -8 8zM128 56c0 4.41797 3.58203 8 8 8s8 -3.58203 8 -8s-3.58203 -8 -8 -8s-8 3.58203 -8 8zM288 152c0 4.41797 3.58203 8 8 8s8 -3.58203 8 -8s-3.58203 -8 -8 -8s-8 3.58203 -8 8z
M200 248c0 4.41797 3.58203 8 8 8s8 -3.58203 8 -8s-3.58203 -8 -8 -8s-8 3.58203 -8 8zM496 448c8.7998 0 16 -7.2002 16 -16v-480c0 -8.7998 -7.2002 -16 -16 -16h-480c-8.7998 0 -16 7.2002 -16 16v480c0 8.7998 7.2002 16 16 16h480zM72 352v-16h297.6
c3.2002 -9.59961 12 -16 22.4004 -16s19.2002 6.40039 22.4004 16h65.5996v16h-65.5996c-4 12 -17.6006 18.4004 -30.4004 14.4004c-6.40039 -2.40039 -12 -7.2002 -14.4004 -14.4004h-297.6zM72 256v-16h113.6c3.2002 -9.59961 12 -16 22.4004 -16
s19.2002 6.40039 22.4004 16h249.6v16h-249.6c-4 12 -17.6006 18.4004 -30.4004 14.4004c-6.40039 -2.40039 -12 -7.2002 -14.4004 -14.4004h-113.6zM72 160v-16h201.6c3.2002 -9.59961 12 -16 22.4004 -16s19.2002 6.40039 22.4004 16h161.6v16h-161.6
c-4 12 -17.6006 18.4004 -30.4004 14.4004c-6.40039 -2.40039 -12 -7.2002 -14.4004 -14.4004h-201.6zM72 64v-16h41.5996c3.2002 -9.59961 12 -16 22.4004 -16s19.2002 6.40039 22.4004 16h321.6v16h-321.6c-4 12 -17.6006 18.4004 -30.4004 14.4004
c-6.40039 -2.40039 -12 -7.2002 -14.4004 -14.4004h-41.5996zM496 -48v16h-440v464h-16v-16h-24v-16h24v-96h-24v-16h24v-96h-24v-16h24v-96h-24v-16h24v-104c0 -4.7998 3.2002 -8 8 -8h448z" />
    <glyph glyph-name="uniF101" unicode="&#xf101;" 
d="M432 24c0 4.41797 3.58203 8 8 8s8 -3.58203 8 -8s-3.58203 -8 -8 -8s-8 3.58203 -8 8zM104 368c0 4.41797 3.58203 8 8 8s8 -3.58203 8 -8s-3.58203 -8 -8 -8s-8 3.58203 -8 8zM328 168c0 4.41797 3.58203 8 8 8s8 -3.58203 8 -8s-3.58203 -8 -8 -8s-8 3.58203 -8 8z
M216 216c0 4.41797 3.58203 8 8 8s8 -3.58203 8 -8s-3.58203 -8 -8 -8s-8 3.58203 -8 8zM496 448c8.7998 0 16 -7.2002 16 -16v-480c0 -8.7998 -7.2002 -16 -16 -16h-480c-8.7998 0 -16 7.2002 -16 16v480c0 8.7998 7.2002 16 16 16h480zM368 400v-16h96v16h-96zM336 400
v-16h16v16h-16zM336 368v-16h128v16h-128zM336 336v-16h128v16h-128zM92 381.6c-7.2002 -11.1992 -4.7998 -26.3994 6.40039 -33.5996c4 -2.40039 8.7998 -4 13.5996 -4c2.40039 0 4.7998 0.799805 7.2002 0.799805l85.5996 -115.2
c-8 -11.1992 -5.59961 -26.3994 5.60059 -33.5996c9.59961 -6.40039 23.1992 -4.7998 31.1992 4l70.4004 -30.4004v-1.59961c0 -12.7998 10.4004 -24 23.2002 -24h6.39941l77.6006 -107.2c-8 -11.2002 -5.60059 -27.2002 5.59961 -35.2002s27.2002 -5.59961 35.2002 5.60059
s5.59961 27.2002 -5.59961 35.2002c-6.40039 4.7998 -14.4004 6.39941 -21.6006 4l-77.5996 107.199c8 11.2002 5.59961 26.4004 -5.60059 33.6006c-9.59961 7.2002 -23.1992 5.59961 -31.1992 -3.2002l-70.4004 30.4004v1.59961c0 13.5996 -10.4004 24 -24 24
c-2.40039 0 -4.7998 0 -6.40039 -1.59961l-85.5996 116c7.2002 11.1992 4.7998 26.3994 -6.40039 33.5996c-11.1992 7.2002 -26.3994 4.7998 -33.5996 -6.40039zM496 -48v16h-440v464h-16v-16h-24v-16h24v-96h-24v-16h24v-96h-24v-16h24v-96h-24v-16h24v-104
c0 -4.7998 3.2002 -8 8 -8h448z" />
    <glyph glyph-name="uniF114" unicode="&#xf114;" 
d="M496 448c8.7998 0 16 -7.2002 16 -16v-480c0 -8.7998 -7.2002 -16 -16 -16h-480c-8.7998 0 -16 7.2002 -16 16v480c0 8.7998 7.2002 16 16 16h480zM120 416v-16h96v16h-96zM88 416v-16h16v16h-16zM88 384v-16h128v16h-128zM88 352v-16h128v16h-128zM496 176v16h-56
c-2.40039 90.4004 -40 160 -88 160s-85.5996 -69.5996 -88 -160h-96c-2.40039 56 -28.7998 96 -64 96c-20 0 -36.7998 -12 -48 -32.7998v176.8h-16v-16h-24v-16h24v-96h-24v-16h24v-96h-24v-16h24v-96h-24v-16h24v-104c0 -4.7998 3.2002 -8 8 -8h448v16h-440v208h96
c2.40039 -56 28 -96 64 -96s61.5996 40 64 96h216zM104 272c25.5996 0 45.5996 -33.5996 48 -80h-96c2.40039 46.4004 22.4004 80 48 80zM216 96c-25.5996 0 -45.5996 33.5996 -48 80h96c-2.40039 -46.4004 -22.4004 -80 -48 -80zM352 336
c37.5996 0 69.5996 -64.7998 72 -144h-144c2.40039 79.2002 34.4004 144 72 144z" />
    <glyph glyph-name="uniF11E" unicode="&#xf11e;" 
d="M496 448c8.7998 0 16 -7.2002 16 -16v-480c0 -8.7998 -7.2002 -16 -16 -16h-480c-8.7998 0 -16 7.2002 -16 16v480c0 8.7998 7.2002 16 16 16h480zM368 416v-16h96v16h-96zM336 416v-16h16v16h-16zM336 384v-16h128v16h-128zM336 352v-16h128v16h-128zM496 -48v16h-440
v16h424v16h-424v16h392v16h-392v16h360v16h-360v16h328v16h-328v16h296v16h-296v16h264v16h-264v16h232v16h-232v16h200v16h-200v16h168v16h-168v16h136v16h-136v16h104v16h-104v16h72v16h-72v16h40v16h-40v48h-16v-16h-24v-16h24v-96h-24v-16h24v-96h-24v-16h24v-96h-24
v-16h24v-104c0 -4.7998 3.2002 -8 8 -8h448z" />
    <glyph glyph-name="uniF119" unicode="&#xf119;" 
d="M104 -32v144h80v-144h-80zM360 -32v304h80v-304h-80zM232 -32v224h80v-224h-80zM496 448c8.7998 0 16 -7.2002 16 -16v-480c0 -8.7998 -7.2002 -16 -16 -16h-480c-8.7998 0 -16 7.2002 -16 16v480c0 8.7998 7.2002 16 16 16h480zM352 352h28.7998l-88 -88h-60.7998
c-2.40039 0 -4 -0.799805 -5.59961 -2.40039l-88 -88l11.1992 -11.1992l85.6006 85.5996h60.7998c2.40039 0 4 0.799805 5.59961 2.40039l90.4004 90.3994v-28.7998h16v48c0 4.7998 -3.2002 8 -8 8h-48v-16zM136 400v-16h96v16h-96zM104 400v-16h16v16h-16zM104 368v-16h128
v16h-128zM104 336v-16h128v16h-128zM496 -48v16h-40v312c0 4.7998 -3.2002 8 -8 8h-96c-4.7998 0 -8 -3.2002 -8 -8v-312h-16v232c0 4.7998 -3.2002 8 -8 8h-96c-4.7998 0 -8 -3.2002 -8 -8v-232h-16v152c0 4.7998 -3.2002 8 -8 8h-96c-4.7998 0 -8 -3.2002 -8 -8v-152h-32
v464h-16v-16h-24v-16h24v-96h-24v-16h24v-96h-24v-16h24v-96h-24v-16h24v-104c0 -4.7998 3.2002 -8 8 -8h448z" />
    <glyph glyph-name="uniF10C" unicode="&#xf10c;" 
d="M496 448c8.7998 0 16 -7.2002 16 -16v-480c0 -8.7998 -7.2002 -16 -16 -16h-480c-8.7998 0 -16 7.2002 -16 16v480c0 8.7998 7.2002 16 16 16h480zM120 416v-16h96v16h-96zM88 416v-16h16v16h-16zM88 384v-16h128v16h-128zM88 352v-16h128v16h-128zM85.5996 197.6
l-11.1992 -11.1992l136 -120c1.59961 -1.60059 4 -2.40039 5.59961 -2.40039h0.799805c2.40039 0 4 0.799805 5.60059 2.40039l217.6 256v-26.4004h16v48c0 4.7998 -3.2002 8 -8 8h-48v-16h30.4004l-215.2 -252.8zM496 -48v16h-440v464h-16v-16h-24v-16h24v-96h-24v-16h24
v-96h-24v-16h24v-96h-24v-16h24v-104c0 -4.7998 3.2002 -8 8 -8h448z" />
    <glyph glyph-name="uniF117" unicode="&#xf117;" 
d="M264 416c124 -4.7998 220 -108.8 216.8 -231.2c-2.39941 -54.3994 -23.2002 -105.6 -60 -144.8l-22.3994 22.4004c3.19922 4 7.19922 8.7998 10.3994 12.7998c0 0.799805 0.799805 0.799805 0.799805 1.59961c3.2002 4 5.60059 8 8.80078 12.7998
c0 0 0.799805 0.800781 0.799805 1.60059c3.2002 4.7998 5.59961 8.7998 8 13.5996c0 0.799805 0.799805 1.60059 0.799805 2.40039c2.40039 4.7998 4.7998 9.59961 6.40039 14.3994c0 0.800781 0.799805 1.60059 0.799805 2.40039
c1.59961 5.59961 3.2002 10.4004 4.7998 15.2002c0.799805 0.799805 0.799805 1.59961 0.799805 2.39941c1.60059 4.80078 3.2002 9.60059 4 15.2002v1.60059c0.799805 4.7998 1.60059 10.3994 2.40039 16v0.799805c0.799805 6.39941 0.799805 12 0.799805 17.5996v9.60059
v3.19922c-0.799805 2.40039 -0.799805 4 -0.799805 6.40039c-0.799805 1.59961 -0.799805 2.40039 -0.799805 4s-0.800781 4 -0.800781 5.59961c0 1.60059 -0.799805 2.40039 -0.799805 4c0 2.40039 -0.799805 4 -0.799805 5.60059c0 1.59961 -0.799805 2.39941 -0.799805 4
c0 1.59961 0 3.2002 -0.799805 4.7998c0 1.59961 -0.800781 2.40039 -0.800781 4c-0.799805 1.59961 -0.799805 3.2002 -1.59961 4.7998c-0.799805 1.60059 -0.799805 2.40039 -1.59961 4c-0.800781 1.60059 -0.800781 3.2002 -1.60059 4.7998
c-0.799805 1.60059 -0.799805 2.40039 -1.59961 4c0 1.60059 -0.799805 3.2002 -1.60059 4.80078c-0.799805 1.59961 -0.799805 2.39941 -1.59961 4c-0.799805 1.59961 -1.59961 3.19922 -2.40039 4.7998c0 1.59961 -0.799805 2.39941 -1.59961 4
c-0.799805 0.799805 -1.59961 2.39941 -2.40039 4c-0.799805 1.59961 -1.59961 2.39941 -2.39941 4c-0.799805 1.59961 -1.60059 2.39941 -2.40039 4c-0.799805 1.59961 -1.59961 2.39941 -2.39941 4c-0.800781 1.59961 -1.60059 2.39941 -2.40039 4
c-0.799805 0.799805 -1.59961 2.39941 -2.40039 3.2002c-0.799805 1.59961 -1.59961 2.39941 -2.39941 4c-0.799805 0.799805 -1.60059 2.39941 -2.40039 3.19922c-0.799805 1.60059 -2.39941 2.40039 -3.2002 4c-1.59961 0.800781 -2.39941 2.40039 -3.19922 3.2002
c-0.800781 0.799805 -2.40039 2.40039 -3.2002 3.2002c-1.60059 0.799805 -2.40039 2.40039 -3.2002 3.2002s-2.40039 2.39941 -3.2002 3.2002c-0.799805 0.799805 -2.39941 2.39941 -3.2002 3.19922c-0.799805 0.800781 -2.39941 2.40039 -3.19922 3.2002
c-0.800781 1.60059 -2.40039 2.40039 -3.2002 3.2002l-3.2002 3.2002c-0.799805 1.59961 -1.59961 1.59961 -3.2002 3.2002c-1.59961 1.59961 -2.39941 2.39941 -4 3.19922c-0.799805 0.800781 -2.39941 1.60059 -3.2002 2.40039
c-1.59961 0.799805 -2.39941 1.59961 -4 2.40039c-1.59961 0.799805 -2.39941 1.59961 -4 2.39941c-1.59961 0.799805 -2.39941 1.60059 -4 2.40039c-1.59961 0.799805 -2.39941 1.59961 -4 2.39941c-1.59961 0.800781 -2.39941 1.60059 -4 2.40039
c-1.59961 0.799805 -3.19922 1.59961 -4 2.40039c-0.799805 0.799805 -2.39941 1.59961 -4 2.39941c-1.59961 0 -2.39941 0.799805 -4 1.60059c-0.799805 0 -2.39941 0.799805 -4 1.59961c-1.59961 0.799805 -2.39941 0.799805 -4 1.59961
c-1.59961 0.800781 -3.19922 0.800781 -4.7998 1.60059c-1.59961 0.799805 -2.39941 0.799805 -4 1.59961c-1.59961 0.799805 -3.2002 0.799805 -4.7998 1.60059c-1.59961 0.799805 -2.40039 1.59961 -4 1.59961s-3.2002 0.799805 -4.7998 2.40039
c-0.799805 0 -2.40039 0.799805 -4 0.799805c-1.60059 0 -3.2002 0.799805 -4.7998 0.799805c-1.60059 0 -3.2002 0.799805 -4.80078 0.799805c-1.59961 0 -3.19922 0.799805 -4.7998 0.799805c-1.59961 0 -3.2002 0.800781 -4.7998 0.800781
c-1.59961 0.799805 -3.2002 0.799805 -4.7998 0.799805c-1.60059 0.799805 -3.2002 0.799805 -4.7998 0.799805h-4.80078h-4.7998h-0.799805v32zM65.5996 217.6c-0.799805 -5.59961 -1.59961 -11.1992 -1.59961 -16.7998l-32 -0.799805
c4.7998 117.6 98.4004 211.2 216.8 216v-31.2002h-0.799805c-5.59961 0 -11.2002 -0.799805 -16.7998 -1.59961h-2.40039c-5.59961 -0.799805 -11.2002 -2.40039 -16 -3.2002c-0.799805 -0.799805 -1.59961 -0.799805 -2.39941 -0.799805
c-5.60059 -0.799805 -10.4004 -2.40039 -15.2002 -4l-2.40039 -0.799805c-4.7998 -1.60059 -9.59961 -3.2002 -14.3994 -5.60059l-2.40039 -0.799805c-4.7998 -2.40039 -8.7998 -4.7998 -13.5996 -7.2002c-0.800781 0 -0.800781 -0.799805 -1.60059 -0.799805
c-4.7998 -2.40039 -9.59961 -4.7998 -13.5996 -8c-0.799805 0 -0.799805 -0.799805 -1.60059 -0.799805c-4 -3.2002 -8.7998 -6.40039 -12.7998 -9.60059l-0.799805 -0.799805c-8.7998 -7.2002 -16.7998 -15.2002 -24 -24l-0.799805 -0.799805
c-3.2002 -4 -6.40039 -8 -9.60059 -12.7998c0 -0.799805 -0.799805 -0.799805 -0.799805 -1.60059c-2.39941 -4.7998 -5.59961 -8.7998 -8 -13.5996c0 -0.799805 -0.799805 -0.799805 -0.799805 -1.59961c-2.40039 -4 -4.7998 -8.80078 -7.2002 -13.6006
c0 -0.799805 -0.799805 -1.59961 -0.799805 -2.39941c-2.40039 -4.80078 -4 -9.60059 -5.59961 -14.4004c0 -0.799805 -0.800781 -1.59961 -0.800781 -2.40039c-1.59961 -4.7998 -2.39941 -10.3994 -4 -15.1992c-0.799805 -0.800781 -0.799805 -1.60059 -0.799805 -2.40039
c-1.59961 -5.59961 -2.39941 -10.4004 -3.2002 -16v-2.40039zM131.2 67.2002c-68 68.7998 -68 180.8 0 249.6c68.7998 68 180.8 68 249.6 0c32.7998 -33.5996 51.2002 -78.3994 51.2002 -124.8s-18.4004 -91.2002 -52 -124.8c-68.7998 -68.7998 -180 -68.7998 -248.8 0z
M372.8 40c4.7998 3.2002 8.7998 6.40039 12.7998 10.4004l23.2002 -22.4004c-41.5996 -38.4004 -96 -60 -152.8 -60c-120.8 0 -219.2 95.2002 -224 216h32.7998v-0.799805v-4.7998v-4.80078c0.799805 -1.59961 0.799805 -3.19922 0.799805 -4.7998
c0 -1.59961 0.800781 -3.2002 0.800781 -4.7998s0.799805 -3.2002 0.799805 -4.7998c0 -1.60059 0.799805 -3.2002 0.799805 -4.7998c0 -1.60059 0.799805 -3.2002 0.799805 -4.80078c0 -1.59961 0.799805 -3.19922 0.799805 -4.7998
c0 -1.59961 0.800781 -2.39941 0.800781 -4c0.799805 -1.59961 0.799805 -3.2002 1.59961 -4.7998c0.799805 -0.799805 0.799805 -2.40039 1.59961 -4c0.800781 -1.59961 0.800781 -3.2002 1.60059 -4.7998c0.799805 -1.60059 0.799805 -2.40039 1.59961 -4
c0.799805 -1.60059 0.799805 -3.2002 1.60059 -4.7998c0.799805 -1.60059 0.799805 -2.40039 1.59961 -4c0 -0.800781 0.799805 -2.40039 1.59961 -4c0 -1.60059 0.800781 -2.40039 1.60059 -4c0.799805 -0.800781 1.59961 -2.40039 2.39941 -4
c0.800781 -1.60059 1.60059 -2.40039 2.40039 -4c0.799805 -1.60059 1.59961 -2.40039 2.40039 -4c0.799805 -1.60059 1.59961 -2.40039 2.39941 -4c0.799805 -1.60059 1.60059 -2.40039 2.40039 -4c0.799805 -1.60059 1.59961 -2.40039 2.39941 -4
c0.800781 -1.60059 1.60059 -2.40039 2.40039 -4c0.799805 -0.800781 1.59961 -2.40039 2.40039 -3.2002c1.59961 -1.60059 1.59961 -3.2002 3.19922 -4c1.60059 -0.799805 2.40039 -2.40039 3.2002 -3.2002l3.2002 -3.2002
c1.59961 -0.799805 2.40039 -2.39941 3.2002 -3.2002c0.799805 -0.799805 2.39941 -2.39941 3.2002 -3.19922c0.799805 -0.800781 2.39941 -2.40039 3.19922 -3.2002c0.800781 -0.799805 2.40039 -1.60059 3.2002 -3.2002s2.40039 -2.40039 3.2002 -3.2002
c1.59961 -0.799805 3.2002 -1.59961 4 -3.2002c0.799805 -1.59961 2.40039 -2.39941 3.2002 -3.19922c1.59961 -1.60059 2.39941 -2.40039 4 -3.2002c0.799805 -0.799805 2.39941 -1.60059 3.2002 -2.40039c1.59961 -0.799805 2.39941 -1.59961 4 -2.39941
c0.799805 -0.800781 2.39941 -1.60059 3.19922 -2.40039c1.60059 -0.799805 2.40039 -1.59961 4 -2.40039c1.60059 -0.799805 2.40039 -1.59961 4 -2.39941c1.60059 -0.799805 2.40039 -1.60059 4 -2.40039c1.60059 -0.799805 2.40039 -1.59961 4 -2.39941
c0.800781 -0.800781 2.40039 -1.60059 4 -2.40039c1.60059 0 2.40039 -0.799805 4 -1.59961c1.60059 -0.800781 3.2002 -1.60059 4.80078 -2.40039c1.59961 -0.799805 2.39941 -0.799805 4 -1.59961c1.59961 -0.800781 3.19922 -0.800781 4.7998 -1.60059
c1.59961 -0.799805 2.39941 -0.799805 4 -1.59961c1.59961 -0.799805 3.2002 -0.799805 4.7998 -1.60059c1.59961 -0.799805 2.40039 -0.799805 4 -1.59961s3.2002 -0.799805 4.7998 -1.59961c1.60059 0 2.40039 -0.800781 4 -0.800781
c1.60059 0 3.2002 -0.799805 4.7998 -0.799805c1.60059 0 2.40039 -0.799805 4 -0.799805c2.40039 0 4 -0.799805 5.60059 -0.799805c1.59961 0 2.39941 -0.799805 4 -0.799805c1.59961 0 4 -0.800781 5.59961 -0.800781c1.60059 -0.799805 2.40039 -0.799805 4 -0.799805
c2.40039 -0.799805 4 -0.799805 6.40039 -0.799805h3.2002h9.59961c5.59961 0 11.2002 0 16.7998 1.59961h0.799805c5.60059 0.800781 10.4004 1.60059 16 2.40039h1.60059c4.7998 1.59961 10.3994 2.40039 15.2002 4l2.39941 0.799805
c5.60059 1.60059 10.4004 3.2002 15.2002 4.7998l2.40039 0.800781c4.7998 1.59961 9.59961 4 14.3994 6.39941l2.40039 0.799805c4.7998 2.40039 8.7998 5.60059 13.5996 8c0 0 0.799805 0.800781 1.60059 0.800781c4 2.39941 8.7998 5.59961 12.7998 8.7998
c0.799805 0 0.799805 0.799805 1.59961 0.799805zM496 448c8.7998 0 16 -7.2002 16 -16v-480c0 -8.7998 -7.2002 -16 -16 -16h-480c-8.7998 0 -16 7.2002 -16 16v480c0 8.7998 7.2002 16 16 16h480zM432 416v-16h16v16h-16zM48 416v-16h32v16h-32zM16 416v-16h16v16h-16z
M16 392v-16h64v16h-64zM16 8v-16h16v16h-16zM80 -32v16h-64v-16h64zM80 -8v16h-32v-16h32zM256 -48c132.8 0 240 107.2 240 240s-107.2 240 -240 240s-240 -107.2 -240 -240s107.2 -240 240 -240zM496 376v16h-64v-16h64zM496 400v16h-32v-16h32z" />
  </font>
</defs>
</svg>
