<?xml version="1.0" standalone="no"?>
<!DOCTYPE svg PUBLIC "-//W3C//DTD SVG 1.1//EN" "http://www.w3.org/Graphics/SVG/1.1/DTD/svg11.dtd" >
<!--
2016-7-7: Created.
-->
<svg xmlns="http://www.w3.org/2000/svg">
<metadata>
Created by FontForge 20120731 at Thu Jul  7 08:58:58 2016
 By Apache
Created by Apache with FontForge 2.0 (http://fontforge.sf.net)
</metadata>
<defs>
<font id="Flaticon" horiz-adv-x="512" >
  <font-face 
    font-family="Flaticon"
    font-weight="500"
    font-stretch="normal"
    units-per-em="512"
    panose-1="2 0 6 3 0 0 0 0 0 0"
    ascent="448"
    descent="-64"
    bbox="0 -64 512 448"
    underline-thickness="25.6"
    underline-position="-51.2"
    unicode-range="U+0020-F11D"
  />
    <missing-glyph />
    <glyph glyph-name="space" unicode=" " horiz-adv-x="200" 
 />
    <glyph glyph-name="uniF10A" unicode="&#xf10a;" 
d="M471.799 448c6.72852 0 12.1816 -5.45312 12.1816 -12.1816v-67.1738c0 -6.72852 -5.4541 -12.1816 -12.1816 -12.1816h-22.4238l-60.6611 -410.064c-0.882812 -5.97363 -6.01074 -10.3984 -12.0498 -10.3984h-152.315l65.458 65.458
c4.75781 4.75684 4.75781 12.4697 0 17.2275c-4.75684 4.75684 -12.4707 4.75684 -17.2275 0l-82.6855 -82.6855h-49.5107l65.4551 65.4561c4.75781 4.75684 4.75781 12.4697 0 17.2275c-4.75781 4.75684 -12.4707 4.75684 -17.2275 0l-66.2207 -66.2207l-6.52832 44.127
l79.0107 79.0098c4.75781 4.75781 4.75781 12.4707 0 17.2285c-4.75586 4.75586 -12.4688 4.75684 -17.2275 0l-66.2236 -66.2227l-48.7959 329.857h-22.4238c-6.72852 0 -12.1816 5.4541 -12.1816 12.1816v67.1738c0 6.72852 5.4541 12.1816 12.1816 12.1816h431.598z
M229.869 132.091c4.98828 0 9.66699 3.08691 11.458 8.04883c0.00195312 0.00488281 0.00390625 0.0107422 0.00585938 0.015625c2.27344 6.3291 -1.00879 13.3037 -7.33691 15.583c-15.5996 5.61621 -28.582 17.291 -36.0166 31.9961l6.55176 1.2207
c5.61621 1.04688 7.16309 8.36035 2.45117 11.5908l-23.7422 16.2803c-3.19922 1.92969 -6.16992 1.37598 -8.91309 -1.66113l-16.2852 -23.7383c-3.18066 -4.63672 0.977539 -10.9531 6.46191 -9.92969l8.79004 1.63672
c9.54297 -23.4727 28.4326 -41.6709 52.4482 -50.3193c1.36426 -0.491211 2.75684 -0.723633 4.12695 -0.723633zM266.531 266.731l25.9727 12.4229c3.19336 1.52734 4.54492 5.35449 3.01758 8.54883l-12.415 25.9736c-1.1709 2.4502 -3.47559 3.64648 -5.77344 3.64648
c-2.5332 0 -5.05957 -1.45312 -6.05762 -4.27734l-2.74805 -7.78418c-25.2236 3.59766 -50.584 -3.64941 -70.1787 -20.207c-5.13867 -4.34277 -5.78418 -12.0293 -1.44141 -17.168c2.40918 -2.85156 5.84766 -4.31934 9.30957 -4.31934
c2.77734 0 5.56934 0.944336 7.85645 2.87793c12.7627 10.7861 29.5273 16.1992 46.1064 15.1748l-2.45996 -6.96973c-1.84863 -5.23535 4.3252 -10.0645 8.81152 -7.91895zM331.319 154.576l-5.57129 6.50977c16.1279 20.1484 22.7344 46.0322 18.1396 71.5732
c-1.19043 6.62207 -7.52539 11.0244 -14.1455 9.83301c-6.62109 -1.19141 -11.0234 -7.52441 -9.83203 -14.1455c3.0127 -16.7461 -0.858398 -34.3076 -10.4043 -48.2783l-4.65918 5.44531c-1.32715 1.55078 -3.08789 2.25098 -4.82324 2.25098
c-3.11914 0 -6.15625 -2.26465 -6.44043 -5.92383l-2.22754 -28.7012c-0.274414 -3.53027 2.36426 -6.61426 5.89453 -6.88965l28.7002 -2.23438c0.181641 -0.0136719 0.361328 -0.0214844 0.538086 -0.0214844c5.36621 0 8.42676 6.37988 4.83105 10.582z" />
    <glyph glyph-name="uniF110" unicode="&#xf110;" 
d="M504.676 316.892c4.44727 -1.93457 7.32422 -6.32129 7.32422 -11.1719v-225.457c0 -4.10645 -2.06836 -7.93555 -5.50195 -10.1875c-3.43457 -2.25195 -7.77051 -2.62305 -11.5371 -0.984375c-0.416992 0.180664 -44.457 18.8125 -112.098 18.8125
c-64.1738 0 -122.455 -19.0137 -123.036 -19.2061c-0.0566406 -0.0175781 -0.118164 -0.0380859 -0.174805 -0.0556641c-2.90625 -0.914062 -71.7451 -22.3662 -122.437 -22.3662c-25.2803 0 -46.7266 1.86816 -64.4971 4.54492l75.6709 75.6719
c4.75684 4.75684 4.75684 12.4697 0 17.2275c-4.75781 4.75684 -12.4707 4.75684 -17.2275 0l-87.248 -87.248c-13.7217 3.38867 -23.5977 6.94727 -29.7832 9.50586l75.7119 75.7119c4.75684 4.75684 4.75684 12.4707 0 17.2275
c-4.75781 4.75781 -12.4707 4.75781 -17.2285 0l-72.6143 -72.6152v40.207l86.374 86.3721c4.75781 4.75781 4.75781 12.4707 0 17.2285c-4.75684 4.75586 -12.4697 4.75684 -17.2275 0l-69.1465 -69.1465v144.757c0 4.30664 2.27344 8.29395 5.98145 10.4854
c3.70801 2.19238 8.29785 2.26367 12.0713 0.188477c0.328125 -0.175781 38.6729 -20.2969 119.164 -20.2969c46.2891 0 112.442 20.4072 115.057 21.2207c3.75195 1.23535 63.1104 20.4072 130.59 20.4072c73.0566 0 119.855 -19.9834 121.812 -20.833zM268.182 119.45
c21.9043 5.46289 38.1836 25.2949 38.1846 48.8662c0 27.7715 -22.5938 50.3652 -50.3652 50.3652c-6.34277 0 -11.502 5.16016 -11.502 11.502s5.15918 11.502 11.502 11.502s11.502 -5.16016 11.502 -11.502c0 -6.72852 5.45312 -12.1816 12.1816 -12.1816
s12.1816 5.4541 12.1816 12.1816c0 15.501 -9.88672 28.7334 -23.6836 33.7314v6.38477c0 6.72754 -5.45312 12.1816 -12.1816 12.1816s-12.1816 -5.4541 -12.1816 -12.1816v-6.38477c-13.7979 -4.99805 -23.6836 -18.2305 -23.6836 -33.7314
c0 -19.7754 16.0879 -35.8643 35.8643 -35.8643c14.3369 0 26.002 -11.665 26.002 -26.002s-11.665 -26.001 -26.002 -26.001s-26.002 11.6641 -26.002 26.001c0 6.72852 -5.45312 12.1816 -12.1816 12.1816s-12.1816 -5.4541 -12.1816 -12.1816
c0 -23.5713 16.2793 -43.4043 38.1836 -48.8672v-5.75c0 -6.72852 5.45312 -12.1816 12.1816 -12.1816s12.1816 5.4541 12.1816 12.1816v5.75z" />
    <glyph glyph-name="uniF10E" unicode="&#xf10e;" 
d="M499.818 98.127c6.72656 0 12.1816 -5.45312 12.1816 -12.1816c0 -31.5889 -25.7002 -57.2871 -57.2891 -57.2871h-397.422c-31.5889 0 -57.2891 25.6982 -57.2891 57.2871c0 6.72852 5.4541 12.1816 12.1816 12.1816h487.637zM101.702 246.638
c-4.75879 4.75781 -12.4707 4.75781 -17.2285 0l-54.1074 -54.1074v150.631c0 6.72754 5.4541 12.1816 12.1816 12.1816h426.905c6.72754 0 12.1816 -5.45508 12.1816 -12.1816v-231.37h-300.011l18.3662 18.3662c4.75684 4.75781 4.75684 12.4707 0 17.2275
c-4.75781 4.75781 -12.4697 4.75684 -17.2285 0l-35.5947 -35.5938h-63.6934l29.6689 29.6689c4.75684 4.75684 4.75684 12.4697 0 17.2275c-4.75781 4.75781 -12.4697 4.75781 -17.2285 0l-46.8945 -46.8955h-18.6523v46.2832l71.335 71.335
c4.75684 4.75781 4.75684 12.4707 0 17.2275z" />
    <glyph glyph-name="uniF10D" unicode="&#xf10d;" 
d="M256 448c93.1289 0 168.896 -75.7656 168.896 -168.895c0 -61.0664 -32.459 -116.6 -85.2031 -146.685v-52.3867c0 -13.2021 -5.24707 -25.1943 -13.7539 -34.0273c2.10156 -3.21191 3.33496 -7.04199 3.33496 -11.1602v-27.0166h-146.546v27.0146
c0 4.11719 1.2334 7.94629 3.33496 11.1592c-7.7666 8.06836 -12.8096 18.7773 -13.624 30.6338l66.4258 66.4248c4.75781 4.75781 4.75781 12.4707 0 17.2285c-4.75684 4.75684 -12.4697 4.75684 -17.2275 0l-49.3291 -49.3291v21.457
c-10.585 6.03809 -20.3359 13.1152 -29.1875 21.041l58.3506 58.3496c4.75684 4.75684 4.75684 12.4707 0 17.2275c-4.75781 4.75781 -12.4707 4.75781 -17.2285 0l-58.0605 -58.0605c-11.2363 13.4561 -20.2832 28.583 -26.8379 44.8477l63.1201 63.1191
c4.75781 4.75781 4.75781 12.4707 0 17.2285c-4.75684 4.75684 -12.4707 4.75684 -17.2275 0l-54.0557 -54.0557c-2.66797 11.9785 -4.07617 24.3613 -4.07617 36.9883c0 93.1299 75.7666 168.896 168.896 168.896zM182.727 -43.5469v27.0156h146.546v-27.0156
c0 -11.2783 -9.1748 -20.4531 -20.4531 -20.4531h-105.64c-11.2783 0 -20.4531 9.1748 -20.4531 20.4531z" />
    <glyph glyph-name="uniF115" unicode="&#xf115;" 
d="M437.265 373.267c45.4951 -45.4951 71.7627 -105.093 74.7334 -168.933h-243.666v243.666c63.8408 -2.9707 123.438 -29.2383 168.933 -74.7334zM256.144 179.955l255.856 0.000976562c-2.9707 -63.8398 -29.2383 -123.437 -74.7334 -168.933
c-48.3779 -48.3779 -112.702 -75.0225 -181.121 -75.0225c-20.0918 0 -39.8252 2.31543 -58.9111 6.78613l84.6035 84.6045c4.75977 4.75977 4.76074 12.4775 0 17.2373c-4.75977 4.75977 -12.4775 4.75977 -17.2373 0l-94.0391 -94.0391
c-31.6436 11.1855 -60.9365 28.6172 -86.3477 51.6797l88.1074 88.1074c4.75977 4.75977 4.75977 12.4766 0 17.2373c-4.75879 4.75879 -12.4766 4.75977 -17.2373 0l-88.1338 -88.1338c-23.1396 25.3018 -40.6865 54.4824 -51.9951 86.0312l93.9717 93.9717
c4.76074 4.75977 4.76074 12.4775 0 17.2373c-4.75977 4.75977 -12.4775 4.75977 -17.2373 0l-84.6309 -84.6328c-4.65039 19.4414 -7.05859 39.5635 -7.05859 60.0566c0 68.4199 26.6445 132.742 75.0225 181.122c45.4951 45.4951 105.093 71.7627 168.933 74.7334
v-255.855c0 -6.73145 5.45801 -12.1885 12.1885 -12.1885v-0.000976562z" />
    <glyph glyph-name="uniF10B" unicode="&#xf10b;" 
d="M511.885 398.552c-0.0322266 -0.235352 0.0214844 0.160156 0 0v0zM15.2744 145.156c-4.46387 0 -8.7627 2.46289 -10.8994 6.72559c-3.01465 6.01465 -0.583008 13.335 5.43164 16.3496l459.305 230.205l-23.1006 8.43945
c-6.31934 2.30957 -9.57031 9.30371 -7.26074 15.623c2.30859 6.31934 9.30078 9.57031 15.6221 7.26172l49.2021 -17.9756c5.53125 -1.7959 9.10156 -7.47852 8.31055 -13.2334c-0.117188 -0.860352 -0.327148 -1.72754 -0.625 -2.54492l-18.5771 -50.8496
c-1.80469 -4.94043 -6.47266 -8.00488 -11.4424 -8.00488c-1.38867 0 -2.7998 0.238281 -4.17871 0.742188c-6.31934 2.30957 -9.57129 9.30371 -7.26172 15.623l8.05469 22.0479l-457.131 -229.114c-1.75098 -0.878906 -3.61426 -1.29492 -5.44922 -1.29492z
M499.818 -22.1416c6.72656 0 12.1816 -5.45312 12.1816 -12.1816s-5.4541 -12.1816 -12.1816 -12.1816h-34.4277h-76.1406h-85.7197h-97.1162h-64.7441h-97.1162h-32.3721c-6.72852 0 -12.1816 5.45312 -12.1816 12.1816s5.4541 12.1816 12.1816 12.1816h38.915
l51.0146 51.0146c4.75684 4.75781 4.75684 12.4707 0 17.2275c-4.75781 4.75781 -12.4707 4.75781 -17.2275 0l-52.5117 -52.5107v92.0703c0 6.72852 5.4541 12.1816 12.1816 12.1816h97.1201c6.72852 0 12.1816 -5.45508 12.1816 -12.1816v-107.801h73.3271
l38.0352 38.0361c4.75781 4.75781 4.75781 12.4707 0 17.2275c-4.75684 4.75684 -12.4688 4.75781 -17.2275 0l-53.7549 -53.7539v60.6963l70.9814 70.9814c4.75781 4.75684 4.75781 12.4707 0 17.2275c-4.75684 4.75684 -12.4688 4.75684 -17.2275 0l-53.7549 -53.7549
v92.0703c0 6.72852 5.4541 12.1816 12.1816 12.1816h97.1162c6.72754 0 12.1816 -5.4541 12.1816 -12.1816v-188.733h40.3799v40.624l68.9053 68.9043c4.75586 4.75781 4.75586 12.4707 0 17.2285c-4.75879 4.75684 -12.4707 4.75684 -17.2285 0l-51.6768 -51.6768v66.2578
l68.9053 68.9043c4.75586 4.75781 4.75586 12.4707 0 17.2275c-4.75879 4.75781 -12.4707 4.75781 -17.2285 0l-51.6768 -51.6758v93.8691c0 6.72852 5.4541 12.1816 12.1816 12.1816h97.1152c6.72754 0 12.1816 -5.4541 12.1816 -12.1816v-269.661h22.2461z
M424.998 -10.7568c4.75586 4.75781 4.75586 12.4707 0.000976562 17.2275c-4.75879 4.75781 -12.4717 4.75684 -17.2275 0l-28.6113 -28.6113h34.4541z" />
    <glyph glyph-name="uniF108" unicode="&#xf108;" 
d="M499.818 388.285c6.72754 0 12.1816 -5.4541 12.1816 -12.1816v-51.6787v-316.527c0 -6.72754 -5.4541 -12.1816 -12.1816 -12.1816h-395.911l48.3242 48.3252c4.75781 4.75781 4.75781 12.4707 0 17.2285c-4.75781 4.75586 -12.4707 4.75586 -17.2275 0
l-65.5537 -65.5537h-52.2227l58.3057 58.3057c4.75781 4.75879 4.75781 12.4717 0 17.2285s-12.4707 4.75684 -17.2275 0l-58.3057 -58.3047v53.3203l65.4287 65.4277c4.75781 4.75879 4.75781 12.4717 0 17.2285c-4.75684 4.75684 -12.4697 4.75684 -17.2275 0
l-48.2012 -48.2012v223.704c0 6.72754 5.4541 12.1816 12.1816 12.1816h238.863l49.457 48.2188c2.27441 2.21875 5.32617 3.45996 8.50391 3.45996h190.812zM487.637 336.607v27.3145h-173.675l-28.0176 -27.3145h201.692z" />
    <glyph glyph-name="uniF102" unicode="&#xf102;" 
d="M499.818 347.949c6.72656 0 12.1816 -5.45312 12.1816 -12.1807v-340.397c0 -6.72852 -5.4541 -12.1816 -12.1816 -12.1816h-385.226l44.4346 44.4346c4.75586 4.75781 4.75586 12.4707 -0.000976562 17.2275c-4.75781 4.75781 -12.4697 4.75781 -17.2275 0
l-61.6621 -61.6611h-62.9082l59.8613 59.8613c4.75684 4.75781 4.75684 12.4707 0 17.2285c-4.75781 4.75684 -12.4697 4.75586 -17.2285 0l-59.8613 -59.8623v64.6055l61.4717 61.4697c4.75684 4.75684 4.75684 12.4697 0 17.2275
c-4.75879 4.75684 -12.4707 4.75684 -17.2285 0l-44.2432 -44.2432v236.29c0 6.72852 5.4541 12.1816 12.1816 12.1816h80.8652v32.2715c0 11.3535 9.2373 20.5898 20.5898 20.5898h24.0791c11.3525 0 20.5898 -9.23633 20.5898 -20.5898v-32.2715h65.0645v32.2715
c0 11.3535 9.2373 20.5898 20.5908 20.5898h24.0781c11.3535 0 20.5908 -9.23633 20.5908 -20.5898v-32.2715h65.0645v32.2715c0 11.3535 9.2373 20.5898 20.5898 20.5898h24.0791c11.3525 0 20.5898 -9.23633 20.5898 -20.5898v-32.2715h80.8652zM378.058 376.448v-73.9404
h16.5303v73.9404h-16.5303zM247.734 376.448v-73.9404h16.5312v73.9404h-16.5312zM117.411 376.448v-73.9404h16.5303v73.9404h-16.5303zM414.598 81.3623c6.72754 0 12.1816 5.45312 12.1816 12.1816s-5.4541 12.1816 -12.1816 12.1816h-317.196
c-6.72754 0 -12.1816 -5.45312 -12.1816 -12.1816s5.4541 -12.1816 12.1816 -12.1816h317.196zM414.598 142.851c6.72754 0 12.1816 5.45312 12.1816 12.1816s-5.4541 12.1816 -12.1816 12.1816h-317.196c-6.72754 0 -12.1816 -5.45312 -12.1816 -12.1816
s5.4541 -12.1816 12.1816 -12.1816h317.196zM414.598 208.681c6.72754 0 12.1816 5.45312 12.1816 12.1816s-5.4541 12.1816 -12.1816 12.1816h-317.196c-6.72754 0 -12.1816 -5.45312 -12.1816 -12.1816s5.4541 -12.1816 12.1816 -12.1816h317.196z" />
    <glyph glyph-name="uniF117" unicode="&#xf117;" 
d="M499.819 308.472c6.72656 0 12.1816 -5.4541 12.1807 -12.1816v-201.476c0 -6.72852 -5.4541 -12.1816 -12.1816 -12.1816h-43.8955v-17.1211c0 -6.72852 -5.4541 -12.1816 -12.1816 -12.1816s-12.1816 5.4541 -12.1816 12.1816v17.1211h-17.3828
c-22.0703 -14.5361 -47.6279 -22.1992 -74.1719 -22.1992c-26.543 0 -52.1006 7.66309 -74.1709 22.1992h-152.422l43.1748 43.1758c4.75781 4.75684 4.75781 12.4707 0.000976562 17.2275c-4.75781 4.75781 -12.4717 4.75684 -17.2275 0l-58.9199 -58.9189v-18.6045
c0 -6.72852 -5.4541 -12.1816 -12.1816 -12.1816s-12.1816 5.4541 -12.1816 12.1816v17.1211h-40.0283l58.6025 58.6025c4.75586 4.75781 4.75586 12.4707 0 17.2275c-4.75879 4.75781 -12.4707 4.75781 -17.2295 0l-57.4219 -57.4219v64.6055l59.0322 59.0322
c4.75781 4.75684 4.75781 12.4697 0.000976562 17.2275c-4.75781 4.75781 -12.4697 4.75684 -17.2285 0l-41.8047 -41.8047v96.1875c0 6.72852 5.4541 12.1816 12.1816 12.1816h253.652c22.0703 14.5361 47.6279 22.1992 74.1709 22.1992
c26.5439 0 52.1016 -7.66309 74.1719 -22.1992h85.6426zM211.301 178.495c6.72656 0 12.1816 5.45312 12.1816 12.1816s-5.45508 12.1816 -12.1816 12.1816h-101.755c-6.72754 0 -12.1816 -5.45312 -12.1816 -12.1816s5.4541 -12.1816 12.1816 -12.1816h101.755z
M211.301 230.102c6.72656 0 12.1816 5.45312 12.1816 12.1816s-5.45508 12.1816 -12.1816 12.1816h-101.755c-6.72754 0 -12.1816 -5.45312 -12.1816 -12.1816s5.4541 -12.1816 12.1816 -12.1816h101.755zM339.711 106.975c48.8428 0 88.5791 39.7354 88.5791 88.5781
s-39.7363 88.5781 -88.5791 88.5781c-48.8418 0 -88.5781 -39.7363 -88.5781 -88.5781s39.7363 -88.5781 88.5781 -88.5781z" />
    <glyph glyph-name="uniF103" unicode="&#xf103;" 
d="M256 377.509c102.29 0 185.51 -83.2197 185.51 -185.51s-83.2188 -185.509 -185.509 -185.509c-8.78711 0 -17.4287 0.628906 -25.8936 1.81543l49.6162 49.6162c4.75684 4.75684 4.75781 12.4707 0 17.2275c-4.75781 4.75781 -12.4707 4.75781 -17.2275 0
l-60.6025 -60.6025c-25.2168 7.7041 -48.1689 20.6416 -67.582 37.5488l56.793 56.792c4.75684 4.75781 4.75684 12.4707 0 17.2285c-4.75781 4.75684 -12.4707 4.75684 -17.2275 0l-56.8516 -56.8516c-17.0186 19.2471 -30.1143 42.0381 -38.0127 67.1162l60.7959 60.7949
c4.75684 4.75684 4.75684 12.4697 0 17.2275c-4.75781 4.75684 -12.4707 4.75684 -17.2285 0l-50.0293 -50.0303c-1.35254 9.01562 -2.05957 18.2402 -2.05957 27.627c0 102.29 83.2188 185.509 185.509 185.509zM326.886 121.114
c4.70996 4.70898 4.70996 12.5186 -0.000976562 17.2275l-58.7041 58.7041v143.223c0 6.72852 -5.45312 12.1816 -12.1816 12.1816s-12.1816 -5.4541 -12.1816 -12.1816v-148.263c-0.000976562 -3.19824 1.30762 -6.35938 3.56934 -8.62012l62.2715 -62.2715
c5.74316 -4.75781 11.4854 -4.75781 17.2275 0zM437.02 373.02c48.3516 -48.3516 74.9805 -112.64 74.9805 -181.02s-26.6289 -132.667 -74.9805 -181.02c-48.3516 -48.3516 -112.64 -74.9805 -181.02 -74.9805s-132.667 26.6289 -181.02 74.9805
c-48.3516 48.3516 -74.9805 112.64 -74.9805 181.02s26.6289 132.668 74.9805 181.02s112.64 74.9805 181.02 74.9805s132.668 -26.6289 181.02 -74.9805zM256 -17.8721c115.724 0 209.872 94.1484 209.872 209.872s-94.1484 209.872 -209.872 209.872
s-209.872 -94.1484 -209.872 -209.872s94.1484 -209.872 209.872 -209.872z" />
    <glyph glyph-name="uniF11A" unicode="&#xf11a;" 
d="M458.773 -39.6367c6.72754 0 12.1816 -5.45312 12.1816 -12.1816s-5.4541 -12.1816 -12.1816 -12.1816h-405.137c-6.72852 0 -12.1816 5.45312 -12.1816 12.1816s5.4541 12.1816 12.1816 12.1816h405.137zM446.742 119.569c13.3506 0 24.2129 -10.8623 24.2139 -24.2129
v-106.13c0 -6.72852 -5.4541 -12.1816 -12.1816 -12.1816h-333.007l54.8623 54.8623c4.75781 4.75684 4.75781 12.4707 0 17.2275c-4.75684 4.75684 -12.4697 4.75781 -17.2275 0l-72.0898 -72.0889h-32.6299l54.8623 54.8623c4.75781 4.75781 4.75781 12.4707 0 17.2275
c-4.75586 4.75684 -12.4697 4.75781 -17.2275 0l-55.2734 -55.2734v101.493c0 13.3516 10.8623 24.2119 24.2129 24.2119h153.421v154.007c-13.7236 6.8877 -25.4902 17.0801 -34.3486 29.8271c-10.7412 15.4541 -16.4189 33.6035 -16.4189 52.4844
c0 50.792 41.3223 92.1143 92.1143 92.1143s92.1143 -41.3223 92.1143 -92.1133c0 -18.8809 -5.67773 -37.0293 -16.4199 -52.4844c-8.8584 -12.7471 -20.625 -22.9395 -34.3477 -29.8271v-154.006h145.371z" />
    <glyph glyph-name="uniF10C" unicode="&#xf10c;" 
d="M390.38 193.565c21.7754 -2.09375 38.8613 -20.4873 38.8623 -42.8018v-34.2617h-145.599v34.2617c0 22.3145 17.0859 40.709 38.8613 42.8018c9.3623 -7.3457 21.1416 -11.7422 33.9365 -11.7422c12.7959 0 24.5762 4.39648 33.9385 11.7422zM356.441 206.187
c-16.9463 0 -30.7314 13.7861 -30.7314 30.7324c0 16.9453 13.7861 30.7314 30.7314 30.7314c16.9463 0 30.7334 -13.7861 30.7334 -30.7314c0 -16.9463 -13.7871 -30.7324 -30.7334 -30.7324zM499.818 351.085c6.72656 0 12.1816 -5.45508 12.1816 -12.1816v-293.807
c0 -6.72754 -5.4541 -12.1816 -12.1816 -12.1816h-397.313l63.9102 63.9102c4.75781 4.75781 4.75781 12.4707 0 17.2285c-4.75684 4.75586 -12.4697 4.75586 -17.2275 0l-81.1377 -81.1387h-53.2744l76.8193 76.8193c4.75781 4.75879 4.75781 12.4717 0 17.2285
c-4.75684 4.75684 -12.4697 4.75684 -17.2275 0l-74.3672 -74.3672v54.6934l78.5254 78.5244c4.75684 4.75879 4.75684 12.4717 0 17.2295c-4.75781 4.75586 -12.4707 4.75586 -17.2285 0l-61.2969 -61.2979v197.158c0 6.72754 5.4541 12.1816 12.1816 12.1816h487.637z
M231.81 249.058c6.72754 0 12.1807 5.4541 12.1807 12.1816s-5.45508 12.1816 -12.1816 12.1816h-156.143c-6.72852 0 -12.1816 -5.4541 -12.1816 -12.1816s5.4541 -12.1816 12.1816 -12.1816h156.144zM453.605 104.319v46.4434
c0 29.9326 -19.6279 55.3564 -46.6855 64.1074c2.96289 6.75684 4.61914 14.2119 4.61914 22.0498c0 30.3799 -24.7158 55.0957 -55.0967 55.0957c-30.3799 0 -55.0967 -24.7158 -55.0967 -55.0957c0 -7.83789 1.65625 -15.293 4.61914 -22.0498
c-27.0576 -8.75098 -46.6855 -34.1748 -46.6855 -64.1074v-46.4434c0 -6.72754 5.4541 -12.1816 12.1816 -12.1816h169.963c6.72754 0 12.1816 5.4541 12.1816 12.1816v0z" />
    <glyph glyph-name="uniF118" unicode="&#xf118;" 
d="M384.869 220.263c44.1631 -19.4072 69.2939 -47.9854 69.293 -79.2041c0 -6.72852 -5.45508 -12.1816 -12.1816 -12.1816h-173.799v-180.695c0 -6.72852 -5.4541 -12.1816 -12.1816 -12.1816s-12.1816 5.4541 -12.1816 12.1816v180.695h-100.063l103.976 103.976
c4.75684 4.75684 4.75684 12.4697 0 17.2275c-4.75781 4.75684 -12.4707 4.75684 -17.2285 0l-121.204 -121.204h-39.2783c-6.72754 0 -12.1816 5.4541 -12.1816 12.1816c0 31.2188 25.1309 59.7969 69.2939 79.2041v19.0215l100.571 100.57
c4.75684 4.75684 4.75684 12.4697 0 17.2275c-4.75781 4.75684 -12.4697 4.75586 -17.2285 0l-83.3428 -83.3428v88.0068c-23.5459 0.276367 -42.6162 19.5156 -42.6162 43.126c0 23.7812 19.3486 43.1289 43.1299 43.1289h256.71
c23.7812 0 43.1299 -19.3477 43.1299 -43.1289c0 -23.6104 -19.0713 -42.8506 -42.6162 -43.126v-141.482z" />
    <glyph glyph-name="uniF111" unicode="&#xf111;" 
d="M499.818 448c6.72754 0 12.1816 -5.45312 12.1816 -12.1816v-487.637c0 -6.72852 -5.4541 -12.1816 -12.1816 -12.1816h-361.372l80.7666 80.7656c4.75684 4.75781 4.75684 12.4707 0 17.2275c-4.75781 4.75781 -12.4707 4.75781 -17.2285 0l-97.9932 -97.9932h-86.7637
l99.9727 99.9717c4.75781 4.75781 4.75781 12.4707 0 17.2275c-4.75684 4.75781 -12.4697 4.75781 -17.2275 0l-99.9727 -99.9727v88.876l97.7559 97.7539c4.75781 4.75781 4.75781 12.4707 0 17.2275c-4.75586 4.75684 -12.4697 4.75781 -17.2275 0l-80.5283 -80.5273
v359.262c0 6.72852 5.45312 12.1816 12.1816 12.1816h487.637zM251.566 435.818c-19.5859 0 -35.4639 -15.8779 -35.4639 -35.4639s15.877 -35.4648 35.4639 -35.4648c19.5859 0 35.4639 15.8779 35.4639 35.4648c0 19.5859 -15.877 35.4639 -35.4639 35.4639z
M410.758 202.381c6.72754 0 12.1816 5.45312 12.1816 12.1816s-5.4541 12.1816 -12.1816 12.1816h-309.516c-6.72852 0 -12.1816 -5.45312 -12.1816 -12.1816s5.4541 -12.1816 12.1816 -12.1816h309.516zM410.758 279.261c6.72754 0 12.1816 5.45312 12.1816 12.1816
s-5.4541 12.1816 -12.1816 12.1816h-309.516c-6.72852 0 -12.1816 -5.45312 -12.1816 -12.1816s5.4541 -12.1816 12.1816 -12.1816h309.516z" />
    <glyph glyph-name="uniF11C" unicode="&#xf11c;" 
d="M394.737 44.584c0.623047 -3.83984 -0.625977 -7.74609 -3.35938 -10.5137l-93.3535 -94.4521c-2.28906 -2.31445 -5.40918 -3.61816 -8.66504 -3.61816c-3.25488 0 -6.375 1.30371 -8.66406 3.61816l-22.6875 22.9541l70.5332 70.5332
c4.75781 4.75684 4.75781 12.4697 0 17.2275c-4.75586 4.75586 -12.4688 4.75684 -17.2275 0l-70.4326 -70.4316l-13.4453 13.6025l70.3525 70.3535c4.75781 4.75684 4.75781 12.4697 0 17.2275c-4.75684 4.75684 -12.4697 4.75684 -17.2275 0l-70.252 -70.2529
l-13.0811 13.2354l70.1748 70.1758c4.75781 4.75684 4.75781 12.4707 0 17.2275c-4.75684 4.75781 -12.4697 4.75781 -17.2275 0l-66.0625 -66.0625l34.4189 212.252l-35.9814 -49.9092l-65.4434 -0.382812l0.382812 65.4434l117.202 84.4951l1.84863 11.3994v67.1123
c0 6.72852 5.4541 12.1816 12.1816 12.1816h81.2734c6.72852 0 12.1816 -5.4541 12.1816 -12.1816v-67.1123z" />
    <glyph glyph-name="uniF105" unicode="&#xf105;" 
d="M421.641 418.588c6.72754 0 12.1816 -5.4541 12.1826 -12.1816v-458.225c0 -6.72852 -5.4541 -12.1816 -12.1816 -12.1816h-232.287l63.5361 63.5361c4.75586 4.75684 4.75586 12.4697 0 17.2275c-4.75879 4.75684 -12.4707 4.75586 -17.2285 0l-80.6768 -80.6758
c-0.0283203 -0.0273438 -0.0507812 -0.0585938 -0.0791016 -0.0869141h-59.5254l78.4268 78.4238c4.75586 4.75684 4.75586 12.4697 0 17.2275c-4.75879 4.75684 -12.4707 4.75684 -17.2295 0l-78.4004 -78.4004v61.1602
c0.0205078 0.0205078 0.0429688 0.0371094 0.0634766 0.0576172l80.4912 80.4912c4.75586 4.75684 4.75586 12.4697 0 17.2275c-4.75879 4.75684 -12.4707 4.75684 -17.2295 0l-63.3262 -63.3262v357.543c0 6.72852 5.4541 12.1816 12.1816 12.1816h97.7295v17.2314
c0 6.72852 5.4541 12.1816 12.1816 12.1816h109.912c6.72656 0 12.1807 -5.4541 12.1807 -12.1816v-17.2305h99.2783zM212.452 423.637v-17.1914l0.00195312 -0.0390625v-16.7422h85.5225l0.0234375 16.7588v17.2139h-85.5479zM375.973 186.785
c6.72754 0 12.1816 5.45312 12.1816 12.1816s-5.4541 12.1816 -12.1816 12.1816h-239.946c-6.72754 0 -12.1816 -5.45312 -12.1816 -12.1816s5.4541 -12.1816 12.1816 -12.1816h239.946zM375.973 246.386c6.72754 0 12.1816 5.45312 12.1816 12.1816
s-5.4541 12.1816 -12.1816 12.1816h-239.946c-6.72754 0 -12.1816 -5.45312 -12.1816 -12.1816s5.4541 -12.1816 12.1816 -12.1816h239.946zM375.973 305.985c6.72754 0 12.1816 5.45312 12.1816 12.1816s-5.4541 12.1816 -12.1816 12.1816h-239.946
c-6.72754 0 -12.1816 -5.45312 -12.1816 -12.1816s5.4541 -12.1816 12.1816 -12.1816h239.946z" />
    <glyph glyph-name="uniF116" unicode="&#xf116;" 
d="M499.819 436.221c6.72656 0 12.1816 -5.45312 12.1807 -12.1816v-60.71c0 -6.72852 -5.4541 -12.1816 -12.1816 -12.1816h-23.0693v-289.41c0 -6.72852 -5.4541 -12.1816 -12.1816 -12.1816h-196.382v-16.0625l129.837 -57.499
c6.15137 -2.72461 8.92969 -9.91895 6.20508 -16.0713c-2.57422 -5.8125 -10.3096 -8.75684 -16.0703 -6.20508l-119.972 53.1309v-46.8887c0 -6.72852 -5.4541 -12.1816 -12.1816 -12.1816c-6.72852 0 -12.1816 5.4541 -12.1816 12.1816v46.8887l-119.974 -53.1309
c-5.76074 -2.55176 -13.4961 0.392578 -16.0703 6.20508c-2.72559 6.15137 0.0537109 13.3467 6.20508 16.0713l129.838 57.499v16.0625h-93.9766l41.9961 41.9961c4.75684 4.75684 4.75684 12.4697 0 17.2275c-4.75781 4.75684 -12.4707 4.75684 -17.2275 0
l-59.2246 -59.2236h-62.9092l57.4229 57.4229c4.75781 4.75781 4.75781 12.4707 0 17.2275c-4.75684 4.75781 -12.4697 4.75781 -17.2275 0l-57.4229 -57.4229v64.6055l59.0322 59.0332c4.75684 4.75684 4.75684 12.4697 0 17.2275
c-4.75781 4.75684 -12.4707 4.75684 -17.2275 0l-41.8057 -41.8057v185.304h-23.0693c-6.72852 0 -12.1816 5.4541 -12.1816 12.1816v60.71c0 6.72852 5.45312 12.1816 12.1816 12.1816h487.638zM380.304 181.021c6.72754 0 12.1816 5.4541 12.1816 12.1826
c0 6.72754 -5.4541 12.1816 -12.1816 12.1816h-248.607c-6.72852 0 -12.1816 -5.4541 -12.1816 -12.1816c0 -6.72852 5.4541 -12.1826 12.1816 -12.1826h248.607zM380.304 235.316c6.72754 0 12.1816 5.45312 12.1816 12.1816s-5.4541 12.1816 -12.1816 12.1816h-248.607
c-6.72852 0 -12.1816 -5.45312 -12.1816 -12.1816s5.4541 -12.1816 12.1816 -12.1816h248.607zM380.304 289.233c6.72754 0 12.1816 5.45312 12.1816 12.1816s-5.4541 12.1816 -12.1816 12.1816h-248.607c-6.72852 0 -12.1816 -5.45312 -12.1816 -12.1816
s5.4541 -12.1816 12.1816 -12.1816h248.607z" />
    <glyph glyph-name="uniF107" unicode="&#xf107;" 
d="M496.909 350.238l-240.882 -168.941l-239.008 168.941h479.89zM262.995 156.428l249.005 174.636v-285.121c0 -6.72754 -5.4541 -12.1816 -12.1816 -12.1816h-387.973l67.3975 67.3984c4.75684 4.75781 4.75684 12.4717 0 17.2285
c-4.75781 4.75684 -12.4697 4.75684 -17.2285 0l-84.626 -84.626h-59.5156l82.2871 82.2871c4.75684 4.75781 4.75684 12.4717 0 17.2285c-4.75879 4.75684 -12.4707 4.75684 -17.2285 0l-82.9316 -82.9316v61.1533l85.0859 85.0859
c4.75684 4.75879 4.75684 12.4717 0 17.2285c-4.75781 4.75684 -12.4707 4.75781 -17.2285 -0.000976562l-67.8574 -67.8574v186.479l248.969 -175.979c2.10645 -1.49023 4.56836 -2.23535 7.03125 -2.23535c2.44824 0 4.89551 0.736328 6.99512 2.20898z" />
    <glyph glyph-name="uniF109" unicode="&#xf109;" 
d="M232.05 448c6.56152 0 11.8818 -5.32031 11.9561 -11.8809v-488.238c-0.0742188 -6.56055 -5.39258 -11.8809 -11.9551 -11.8809h-106.575l51.084 51.084c4.75684 4.75684 4.75684 12.4697 0 17.2275c-4.75879 4.75684 -12.4707 4.75684 -17.2285 0l-68.3115 -68.3115
h-49.9863l67.54 67.5371c4.75586 4.75781 4.75586 12.4707 0 17.2285c-4.75879 4.75684 -12.4707 4.75586 -17.2285 0l-68.0498 -68.0498v52.749l68.6201 68.6201c4.75586 4.75684 4.75586 12.4697 0 17.2275c-4.75879 4.75781 -12.4707 4.75781 -17.2295 0
l-51.3916 -51.3926v395.898c0 6.72754 5.4541 12.1816 12.1816 12.1816h196.574zM201.836 164.608v218.226c0 6.72852 -5.4541 12.1816 -12.1816 12.1816h-114.011c-6.72754 0 -12.1816 -5.4541 -12.1816 -12.1816h0.000976562v-218.226
c0 -6.72754 5.4541 -12.1816 12.1816 -12.1816h114.01c6.72754 0 12.1816 5.45508 12.1816 12.1816zM379.36 76.4561c9.74219 0 17.668 -7.92676 17.6689 -17.6699c0 -9.74316 -7.92578 -17.6699 -17.6689 -17.6699s-17.6689 7.92676 -17.6689 17.6699
s7.92578 17.6699 17.6689 17.6699zM87.8271 176.791v193.862h89.6465v-193.862h-89.6465zM334.452 176.791v193.862h89.6465v-193.862h-89.6465zM476.45 448c6.72754 0 12.1816 -5.4541 12.2559 -12.1816v-487.636c-0.0742188 -6.72754 -5.52832 -12.1816 -12.2559 -12.1816
h-196.272c-6.56152 0 -11.8809 5.31934 -11.8076 11.8809v488.237c-0.0732422 6.56055 5.24609 11.8809 11.8076 11.8809h196.272zM379.36 16.7539c23.1768 0 42.0332 18.8564 42.0332 42.0332c0 23.1758 -18.8564 42.0322 -42.0332 42.0322
c-23.1758 0 -42.0332 -18.8555 -42.0332 -42.0322c0 -23.1777 18.8574 -42.0332 42.0332 -42.0332zM448.463 164.609v218.225c0 6.72852 -5.4541 12.1816 -12.1816 12.1816h-114.011c-6.72754 0 -12.1816 -5.4541 -12.1816 -12.1816v-218.225
c0 -6.72754 5.4541 -12.1816 12.1816 -12.1816h114.011c6.72754 0 12.1816 5.45508 12.1816 12.1816z" />
    <glyph glyph-name="uniF100" unicode="&#xf100;" 
d="M224.836 177.716h-54.0215l-152.804 147.573h158.437v40.7529c0 6.72852 5.4541 12.1816 12.1816 12.1816h134.743c6.72754 0 12.1816 -5.4541 12.1816 -12.1816v-40.752h158.436l-152.805 -147.574h-54.0215v14.2861c0 6.72852 -5.4541 12.1816 -12.1816 12.1816
h-37.9639c-6.72754 0 -12.1816 -5.4541 -12.1816 -12.1816v-14.2861zM200.811 353.86v-28.5713h110.379v28.5713h-110.379zM249.2 151.248v14.2266l0.00292969 0.0585938l-0.00292969 0.0585938v14.2275h13.5996v-28.5713h-13.5996zM354.569 156.771l157.431 152.042
v-290.854c0 -6.72852 -5.4541 -12.1816 -12.1816 -12.1816h-404.661l56.1758 56.1758c4.75684 4.75781 4.75684 12.4707 0 17.2275c-4.75781 4.75781 -12.4707 4.75781 -17.2285 0l-73.4023 -73.4023h-45.293l68.8105 68.8115c4.75684 4.75781 4.75684 12.4707 0 17.2275
c-4.75879 4.75781 -12.4707 4.75781 -17.2285 0l-66.9912 -66.9912v46.6816l71.4287 71.4268c4.75586 4.75781 4.75586 12.4707 0 17.2275c-4.75879 4.75781 -12.4707 4.75684 -17.2285 0l-54.2002 -54.1982v202.85l157.432 -152.042
c2.27148 -2.19238 5.30469 -3.41895 8.46191 -3.41895h58.9434v-14.2861c0 -6.72852 5.4541 -12.1816 12.1816 -12.1816h37.9639c6.72754 0 12.1816 5.4541 12.1816 12.1816v14.2861h58.9434c3.15723 0 6.18945 1.22559 8.46191 3.41895z" />
    <glyph glyph-name="uniF112" unicode="&#xf112;" 
d="M438.482 226.674c6.72852 0 12.1816 -5.4541 12.1816 -12.1816v-266.311c0 -6.72852 -5.4541 -12.1816 -12.1816 -12.1816h-250.116l75.8848 75.8848c4.75684 4.75781 4.75684 12.4707 0 17.2275c-4.75781 4.75684 -12.4707 4.75684 -17.2275 0l-93.1133 -93.1113
h-76.8057l93.5146 93.5117c4.75684 4.75781 4.75684 12.4707 0 17.2275c-4.75781 4.75684 -12.4707 4.75781 -17.2275 0l-92.0547 -92.0537v78.7441l91.4346 91.4346c4.75781 4.75781 4.75781 12.4707 0 17.2275c-4.75684 4.75781 -12.4707 4.75781 -17.2275 0
l-74.207 -74.2061v146.604c0 6.72852 5.4541 12.1816 12.1816 12.1816h34.332v73.1787c0 81.6885 66.4609 148.148 148.149 148.148c81.6895 0 148.148 -66.46 148.149 -148.147c0 -6.72852 -5.45312 -12.1816 -12.1816 -12.1816s-12.1816 5.4541 -12.1816 12.1816
c0 68.2549 -55.5303 123.785 -123.786 123.785c-68.2549 0 -123.785 -55.5303 -123.785 -123.785v-73.1787h306.268zM267.818 103.021c5.3418 1.29102 9.31543 6.09082 9.31543 11.8291c0 5.7373 -3.97363 10.5361 -9.31543 11.8271v24.1621
c0 6.72852 -5.45312 12.1816 -12.1816 12.1816s-12.1816 -5.4541 -12.1816 -12.1816v-24.1611c-5.3418 -1.29102 -9.31543 -6.08984 -9.31543 -11.8281c0 -5.73926 3.97363 -10.5391 9.31543 -11.8291v-26.5078c0 -6.72852 5.45312 -12.1816 12.1816 -12.1816
s12.1816 5.4541 12.1816 12.1816v26.5078z" />
    <glyph glyph-name="uniF11D" unicode="&#xf11d;" 
d="M256.001 216.276c-63.8867 0 -115.864 51.9746 -115.864 115.861c0 63.8877 51.9775 115.862 115.864 115.862s115.863 -51.9746 115.863 -115.862c0 -63.8867 -51.9766 -115.861 -115.863 -115.861zM327.979 205.904c80.2373 0 145.516 -65.2773 145.515 -145.516
v-112.207c0 -6.72852 -5.4541 -12.1816 -12.1816 -12.1816h-320.373l47.5645 47.5635c4.75586 4.75781 4.75586 12.4707 0 17.2275c-4.75879 4.75781 -12.4707 4.75684 -17.2285 0l-64.792 -64.791h-50.748l57.375 57.373c4.75684 4.75781 4.75684 12.4707 0 17.2275
c-4.75781 4.75781 -12.4697 4.75684 -17.2285 0l-57.375 -57.374v51.8271l64.6699 64.6699c4.75684 4.75684 4.75684 12.4697 0 17.2275c-4.75781 4.75781 -12.4697 4.75781 -17.2285 0l-47.4414 -47.4414v20.8789c0 80.2383 65.2783 145.516 145.516 145.516
c4.32129 0 8.32129 -2.29102 10.5078 -6.02051l61.4707 -104.847l61.4707 104.847c2.18555 3.72949 6.18457 6.02051 10.5078 6.02051z" />
    <glyph glyph-name="uniF104" unicode="&#xf104;" 
d="M437.019 373.02c48.3516 -48.3525 74.9814 -112.64 74.9814 -181.021c0 -68.3799 -26.6279 -132.667 -74.9805 -181.019s-112.64 -74.9805 -181.019 -74.9805c-29.1064 0 -57.4629 4.8418 -84.1719 14.1113l58.2939 58.2949c4.75684 4.75684 4.75684 12.4697 0 17.2275
c-4.75781 4.75684 -12.4697 4.75684 -17.2285 0l-65.5645 -65.5645c-22.7695 10.6865 -44.0068 24.792 -63.0615 42.0674l62.1123 62.1113c4.75684 4.75684 4.75684 12.4707 0 17.2275c-4.75781 4.75781 -12.4707 4.75684 -17.2285 0l-62.1455 -62.1455
c-17.3535 18.9541 -31.5645 40.0879 -42.3584 62.7695l70.4365 70.4355c4.75586 4.75684 4.75586 12.4707 0 17.2275c-4.75879 4.75781 -12.4707 4.75781 -17.2285 0l-63.2812 -63.2812c-9.57812 27.1006 -14.5752 55.9238 -14.5752 85.5186
c0 68.3799 26.6289 132.667 74.9805 181.02c48.3525 48.3516 112.64 74.9805 181.02 74.9805c68.3789 0 132.666 -26.6289 181.019 -74.9805zM268.181 73.8545c37.3389 5.86914 65.9893 38.2568 65.9883 77.2168c0 43.1035 -35.0674 78.1709 -78.1709 78.1709
c-15.8516 0 -28.7471 12.8955 -28.7471 28.748c0 15.3604 12.1084 27.9453 27.2812 28.7109c0.481445 -0.0566406 0.96875 -0.0957031 1.46582 -0.0957031c0.498047 0 0.985352 0.0380859 1.46582 0.0957031c15.1738 -0.765625 27.2822 -13.3516 27.2822 -28.7109
c0 -6.72852 5.4541 -12.1816 12.1816 -12.1816s12.1816 5.4541 12.1816 12.1816c0 25.0928 -17.4971 46.1621 -40.9297 51.6846v17.5117c0 6.72852 -5.4541 12.1816 -12.1816 12.1816c-6.72656 0 -12.1816 -5.4541 -12.1816 -12.1816v-17.5127
c-23.4307 -5.52246 -40.9287 -26.5918 -40.9287 -51.6846c0 -29.2852 23.8262 -53.1113 53.1113 -53.1113c29.6699 0 53.8076 -24.1377 53.8076 -53.8076c0 -29.6689 -24.1377 -53.8066 -53.8076 -53.8066c-29.6689 0 -53.8066 24.1377 -53.8066 53.8066
c0 6.72852 -5.4541 12.1816 -12.1816 12.1816c-6.72656 0 -12.1807 -5.4541 -12.1807 -12.1816c0 -38.959 28.6504 -71.3477 65.9883 -77.2158v-17.1729c0 -6.72852 5.4541 -12.1816 12.1807 -12.1816c6.72754 0 12.1816 5.4541 12.1816 12.1816v17.1729z" />
    <glyph glyph-name="uniF101" unicode="&#xf101;" 
d="M499.818 10.9561c6.72656 0 12.1816 -5.45312 12.1816 -12.1816s-5.4541 -12.1816 -12.1816 -12.1816h-487.637c-6.72852 0 -12.1816 5.45312 -12.1816 12.1816s5.4541 12.1816 12.1816 12.1816h24.3916v58.9062l59.0322 59.0332
c4.75684 4.75684 4.75684 12.4697 0 17.2275c-4.75781 4.75684 -12.4707 4.75684 -17.2275 0l-41.8047 -41.8047v149.246c0 6.72852 5.4541 12.1816 12.1816 12.1816h188.553c6.72852 0 12.1816 -5.4541 12.1816 -12.1816v-242.608h12.5645v374.27
c0 6.72852 5.4541 12.1816 12.1816 12.1816h188.554c6.72754 0 12.1816 -5.4541 12.1816 -12.1816v-374.27h24.8477zM111.224 45.4541c4.75781 4.75781 4.75781 12.4707 0 17.2275c-4.75684 4.75781 -12.4697 4.75781 -17.2275 0l-51.7256 -51.7246h34.4561z
M121.088 195.464c6.72852 0 12.1816 5.45312 12.1816 12.1816s-5.4541 12.1816 -12.1816 12.1816h-28.4463c-6.72852 0 -12.1816 -5.45312 -12.1816 -12.1816s5.4541 -12.1816 12.1816 -12.1816h28.4463zM193.161 30.0264c4.75684 4.75781 4.75684 12.4707 0 17.2275
c-4.75781 4.75781 -12.4707 4.75781 -17.2285 0l-36.2979 -36.2979h34.4551zM195.046 75.1797c6.72852 0 12.1816 5.45312 12.1816 12.1816s-5.4541 12.1816 -12.1816 12.1816h-28.4463c-6.72754 0 -12.1816 -5.45312 -12.1816 -12.1816s5.4541 -12.1816 12.1816 -12.1816
h28.4463zM195.046 135.323c6.72852 0 12.1816 5.45312 12.1816 12.1816c0 6.72754 -5.4541 12.1816 -12.1816 12.1816h-28.4463c-6.72754 0 -12.1816 -5.4541 -12.1816 -12.1816c0 -6.72852 5.4541 -12.1816 12.1816 -12.1816h28.4463zM195.046 195.464
c6.72852 0 12.1816 5.45312 12.1816 12.1816s-5.4541 12.1816 -12.1816 12.1816h-28.4463c-6.72754 0 -12.1816 -5.45312 -12.1816 -12.1816s5.4541 -12.1816 12.1816 -12.1816h28.4463zM345.755 75.1797c6.72754 0 12.1816 5.45312 12.1816 12.1816
s-5.4541 12.1816 -12.1816 12.1816h-28.4443c-6.72754 0 -12.1816 -5.45312 -12.1816 -12.1816s5.4541 -12.1816 12.1816 -12.1816h28.4443zM345.755 135.323c6.72754 0 12.1816 5.45312 12.1816 12.1816c0 6.72754 -5.4541 12.1816 -12.1816 12.1816h-28.4443
c-6.72754 0 -12.1816 -5.4541 -12.1816 -12.1816c0 -6.72852 5.4541 -12.1816 12.1816 -12.1816h28.4443zM345.755 195.464c6.72754 0 12.1816 5.45312 12.1816 12.1816s-5.4541 12.1816 -12.1816 12.1816h-28.4443c-6.72754 0 -12.1816 -5.45312 -12.1816 -12.1816
s5.4541 -12.1816 12.1816 -12.1816h28.4443zM345.755 255.606c6.72754 0 12.1816 5.45312 12.1816 12.1816s-5.4541 12.1816 -12.1816 12.1816h-28.4443c-6.72754 0 -12.1816 -5.45312 -12.1816 -12.1816s5.4541 -12.1816 12.1816 -12.1816h28.4443zM345.755 315.747
c6.72754 0 12.1816 5.45312 12.1816 12.1816s-5.4541 12.1816 -12.1816 12.1816h-28.4443c-6.72754 0 -12.1816 -5.45312 -12.1816 -12.1816s5.4541 -12.1816 12.1816 -12.1816h28.4443zM419.714 75.1797c6.72754 0 12.1816 5.45312 12.1816 12.1816
s-5.4541 12.1816 -12.1816 12.1816h-28.4453c-6.72754 0 -12.1816 -5.45312 -12.1816 -12.1816s5.4541 -12.1816 12.1816 -12.1816h28.4453zM419.714 135.323c6.72754 0 12.1816 5.45312 12.1816 12.1816c0 6.72754 -5.4541 12.1816 -12.1816 12.1816h-28.4453
c-6.72754 0 -12.1816 -5.4541 -12.1816 -12.1816c0 -6.72852 5.4541 -12.1816 12.1816 -12.1816h28.4453zM419.714 195.464c6.72754 0 12.1816 5.45312 12.1816 12.1816s-5.4541 12.1816 -12.1816 12.1816h-28.4453c-6.72754 0 -12.1816 -5.45312 -12.1816 -12.1816
s5.4541 -12.1816 12.1816 -12.1816h28.4453zM419.714 255.606c6.72754 0 12.1816 5.45312 12.1816 12.1816s-5.4541 12.1816 -12.1816 12.1816h-28.4453c-6.72754 0 -12.1816 -5.45312 -12.1816 -12.1816s5.4541 -12.1816 12.1816 -12.1816h28.4453zM419.714 315.747
c6.72754 0 12.1816 5.45312 12.1816 12.1816s-5.4541 12.1816 -12.1816 12.1816h-28.4453c-6.72754 0 -12.1816 -5.45312 -12.1816 -12.1816s5.4541 -12.1816 12.1816 -12.1816h28.4453z" />
    <glyph glyph-name="uniF10F" unicode="&#xf10f;" 
d="M506.868 381.346c3.21777 -2.2832 -3.21875 2.28516 0 0v0zM506.868 381.346c3.21777 -2.2832 5.12988 -5.98633 5.13184 -9.93262v-346.811c0 -8.22949 -8.42871 -14.2148 -16.1992 -11.5l-107.451 37.542l-14.5459 -42.0947
c-2.17773 -6.29883 -9.55762 -9.62012 -15.5537 -7.5127l-158.459 55.6953c-6.32324 2.22266 -9.66309 9.13574 -7.47461 15.4707l14.4697 41.875l-6.33789 2.21484l60.3135 60.3135c4.75684 4.75684 4.75684 12.4697 0 17.2275
c-4.75781 4.75684 -12.4707 4.75684 -17.2285 0l-68.6191 -68.6201l-37.1045 12.9639l60.1094 60.1094c4.75781 4.75781 4.75781 12.4707 0 17.2275c-4.75684 4.75781 -12.4697 4.75781 -17.2275 0l-68.416 -68.416l-33.2637 11.6211v-14.3682
c0 -6.72852 -5.4541 -12.1816 -12.1816 -12.1816h-54.6484c-6.72852 0 -12.1816 5.4541 -12.1816 12.1816v107.315c0 6.72852 5.4541 12.1816 12.1816 12.1816h54.6484c6.72852 0 12.1816 -5.4541 12.1816 -12.1816v-14.3691l416.786 145.615
c3.72559 1.30371 7.85156 0.717773 11.0703 -1.56738zM354.774 28.083l10.5732 30.5967l-103.951 36.3184l60.4531 60.4541c4.75781 4.75781 4.75781 12.4707 0 17.2275c-4.75586 4.75684 -12.4688 4.75684 -17.2275 0l-68.7607 -68.7588l-6.0752 2.12207l-10.4854 -30.3438
z" />
    <glyph glyph-name="uniF11B" unicode="&#xf11b;" 
d="M353.854 259.485l96.2373 96.3291c38.5869 -45.8301 59.6201 -103.202 59.6201 -163.815c0 -68.0752 -26.5098 -132.074 -74.6455 -180.21c-48.1367 -48.1367 -112.137 -74.6455 -180.21 -74.6455c-29.8965 0 -59.0039 5.11621 -86.3291 14.9277l62.0068 62.0068
c4.75684 4.75684 4.75684 12.4697 0 17.2275c-4.75781 4.75684 -12.4707 4.75684 -17.2285 0l-69.0439 -69.0439c-22.457 10.832 -43.373 25.0361 -62.1221 42.3516l60.1924 60.1924c4.75684 4.75781 4.75684 12.4707 0 17.2275
c-4.75781 4.75781 -12.4707 4.75781 -17.2285 0l-60.0752 -60.0762c-17.0889 19.0293 -31.0254 40.2168 -41.5527 62.9219l67.8008 67.7998c4.75684 4.75781 4.75684 12.4707 0 17.2275c-4.75781 4.75781 -12.4707 4.75781 -17.2285 0l-60.4336 -60.4346
c-8.94434 26.2188 -13.6133 54.0137 -13.6133 82.5293c0 68.0742 26.5088 132.074 74.6445 180.21c48.1367 48.1367 112.137 74.6455 180.211 74.6455c61.7393 0 120.126 -21.8066 166.365 -61.7725l-96.0137 -96.1094c-19.7559 14.3564 -44.0625 22.832 -70.3516 22.832
c-66.167 0 -119.806 -53.6387 -119.806 -119.806s53.6387 -119.806 119.806 -119.806c66.166 0 119.805 53.6387 119.805 119.806c0 25.0312 -7.68066 48.2656 -20.8066 67.4844zM267.596 219.539c0.0185547 -0.0078125 0.0361328 -0.015625 0.0537109 -0.0234375
l223.551 223.77c4.75586 4.75781 12.4678 4.76172 17.2275 0.0078125c4.76074 -4.75586 4.76367 -12.4688 0.00878906 -17.2275l-224.657 -224.873c0.0751953 -0.235352 0.142578 -0.472656 0.210938 -0.708984l23.4502 -0.685547
c6.72559 -0.196289 12.0186 -5.80664 11.8223 -12.5322c-0.192383 -6.60352 -5.60742 -11.8252 -12.1699 -11.8252c-0.120117 0 -0.240234 0.00195312 -0.362305 0.00488281l-25.9707 0.757812c-5.33984 -8.7207 -14.9531 -14.5527 -25.9062 -14.5527
c-16.7354 0 -30.3516 13.6152 -30.3516 30.3516c0 12.6221 7.74707 23.4658 18.7344 28.0361l0.680664 23.333c0.197266 6.72559 5.83105 12 12.5322 11.8223c6.72559 -0.196289 12.0186 -5.80762 11.8213 -12.5332z" />
    <glyph glyph-name="uniF106" unicode="&#xf106;" 
d="M421.641 418.588c6.72754 0 12.1816 -5.4541 12.1826 -12.1816v-458.225c0 -6.72852 -5.4541 -12.1816 -12.1816 -12.1816h-232.287l63.5361 63.5361c4.75586 4.75684 4.75586 12.4697 0 17.2275c-4.75879 4.75684 -12.4707 4.75586 -17.2285 0l-80.6768 -80.6758
c-0.0283203 -0.0273438 -0.0507812 -0.0585938 -0.0791016 -0.0869141h-59.5254l78.4268 78.4238c4.75586 4.75684 4.75586 12.4697 0 17.2275c-4.75879 4.75684 -12.4707 4.75684 -17.2295 0l-78.4004 -78.4004v61.1602
c0.0205078 0.0205078 0.0429688 0.0371094 0.0634766 0.0576172l80.4912 80.4912c4.75586 4.75684 4.75586 12.4697 0 17.2275c-4.75879 4.75684 -12.4707 4.75684 -17.2295 0l-63.3262 -63.3262v357.543c0 6.72852 5.4541 12.1816 12.1816 12.1816h97.7295v17.2314
c0 6.72852 5.4541 12.1816 12.1816 12.1816h109.912c6.72656 0 12.1807 -5.4541 12.1807 -12.1816v-17.2305h99.2783zM212.452 423.637v-17.1914l0.00195312 -0.0390625v-16.7422h85.5225l0.0234375 16.7588v17.2139h-85.5479zM375.973 186.785
c6.72754 0 12.1816 5.45312 12.1816 12.1816s-5.4541 12.1816 -12.1816 12.1816h-239.946c-6.72754 0 -12.1816 -5.45312 -12.1816 -12.1816s5.4541 -12.1816 12.1816 -12.1816h239.946zM375.973 246.386c6.72754 0 12.1816 5.45312 12.1816 12.1816
s-5.4541 12.1816 -12.1816 12.1816h-239.946c-6.72754 0 -12.1816 -5.45312 -12.1816 -12.1816s5.4541 -12.1816 12.1816 -12.1816h239.946zM375.973 305.985c6.72754 0 12.1816 5.45312 12.1816 12.1816s-5.4541 12.1816 -12.1816 12.1816h-239.946
c-6.72754 0 -12.1816 -5.45312 -12.1816 -12.1816s5.4541 -12.1816 12.1816 -12.1816h239.946z" />
    <glyph glyph-name="uniF119" unicode="&#xf119;" 
d="M497.36 122.416c5.82715 -3.36328 7.82227 -10.8125 4.45996 -16.6406l-48.2354 -83.5488c-1.61523 -2.79883 -4.27734 -4.83984 -7.39746 -5.67578s-6.44727 -0.399414 -9.24414 1.21582l-39.0107 22.5234c-23.2793 -21.792 -51.1562 -37.9072 -81.5137 -47.1211
v-44.9873c0 -6.72852 -5.4541 -12.1816 -12.1816 -12.1816h-96.4727c-6.72754 0 -12.1816 5.4541 -12.1816 12.1816v23.3428l81.9854 81.9854c4.75586 4.75684 4.75586 12.4697 0 17.2275c-4.75781 4.75684 -12.4707 4.75684 -17.2285 0l-74.3711 -74.3711
c-25.8203 9.24512 -49.6045 23.5713 -69.9863 42.1846l68.293 68.2939c4.75684 4.75781 4.75684 12.4707 0 17.2275c-4.75781 4.75781 -12.4697 4.75781 -17.2285 0l-105.45 -105.45c-1.27734 0.970703 -2.36328 2.18945 -3.18066 3.60547l-48.2354 83.5488
c-3.36426 5.82617 -1.36914 13.2764 4.45801 16.6396l38.9648 22.4961c-3.56348 15.3809 -5.36719 31.1768 -5.36719 47.0889c0 15.9111 1.80371 31.708 5.36719 47.0879l-38.9658 22.4971c-5.82617 3.36328 -7.82129 10.8125 -4.45801 16.6396l48.2354 83.5488
c1.61523 2.79785 4.27734 4.83984 7.39746 5.67578c3.11914 0.836914 6.44434 0.400391 9.24414 -1.21582l39.0117 -22.5244c23.2773 21.792 51.1543 37.9062 81.5127 47.1211v44.9873c0 6.72852 5.4541 12.1816 12.1816 12.1816h96.4727
c6.72754 0 12.1816 -5.4541 12.1816 -12.1816v-44.9854c30.3584 -9.21484 58.2354 -25.3301 81.5127 -47.1211l39.0117 22.5234c2.79883 1.61426 6.12598 2.05176 9.24414 1.21582c3.12012 -0.835938 5.78223 -2.87695 7.39746 -5.67578l48.2354 -83.5488
c3.36426 -5.82617 1.36914 -13.2764 -4.45801 -16.6396l-38.9658 -22.4971c3.56348 -15.3818 5.36719 -31.1787 5.36719 -47.0879c0 -15.9102 -1.80273 -31.707 -5.36719 -47.0889zM255.999 152.914c21.5537 0 39.0869 17.5342 39.0869 39.0879
c0 21.5527 -17.5332 39.0869 -39.0869 39.0869c-21.5527 0 -39.0859 -17.5342 -39.0859 -39.0869c0 -21.5537 17.5332 -39.0879 39.0859 -39.0879z" />
    <glyph glyph-name="uniF114" unicode="&#xf114;" 
d="M33.1934 435.818c0 6.72754 5.4541 12.1816 12.1816 12.1816h101.242v-405.851v-0.00976562v-87.7646v-0.00976562v-18.3623h-101.242c-6.72852 0 -12.1816 5.4541 -12.1816 12.1816v51.6133h-0.722656c-11.3535 0 -20.5898 9.2373 -20.5898 20.5898v81.4863
c0 11.3535 9.23633 20.5908 20.5898 20.5908h0.722656v137.978h-0.722656c-11.3535 0 -20.5898 9.2373 -20.5898 20.5908v81.4863c0 11.3525 9.23633 20.5898 20.5898 20.5898h0.722656v52.709zM52.7764 24.1602v73.9385h-16.5322v-73.9385h16.5322zM52.7764 284.806
v73.9395h-16.5322v-73.9395h16.5322zM325.334 295.018c-3.41992 0 -6.68262 -1.43848 -8.98926 -3.96191l-37.3418 -40.8408v197.785h92.6631v-197.785l-37.3418 40.8408c-2.30762 2.52344 -5.57031 3.96191 -8.99023 3.96191zM487.937 448
c6.72852 0 12.1816 -5.4541 12.1826 -12.1816v-487.637c0 -6.72754 -5.4541 -12.1816 -12.1816 -12.1816h-243.6l54.5098 54.5098c4.75684 4.75781 4.75684 12.4717 0 17.2285c-4.75781 4.75488 -12.4707 4.75684 -17.2285 0l-71.7383 -71.7383h-38.9004v13.3213
l51.1699 51.1689c4.75684 4.75879 4.75684 12.4717 0 17.2295c-4.75781 4.75586 -12.4707 4.75684 -17.2285 -0.000976562l-33.9414 -33.9424v53.3203l41.0645 41.0664c4.75684 4.75781 4.75684 12.4707 0 17.2275c-4.75781 4.75684 -12.4707 4.75684 -17.2275 0
l-23.8379 -23.8389v376.448h83.6592v-229.16c0 -5.02637 3.08691 -9.53711 7.77148 -11.3555c4.68555 -1.82031 10.0078 -0.574219 13.3994 3.13574l49.5234 54.1631l49.5234 -54.1631c2.35449 -2.57422 5.6377 -3.96191 8.99316 -3.96191
c1.48047 0 2.97363 0.268555 4.40723 0.826172c4.68457 1.81836 7.77148 6.32812 7.77148 11.3555v229.16h91.9082z" />
    <glyph glyph-name="uniF113" unicode="&#xf113;" 
d="M323.934 133.664l15.416 15.416l24.9629 -24.9629l-15.8115 -15.8115c-15.6211 -15.6191 -64.3672 -1.67676 -109.346 43.2998c-21.3984 21.3994 -37.3623 45.4004 -44.9512 67.583c-6.49805 18.9922 -5.89551 34.2139 1.65137 41.7598l15.8115 15.8125l24.9619 -24.9629
l-15.415 -15.415c-4.75684 -4.75781 -4.75684 -12.4707 0 -17.2275l85.4912 -85.4912c2.28516 -2.28516 5.38281 -3.56836 8.61426 -3.56836s6.3291 1.28418 8.61426 3.56836zM449.748 448c6.72754 0 12.1816 -5.45312 12.1816 -12.1816v-487.637
c0 -6.72852 -5.4541 -12.1816 -12.1816 -12.1816h-137.547l59.8613 59.8613c4.75684 4.75781 4.75684 12.4707 0 17.2275c-4.75781 4.75781 -12.4697 4.75781 -17.2285 0l-77.0889 -77.0889h-62.9082l59.8613 59.8613c4.75586 4.75781 4.75586 12.4707 0 17.2275
c-4.75879 4.75781 -12.4707 4.75781 -17.2285 0l-77.0889 -77.0889h-62.9092l59.8613 59.8613c4.75781 4.75781 4.75781 12.4707 0 17.2275c-4.75684 4.75781 -12.4697 4.75781 -17.2275 0l-62.9346 -62.9346v78.3467h-26.5107
c-11.3535 0 -20.5889 9.23633 -20.5889 20.5898v24.0781c0 11.3535 9.23535 20.5898 20.5889 20.5898h26.5107v195.388h-26.5107c-11.3535 0 -20.5889 9.23633 -20.5889 20.5898v24.0781c0 11.3535 9.23535 20.5898 20.5889 20.5898h26.5107v81.4141
c0 6.72852 5.4541 12.1816 12.1816 12.1816h340.396zM147.569 52.8643v15.8164c0 0.306641 -0.172852 0.564453 -0.416992 0.714844h-72.7178v-16.5312h73.1348zM147.569 313.51v16.5312h-73.1348v-16.5312h73.1348zM390.151 115.503
c4.75781 4.75684 4.75781 12.4707 -0.000976562 17.2256l-42.1904 42.1904c-2.28418 2.28516 -5.38281 3.56836 -8.61426 3.56836s-6.3291 -1.28418 -8.61426 -3.56836l-15.4141 -15.415l-68.2627 68.2637l15.415 15.415c4.75684 4.75684 4.75684 12.4697 0 17.2275
l-42.1895 42.1904c-2.28418 2.28516 -5.38281 3.56836 -8.61426 3.56836c-3.22949 0 -6.3291 -1.2832 -8.61328 -3.56836l-24.4248 -24.4258c-14.585 -14.585 -17.2402 -38.334 -7.47656 -66.874c8.76758 -25.6299 26.8008 -52.9473 50.7754 -76.9238
c23.9766 -23.9756 51.2959 -42.0078 76.9248 -50.7754c11.3086 -3.86816 21.8623 -5.78711 31.3945 -5.78711c14.5244 0 26.6748 4.45703 35.4805 13.2627z" />
  </font>
</defs>
</svg>
