<?xml version="1.0" standalone="no"?>
<!DOCTYPE svg PUBLIC "-//W3C//DTD SVG 1.1//EN" "http://www.w3.org/Graphics/SVG/1.1/DTD/svg11.dtd" >
<!--
2018-1-12: Created with FontForge (http://fontforge.org)
-->
<svg xmlns="http://www.w3.org/2000/svg" xmlns:xlink="http://www.w3.org/1999/xlink" version="1.1">
<metadata>
Created by FontForge 20160405 at Fri Jan 12 10:19:53 2018
 By Apache
Copyright (c) 2018, Apache
</metadata>
<defs>
<font id="Flaticon" horiz-adv-x="512" >
  <font-face 
    font-family="Flaticon"
    font-weight="400"
    font-stretch="normal"
    units-per-em="512"
    panose-1="2 0 5 3 0 0 0 0 0 0"
    ascent="448"
    descent="-64"
    bbox="0 -64 512 448"
    underline-thickness="25.6"
    underline-position="-51.2"
    unicode-range="U+0020-F163"
  />
    <missing-glyph />
    <glyph glyph-name="space" unicode=" " horiz-adv-x="200" 
 />
    <glyph glyph-name="uniF11E" unicode="&#xf11e;" 
d="M90 328v60h332v-60h-332zM379.6 58h42.4004v-30h-332v30h42.4004v240h30v-240h42.3994v240h30v-240h42.4004v240h30v-240h42.3994v240h30v-240zM30 448c16.5693 0 30 -13.4316 30 -30v-30h-60v30c0 16.5684 13.4307 30 30 30zM0 -64v422h60v-422h-60zM482 448
c16.5693 0 30 -13.4316 30 -30v-30h-60v30c0 16.5684 13.4307 30 30 30zM452 -64v422h60v-422h-60z" />
    <glyph glyph-name="uniF11F" unicode="&#xf11f;" 
d="M90 358h332v-332h-332v332zM234.5 69v30h-115v-30h115zM234.5 141v30h-115v-30h115zM234.5 213v30h-115v-30h115zM234.5 285v30h-115v-30h115zM392.5 69v30h-115v-30h115zM392.5 141v30h-115v-30h115zM392.5 213v30h-115v-30h115zM392.5 285v30h-115v-30h115zM452 448
c33.084 0 60 -26.916 60 -60v-392c0 -33.084 -26.916 -60 -60 -60h-392c-33.084 0 -60 26.916 -60 60v392c0 33.084 26.916 60 60 60h392zM452 -4v392h-392v-392h392z" />
    <glyph glyph-name="uniF11C" unicode="&#xf11c;" 
d="M452 418v30h30v-30h-30zM30 418v30h30v-30h-30zM452 268v30h30v-30h-30zM30 268v30h30v-30h-30zM120.5 418v30h30v-30h-30zM120.5 268v30h30v-30h-30zM361.5 418v30h30v-30h-30zM361.5 268v30h30v-30h-30zM30 328v60h166v-60h-166zM316 328v60h166v-60h-166zM30 178v60
h166v-60h-166zM316 178v60h166v-60h-166zM226 -64v482h60v-482h-60z" />
    <glyph glyph-name="uniF117" unicode="&#xf117;" 
d="M180 -4v30h152v-30h-152zM452 -64v180h60v-180h-60zM0 -64v180h60v-180h-60zM180 -64v30h152v-30h-152zM90 86c33.084 0 60 -26.916 60 -60v-90h-60v150zM362 26c0 33.084 26.916 60 60 60v-150h-60v90zM152.058 268h207.885c-20.749 -35.8672 -59.5264 -60 -103.942 -60
s-83.1934 24.1328 -103.942 60zM256 448c44.416 0 83.1934 -24.1328 103.943 -60h-207.886c20.749 35.8672 59.5264 60 103.942 60zM422 146v122h30v-122h-30zM60 146v122h30v-122h-30zM60 298v60h392v-60h-392z" />
    <glyph glyph-name="uniF154" unicode="&#xf154;" 
d="M482 -11.5v227h30v-227h-30zM0 -11.5v227h30v-227h-30zM240 -11.5v227h32v-227h-32zM60 275.5v30h150v-30h-150zM60 245.5h150v-257h-60v121h-30v-121h-60v257zM302 275.5v30h150v-30h-150zM302 245.5h150v-257h-60v121h-30v-121h-60v257zM60 395.5h150v-30h-30v-30h-30
v30h-30v-30h-30v30h-30v30zM302 395.5h150v-30h-30v-30h-30v30h-30v-30h-30v30h-30v30z" />
    <glyph glyph-name="uniF13E" unicode="&#xf13e;" 
d="M190.67 177.5v30h50.3301v-30h-50.3301zM271 177.5v30h50.3301v-30h-50.3301zM95.3301 56.5v151h65.3301v-151h-65.3301zM190.67 56.5v91h50.3301v-91h-50.3301zM271 56.5v91h50.3301v-91h-50.3301zM351.33 56.5v151h65.3301v-151h-65.3301zM446.67 56.5v151h65.3301
v-151h-65.3301zM437 327.5c41.3555 0 75 -33.6445 75 -75v-15h-512v15c0 41.3555 33.6445 75 75 75h362zM0 56.5v151h65.3301v-151h-65.3301z" />
    <glyph glyph-name="uniF143" unicode="&#xf143;" 
d="M332 268v90h30v-90h-30zM150 268v90h30v-90h-30zM30 56v92h120v-92h-120zM362 -64v90h120v-90h-120zM30 -64v90h120v-90h-120zM362 56v92h120v-92h-120zM271 -64v212h61v-212h-61zM180 -64v212h61v-212h-61zM512 418h-30v-210h30v-30h-512v30h30v210h-30v30h512v-30z
M422 298v30h-30v60h-90v-60h-92v60h-90v-60h-30v-30h30v-60h90v60h92v-60h90v60h30z" />
    <glyph glyph-name="uniF129" unicode="&#xf129;" 
d="M0 -64v60h512v-60h-512zM297.725 448l14.9297 -60h-113.309l14.9297 60h83.4492zM369.135 161l18.6621 -75h-263.594l18.6621 75h226.27zM320.118 358l41.5527 -167h-211.342l41.5527 167h128.236zM425.261 56l7.46484 -30h-353.451l7.46484 30h338.521z" />
    <glyph glyph-name="uniF142" unicode="&#xf142;" 
d="M435.546 448l3.94727 -60h-95.9863l3.94727 60h88.0918zM441.467 358l8.14648 -123.816l-58.1133 36.5244l-58.1133 -36.5244l8.14648 123.816h99.9336zM346 -64v120h91v-120h-91zM391.5 235.275l120.5 -75.7344v-223.541h-45v150h-151v-150h-45v223.541zM170.467 358
l8.14648 -123.816l-58.1133 36.5244l-58.1133 -36.5244l8.14648 123.816h99.9336zM164.546 448l3.94727 -60h-95.9863l3.94727 60h88.0918zM75 -64v120h91v-120h-91zM120.5 235.275l120.5 -75.7344v-223.541h-45v150h-151v-150h-45v223.541z" />
    <glyph glyph-name="uniF15C" unicode="&#xf15c;" 
d="M422 116v30h90v-30h-90zM422 176v60h90v-60h-90zM0 176v60h90v-60h-90zM422 -64v90h90v-90h-90zM0 116v30h90v-30h-90zM422 56v30h90v-30h-90zM0 -64v90h90v-90h-90zM0 56v30h90v-30h-90zM271 -64v90h31v-90h-31zM210 -64v90h31v-90h-31zM120 -64v330h60v-330h-60z
M210 56v210h92v-210h-92zM332 -64v330h60v-330h-60zM135 448h242v-125h-30v-27h-30v27h-122v-27h-30v27h-30v125zM211 373v30h-30v-30h30zM271 373v30h-30v-30h30zM331 373v30h-30v-30h30z" />
    <glyph glyph-name="uniF136" unicode="&#xf136;" 
d="M346 132v61h30v-61h-30zM135 238v75h106v-75h-106zM135 -19v227h106v-227h-106zM60 -19v332h45v-332h-45zM271 313h181v-332h-181v332zM406 102v121h-90v-121h90zM0 343v60h512v-60h-512z" />
    <glyph glyph-name="uniF14C" unicode="&#xf14c;" 
d="M221.333 268h80.667v-70c0 -22.2402 -18.0938 -40.333 -40.333 -40.333c-22.2402 0 -40.334 18.0928 -40.334 40.333v70zM110.667 268h80.666v-70c0 -22.2402 -18.0938 -40.333 -40.333 -40.333s-40.333 18.0928 -40.333 40.333v70zM0 268h80.667v-70
c0 -22.2402 -18.0938 -40.333 -40.334 -40.333c-22.2393 0 -40.333 18.0928 -40.333 40.333v70zM261.667 127.666c14.999 0 28.9043 4.73535 40.333 12.7656v-204.432h-80.667v204.433c11.4287 -8.03125 25.335 -12.7656 40.334 -12.7666zM0 -64v75h191.33v-75h-191.33z
M151 127.666c14.999 0 28.9043 4.73535 40.333 12.7656v-99.4316h-191.333v99.4326c11.4287 -8.03125 25.334 -12.7656 40.333 -12.7656c22.4424 0 42.4473 10.5781 55.334 26.9951c12.8857 -16.418 32.8906 -26.9951 55.333 -26.9961zM0 298v150h302v-150h-302zM332 373
h180v-180h-180v180zM467 268v30h-30v30h-30v-30h-30v-30h30v-30h30v30h30z" />
    <glyph glyph-name="uniF123" unicode="&#xf123;" 
d="M150 86v272h212v-272h-212zM60 448h392v-452h-392v452zM392 56v332h-272v-332h272zM120 -64v30h272v-30h-272z" />
    <glyph glyph-name="uniF11D" unicode="&#xf11d;" 
d="M316 227.87h30c0 -33.084 -26.916 -60 -60 -60h-15v-68.7617c-4.84766 1.24512 -9.87305 1.8916 -15 1.8916s-10.1523 -0.646484 -15 -1.8916v68.7617h-19.9951c-33.084 0 -60 26.916 -60 60h30c0 -16.542 13.458 -30 30 -30h19.9951v30h30v-30h15
c16.542 0 30 13.458 30 30zM436 71c16.5693 0 30 -13.4316 30 -30v-15h-420v15c0 16.5684 13.4307 30 30 30c6.75391 0 12.9863 -2.2334 18 -6c5.01367 3.7666 11.2461 6 18 6s12.9863 -2.2334 18 -6c5.01367 3.7666 11.2461 6 18 6s12.9863 -2.2334 18 -6
c5.01367 3.7666 11.2461 6 18 6s12.9863 -2.2334 18 -6c5.01367 3.7666 11.2461 6 18 6s12.9863 -2.2334 18 -6c5.01367 3.7666 11.2461 6 18 6s12.9863 -2.2334 18 -6c5.01367 3.7666 11.2461 6 18 6s12.9863 -2.2334 18 -6c5.01367 3.7666 11.2461 6 18 6
s12.9863 -2.2334 18 -6c5.01367 3.7666 11.2461 6 18 6s12.9863 -2.2334 18 -6c5.01367 3.7666 11.2461 6 18 6s12.9863 -2.2334 18 -6c5.01367 3.7666 11.2461 6 18 6zM0 -64v60h512v-60h-512zM387.459 344.952c16.2773 -13.1768 26.041 -33.2041 26.041 -54.4521
c0 -11.5381 -2.88281 -22.7129 -8.12109 -32.6299h-298.758c-5.2373 9.91699 -8.12109 21.0918 -8.12109 32.6299c0 21.248 9.76367 41.2754 26.041 54.4531c-2.19238 20.8281 5.06641 41.8936 20.0898 56.917c13.2129 13.2129 30.7852 20.4902 49.4785 20.4902
c2.4873 0 4.97363 -0.133789 7.44238 -0.396484c13.1787 16.2734 33.2041 26.0361 54.4482 26.0361s41.2695 -9.7627 54.4482 -26.0371c2.46875 0.262695 4.9541 0.396484 7.44238 0.396484c18.6934 0 36.2656 -7.27734 49.4785 -20.4902
c15.0234 -15.0234 22.2822 -36.0889 20.0898 -56.917z" />
    <glyph glyph-name="uniF122" unicode="&#xf122;" 
d="M173.5 146v122h165v-122h-165zM271 328h157.5v-242h-345v242h157.5v-30h-97.5v-182h225v182h-97.5v30zM83.5 -64v120h345v-120h-345zM181 448h150v-90h-60v30h-30v-30h-60v90z" />
    <glyph glyph-name="uniF12E" unicode="&#xf12e;" 
d="M378.699 149.138l52.1943 -30.1328c-15.0996 -22.251 -34.3291 -41.4795 -56.5801 -56.5801l-30.1348 52.1943c13.2803 9.57031 24.9492 21.2393 34.5205 34.5186zM240.984 86.9033v-0.000976562v0v-60.2676c-27.5537 1.94531 -53.6611 9.19434 -77.3115 20.7363
l30.1279 52.1836c14.6406 -6.63574 30.5186 -11.001 47.1836 -12.6514zM374.314 412.211c22.25 -15.0996 41.4785 -34.3301 56.5781 -56.5801l-52.1934 -30.1348c-9.57031 13.2812 -21.2393 24.9502 -34.5195 34.5205zM105.587 222.301
c1.65039 -16.6641 6.01465 -32.543 12.6514 -47.1816l-52.1846 -30.1279c-11.542 23.6484 -18.791 49.7578 -20.7354 77.3096h60.2686zM133.301 149.138c9.57129 -13.2783 21.2402 -24.9473 34.5215 -34.5195l-30.1338 -52.1943
c-22.25 15.1006 -41.4805 34.3301 -56.5801 56.5801zM137.687 412.21l30.1338 -52.1953c-13.2803 -9.56934 -24.9492 -21.2383 -34.5195 -34.5205l-52.1934 30.1348c15.0996 22.251 34.3311 41.4814 56.5791 56.5811zM271.016 448
c27.5537 -1.94531 53.6621 -9.19531 77.3125 -20.7354l-30.1289 -52.1836c-14.6406 6.63574 -30.5186 11.001 -47.1836 12.6514v60.2676zM445.947 329.644c11.542 -23.6484 18.791 -49.7588 20.7344 -77.3115h-60.2666c-1.65137 16.666 -6.01562 32.5439 -12.6523 47.1826z
M406.415 222.301v-0.000976562h60.2676c-1.94434 -27.5518 -9.19336 -53.6611 -20.7344 -77.3105l-52.1846 30.1289c6.63574 14.6396 11 30.5186 12.6514 47.1826zM163.673 427.264c23.6504 11.541 49.7578 18.791 77.3125 20.7363v-60.2686
c-16.665 -1.65039 -32.543 -6.01562 -47.1846 -12.6514zM318.199 99.5547l30.1279 -52.1826c-23.6504 -11.542 -49.7578 -18.792 -77.3115 -20.7363v60.2676c16.665 1.65039 32.5439 6.01562 47.1836 12.6514zM66.0537 329.645l52.1836 -30.1279
c-6.63672 -14.6406 -11 -30.5176 -12.6523 -47.1826h-60.2666c1.94434 27.5518 9.19336 53.6611 20.7354 77.3105zM197.837 252.333c-1.24121 -4.80078 -1.90137 -9.83203 -1.90137 -15.0156c0 -5.18457 0.661133 -10.2158 1.90137 -15.0166h-62.0342
c-0.610352 4.9209 -0.929688 9.93359 -0.929688 15.0166c0 5.08496 0.319336 10.0947 0.930664 15.0156h62.0332zM213.939 194.496c7.15527 -7.03027 16.0605 -12.2783 25.9922 -15.041l-31.0234 -53.7363c-9.31152 3.94434 -18.0283 9.02637 -25.9814 15.0625z
M298.063 194.496l31.0117 -53.7139c-7.9541 -6.03711 -16.6689 -11.1191 -25.9814 -15.0635l-31.0234 53.7363c9.93164 2.76172 18.8359 8.01074 25.9932 15.041zM429.966 -33.9678h37.2568v-30.0322h-422.444v30.0322h37.2578l40.5332 70.2061
c8.36426 -5.57715 17.0439 -10.5977 25.9854 -15.0537l-31.8428 -55.1523h124.272v30.5068c4.97852 -0.304688 9.9834 -0.475586 15.0156 -0.475586s10.0371 0.171875 15.0156 0.475586v-30.5068h124.273l-31.8428 55.1533c8.94141 4.45605 17.6211 9.47656 25.9863 15.0527
zM376.198 252.333c0.609375 -4.9209 0.929688 -9.93066 0.929688 -15.0156c0 -5.08398 -0.319336 -10.0957 -0.929688 -15.0166h-62.0342c1.24023 4.80078 1.90137 9.83203 1.90137 15.0166c0 5.18359 -0.661133 10.2148 -1.90137 15.0156h62.0342zM256 177.254
c5.18262 0 10.2148 0.661133 15.0156 1.90137v-62.0352c-4.9209 -0.612305 -9.93066 -0.930664 -15.0156 -0.930664s-10.0947 0.319336 -15.0156 0.930664v62.0352c4.80078 -1.24023 9.83301 -1.90137 15.0156 -1.90137zM208.908 348.916l31.0234 -53.7363
c-9.93164 -2.76074 -18.8359 -8.00977 -25.9922 -15.04l-31.0127 53.7139c7.9541 6.03613 16.6689 11.1191 25.9814 15.0625zM303.093 348.916c9.31152 -3.94434 18.0273 -9.02734 25.9814 -15.0625l-31.0127 -53.7139c-7.15527 7.03125 -16.0605 12.2783 -25.9922 15.04z
M256 267.349c16.5586 0 30.0322 -13.4717 30.0322 -30.0312c0 -16.5605 -13.4727 -30.0322 -30.0322 -30.0322s-30.0322 13.4717 -30.0322 30.0322c0 16.5596 13.4736 30.0312 30.0322 30.0312z" />
    <glyph glyph-name="uniF15D" unicode="&#xf15d;" 
d="M0 204.392v60h90v-60h-90zM0 174.395h90v-212h-90v212zM60 22.3945v45h-30v-45h30zM60 97.3945v45h-30v-45h30zM120 -37.6084v137h50.667v-137h-50.667zM281.33 -37.6084v137h50.667v-137h-50.667zM200.67 -37.6084v137h50.667v-137h-50.667zM226 421.608l106 -106
v-186.214h-212v186.214zM241 174.395v45h-30v-45h30zM241 249.395v45h-30v-45h30zM392 339.395h120v-240h-120v30h-30v30h30v120h-30v30h30v30zM467 144.395v30h-30v-30h30zM467 204.395v30h-30v-30h30zM467 264.395v30h-30v-30h30z" />
    <glyph glyph-name="uniF135" unicode="&#xf135;" 
d="M165 86v122h182v-122h-182zM377 86v122h75v-122h-75zM60 86v122h75v-122h-75zM60 -64v120h392v-120h-392zM90 328v30h332v-30h-332zM0 448h512v-210h-512v210zM452 298v90h-392v-90h392z" />
    <glyph glyph-name="uniF10B" unicode="&#xf10b;" 
d="M303.58 86c6.19238 17.459 22.8652 30 42.4199 30v-30c-8.27148 0 -15 -6.72852 -15 -15v-135h-30v30h-90v-30h-30v135c0 8.27148 -6.72852 15 -15 15v30c19.5547 0 36.2275 -12.541 42.4199 -30h32.5801v48.373c4.91016 -0.887695 9.92285 -1.37305 15 -1.37305
s10.0898 0.485352 15 1.37305v-48.373h32.5801zM301 -4v60h-90v-60h30v30h30v-30h30zM398.5 305.501c0 -20.3594 -11.0703 -38.1201 -27.5107 -47.6299c4.90039 -18.3496 0.169922 -38.7373 -14.2266 -53.1328c-14.3955 -14.3965 -34.7822 -19.1279 -53.1328 -14.2275
c-9.50879 -16.4404 -27.2705 -27.5107 -47.6299 -27.5107s-38.1211 11.0703 -47.6299 27.5098c-18.3506 -4.90039 -38.7383 -0.168945 -53.1328 14.2275c-14.3955 14.3955 -19.127 34.7822 -14.2266 53.1328c-16.4404 9.50977 -27.5107 27.2705 -27.5107 47.6299
s11.0703 38.1201 27.5107 47.6299c-4.90039 18.3486 -0.169922 38.7363 14.2266 53.1318c14.3955 14.3965 34.7822 19.1279 53.1328 14.2275c9.50879 16.4404 27.2705 27.5107 47.6299 27.5107s38.1211 -11.0703 47.6299 -27.5098
c18.3506 4.90039 38.7383 0.168945 53.1328 -14.2275c14.3955 -14.3955 19.127 -34.7822 14.2266 -53.1328c16.4404 -9.50977 27.5107 -27.2695 27.5107 -47.6289z" />
    <glyph glyph-name="uniF131" unicode="&#xf131;" 
d="M242 447.75h30v-92.3379l-30 -0.194336v92.5322zM112.5 144.75v30h287v-30h-287zM132.546 204.75l109.402 105.582l-0.845703 -105.582h-108.557zM369.5 114.75h30v-57.4199c-17.459 6.19238 -30 22.8652 -30 42.4199v15zM369.5 -20.25
c0 19.5547 12.541 36.2275 30 42.4199v-85.9199h-30v43.5zM271.951 310.497l107.866 -105.747h-108.714zM112.5 114.75h30v-15c0 -19.5547 -12.541 -36.2275 -30 -42.4199v57.4199zM429.5 -63.75v238.5h82.5v-238.5h-82.5zM112.5 22.1699
c17.459 -6.19238 30 -22.8652 30 -42.4199v-43.5h-30v85.9199zM334.025 291.653l177.975 -86.9033h-89.3301zM339.5 99.75c0 -24.5068 11.8145 -46.3057 30.0469 -60c-18.2324 -13.6943 -30.0469 -35.4932 -30.0469 -60v-43.5h-167v43.5
c0 24.5068 -11.8145 46.3057 -30.0469 60c18.2324 13.6943 30.0469 35.4932 30.0469 60v15h167v-15zM0 -63.75v238.5h82.5v-238.5h-82.5zM0.178711 204.75l179.018 86.7129l-89.8506 -86.7129h-89.167zM302 387.75v60h89v-60h-89z" />
    <glyph glyph-name="uniF15B" unicode="&#xf15b;" 
d="M422 403v45h30v-45h-30zM482 403v45h30v-45h-30zM75 162v61h91v-61h-91zM346 162v61h91v-61h-91zM0 313v60h512v-60h-512zM406 -64v136h31v-136h-31zM467 -64v60h45v-60h-45zM271 283h241v-257h-45v76h-91v-67.8389h-105v248.839zM467 132v121h-151v-121h151zM135 -64
v136h31v-136h-31zM271 -64v68.1602h105v-68.1602h-105zM0 283h241v-248.839h-45v67.8389h-91v-76h-105v257zM196 132v121h-151v-121h151zM0 -64v60h105v-60h-105zM196 -64v68.1602h45v-68.1602h-45zM0 403v45h30v-45h-30zM60 403v45h30v-45h-30z" />
    <glyph glyph-name="uniF106" unicode="&#xf106;" 
d="M241 -64v92h30v-92h-30zM241 148v30h30v-30h-30zM331 448c16.5 0 30 -13.5 30 -30v-180c0 -16.5 -13.5 -30 -30 -30h-150c-16.5 0 -30 13.5 -30 30v180c0 16.5 13.5 30 30 30h150zM271 298.5c24.8135 0 45 19.9629 45 44.5s-20.1865 44.5 -45 44.5h-60v-119h30v30h30z
M271 357.5c8.27148 0 15 -6.50488 15 -14.5s-6.72852 -14.5 -15 -14.5h-30v29h30zM166 58v60h180v-60h-180z" />
    <glyph glyph-name="uniF108" unicode="&#xf108;" 
d="M241 448h30v-30.834c-4.92578 0.544922 -9.92871 0.833984 -15 0.833984s-10.0742 -0.289062 -15 -0.833984v30.834zM256 388c57.9902 0 105 -47.0098 105 -105s-47.0098 -105 -105 -105s-105 47.0098 -105 105s47.0098 105 105 105zM316 268v30h-45v45h-30v-75h75z
M329.468 -34h31.5322v-30h-210v30h31.5322c3.67383 17.8516 13.792 33.9385 28.4678 44.9785v75.0215h30v62.834c4.92578 -0.544922 9.92871 -0.833984 15 -0.833984s10.0742 0.289062 15 0.833984v-62.834h30v-75.0215c14.6758 -11.04 24.7939 -27.126 28.4678 -44.9785z
" />
    <glyph glyph-name="uniF127" unicode="&#xf127;" 
d="M158.5 206v92h195v-92h-195zM68.5 116h375v-90h-375v90zM383.5 56v30h-30v-30h30zM391 448l52.5 -60h-375l52.5 60h270zM68.5 -64v60h375v-60h-375zM68.5 358h375v-212h-375v212zM383.5 176v152h-255v-152h255z" />
    <glyph glyph-name="uniF14A" unicode="&#xf14a;" 
d="M60 448h392v-61.0762c-4.90137 0.704102 -9.90723 1.07617 -15 1.07617h-362c-5.09277 0 -10.0986 -0.37207 -15 -1.07617v61.0762zM391.959 219h120.041v-193h-45v91.5h-30v-91.5h-90v30h60v30h-150v-30h60v-30h-90v91.5h-30v-91.5h-45v193h120.041
c-9.43848 -12.5439 -15.041 -28.1289 -15.041 -45v-15h150v15c0 16.8711 -5.60254 32.4561 -15.041 45zM332 219c19.5557 0 36.2393 -12.5391 42.4287 -30h-84.8584c6.19043 17.4609 22.874 30 42.4297 30zM437 358c41.3555 0 75 -33.6445 75 -75v-34h-512v34
c0 41.3555 33.6445 75 75 75h362zM152 -64v60h360v-60h-360zM0 -64v223h122v-223h-122zM0 189v30h122v-30h-122z" />
    <glyph glyph-name="uniF157" unicode="&#xf157;" 
d="M392 -34v105h120v-105h-120zM452 161c33.084 0 60 -26.916 60 -60h-120c0 33.084 26.916 60 60 60zM126.481 343h109.037l-54.5186 -34.7168zM181 272.717l91 57.9482v-92.665h-182v92.665zM0 56v77h128.5v-77h-128.5zM233.5 56v77h128.5v-77h-128.5zM0 -34v60h128.5v-60
h-128.5zM233.5 -34v60h128.5v-60h-128.5zM158.5 -34v167h45v-167h-45zM0 418h362v-255h-362v255zM302 208v165h-242v-165h242z" />
    <glyph glyph-name="uniF119" unicode="&#xf119;" 
d="M113.5 -64v60h285v-60h-285zM173.5 206v92h165v-92h-165zM173.5 146v30h165v-30h-165zM368.5 298h60v-272h-345v272h60v-182h225v182zM308.5 56v30h-105v-30h105zM83.5 448h345v-120h-345v120zM368.5 373v30h-225v-30h225z" />
    <glyph glyph-name="uniF103" unicode="&#xf103;" 
d="M473.302 -34h31.1982v-30h-170v30h31.1982l10 120h87.6035zM187.5 388h120v-240h-120v240zM262.5 193v30h-30v-30h30zM262.5 253v30h-30v-30h30zM262.5 313v30h-30v-30h30zM329.5 448c57.8975 0 105 -47.1025 105 -105v-227h-30v227c0 41.3555 -33.6445 75 -75 75h-322
v30h322zM7.5 388h120v-240h-120v240zM82.5 193v30h-30v-30h30zM82.5 253v30h-30v-30h30zM82.5 313v30h-30v-30h30z" />
    <glyph glyph-name="uniF100" unicode="&#xf100;" 
d="M394.802 -34h31.1982v-30h-170v30h31.1982l10 120h87.6035zM251 448c57.8975 0 105 -47.1025 105 -105v-227h-30v227c0 41.3555 -33.6445 75 -75 75h-165v30h165zM92.2812 388h137.438c-11.5967 -26.4609 -38.0264 -45 -68.7188 -45s-57.1221 18.5391 -68.7188 45z" />
    <glyph glyph-name="uniF105" unicode="&#xf105;" 
d="M256 178c5.06348 0 10.0664 0.254883 15 0.744141v-242.744h-30v242.744c4.93359 -0.489258 9.93652 -0.744141 15 -0.744141zM256 448c66.2744 0 120 -53.7256 120 -120s-53.7256 -120 -120 -120s-120 53.7256 -120 120s53.7256 120 120 120zM308.5 313v30h-105v-30h105
z" />
    <glyph glyph-name="uniF161" unicode="&#xf161;" 
d="M331 388v60h151v-60h-151zM29.5 388v60h151v-60h-151zM301 358h211v-422h-60.5v92h-90v-92h-60.5v422zM391.5 58v45h-30v-45h30zM391.5 133v45h-30v-45h30zM391.5 208v45h-30v-45h30zM391.5 283v45h-30v-45h30zM451.5 58v45h-30v-45h30zM451.5 133v45h-30v-45h30z
M451.5 208v45h-30v-45h30zM451.5 283v45h-30v-45h30zM391.5 -64v62h30v-62h-30zM0 358h211v-422h-61v92h-90v-92h-60v422zM90 58v45h-30v-45h30zM90 133v45h-30v-45h30zM90 208v45h-30v-45h30zM90 283v45h-30v-45h30zM150 58v45h-30v-45h30zM150 133v45h-30v-45h30zM150 208
v45h-30v-45h30zM150 283v45h-30v-45h30zM90 -64v62h30v-62h-30zM241 320.5v37.5h30v-37.5h-30zM241 253v37.5h30v-37.5h-30z" />
    <glyph glyph-name="uniF112" unicode="&#xf112;" 
d="M188.5 208v30h135v-30h-135zM98.5 358h315v-302h-315v302zM353.5 148v120h-195v-120h30v30h135v-30h30zM353.5 298v30h-195v-30h195zM98.5 -64v90h315v-90h-315zM368.5 448c36.2188 0 66.5225 -25.8076 73.4912 -60h-371.982c6.96875 34.1924 37.2725 60 73.4912 60h225z
" />
    <glyph glyph-name="uniF158" unicode="&#xf158;" 
d="M436 291v30h76v-30h-76zM0 291v30h76v-30h-76zM436 -64v325h76v-325h-76zM0 -64v325h76v-325h-76zM256 448l165 -97h-330zM181 141v60h30v-60h-30zM106 261h300v-120h-45v90h-90v-90h-30v90h-90v-90h-45v120zM301 141v60h30v-60h-30zM106 291v30h300v-30h-300zM211 -64
v115h30v-115h-30zM271 -64v115h30v-115h-30zM106 111h300v-175h-75v145h-150v-145h-75v175z" />
    <glyph glyph-name="uniF115" unicode="&#xf115;" 
d="M0 284.5c0 36.2197 25.8076 66.5225 60 73.4912v-118.491h-60v45zM301.33 239.5v120h75.6699v-120h-75.6699zM195.67 239.5v120h75.6699v-120h-75.6699zM90 239.5v120h75.6699v-120h-75.6699zM437 359.5c41.3555 0 75 -33.6445 75 -75v-45h-105v120h30zM0 209.5h512v-140
h-45c0 41.3555 -33.6445 75 -75 75s-75 -33.6445 -75 -75h-122c0 41.3555 -33.6445 75 -75 75s-75 -33.6445 -75 -75h-45v140zM75 69.5c0 24.8525 20.1475 45 45 45s45 -20.1475 45 -45s-20.1475 -45 -45 -45s-45 20.1475 -45 45zM347 69.5c0 24.8525 20.1475 45 45 45
s45 -20.1475 45 -45s-20.1475 -45 -45 -45s-45 20.1475 -45 45z" />
    <glyph glyph-name="uniF163" unicode="&#xf163;" 
d="M91 448h330v-150h-330v150zM163 343v60h-30v-60h30zM235 343v60h-30v-60h30zM307 343v60h-30v-60h30zM379 343v60h-30v-60h30zM91 -64v92h90v-92h-90zM211 -64v92h30v-92h-30zM91 268h330v-150h-330v150zM163 163v60h-30v-60h30zM235 163v60h-30v-60h30zM307 163v60h-30
v-60h30zM379 163v60h-30v-60h30zM271 -64v92h30v-92h-30zM91 58v30h330v-30h-330zM331 -64v92h90v-92h-90z" />
    <glyph glyph-name="uniF15F" unicode="&#xf15f;" 
d="M150.603 266.677v29.9717h29.9717v-29.9717h-29.9717zM150.603 206.735v29.9707h29.9717v-29.9707h-29.9717zM210.544 206.735v29.9707h29.9707v-29.9707h-29.9707zM270.486 206.735v29.9707h29.9707v-29.9707h-29.9707zM151.602 86.8516v29.9717h208.797v-29.9717
h-208.797zM210.544 266.677v29.9717h29.9707v-29.9717h-29.9707zM390.369 266.677v29.9717h29.9707v-29.9717h-29.9707zM270.486 266.677v29.9717h29.9707v-29.9717h-29.9707zM330.427 206.735v29.9707h29.9717v-29.9707h-29.9717zM90.6611 206.735v29.9707h29.9707
v-29.9707h-29.9707zM390.369 206.735v29.9707h29.9707v-29.9707h-29.9707zM90.6611 266.677v29.9717h29.9707v-29.9717h-29.9707zM330.427 266.677v29.9717h29.9717v-29.9717h-29.9717zM0.749023 357.588h510.502v-421.588h-120.882v210.794h-268.738v-210.794h-120.882
v421.588zM450.31 176.765h0.000976562v149.854h-389.619v-149.854h389.618zM151.602 -64v120.882h208.797v-120.882h-208.797zM60.6914 387.559v60.4414h389.619v-60.4414h-389.619z" />
    <glyph glyph-name="uniF147" unicode="&#xf147;" 
d="M0 283v45h512v-45h-512zM0 358v90h512v-90h-512zM150 117v45h61v-45h-61zM301 -4v91h61v-91h-61zM150 -4v91h61v-91h-61zM301 117v45h61v-45h-61zM60 253h392v-257h-60v196h-121v-196h-30v196h-121v-196h-60v257zM0 -64v30h512v-30h-512z" />
    <glyph glyph-name="uniF149" unicode="&#xf149;" 
d="M331 -64v242h91v-242h-91zM452 -64v242h60v-242h-60zM271 -64v242h30v-242h-30zM151.67 148v30h29.667v-30h-29.667zM0 -64v242h62v-242h-62zM92 -64v122h149v-122h-149zM211.33 148v30h29.667v-30h-29.667zM0 298h512v-90h-512v90zM452 238v30h-392v-30h392zM478.18 388
l33.8203 -60h-512l33.8203 60h444.359zM151.67 88v30h29.667v-30h-29.667zM92 148v30h29.667v-30h-29.667zM211.33 88v30h29.667v-30h-29.667zM92 88v30h29.667v-30h-29.667zM45 418v30h30v-30h-30zM105 418v30h30v-30h-30zM437 418v30h30v-30h-30zM377 418v30h30v-30h-30z
" />
    <glyph glyph-name="uniF148" unicode="&#xf148;" 
d="M105 -64v60h30v-60h-30zM0 318h512v-382h-75v198.365l-48.6221 102.917c-9.46289 20.0283 -34.2275 35.7178 -56.3779 35.7178h-152c-22.1514 0 -46.915 -15.6895 -56.377 -35.7178l-48.623 -102.917v-198.365h-75v382zM105 116h302v-90h-60v60h-182v-60h-60v90zM165 -64
v60h182v-60h-182zM361.252 224.467l37.0713 -78.4668h-284.647l37.0723 78.4668c4.58203 9.7002 18.5254 18.5332 29.252 18.5332h152c10.7275 0 24.6699 -8.83301 29.252 -18.5332zM195 26v30h122v-30h-122zM377 -64v60h30v-60h-30zM0 348v100h512v-100h-512z" />
    <glyph glyph-name="uniF110" unicode="&#xf110;" 
d="M106 230.5h45v-105h-45v37.5h-30v30h30v37.5zM182.503 358c5.96582 29.3857 29.1113 52.5312 58.4971 58.4971v-58.4971h-58.4971zM271 416.497c29.3857 -5.96582 52.5312 -29.1113 58.4971 -58.4971h-58.4971v58.4971zM256 73c29.3535 0 55.9268 12.1123 75 31.5957
v-78.5957h-150v78.5957c19.0732 -19.4834 45.6465 -31.5957 75 -31.5957zM151 328h210v-30h-30v-46.5957c-19.0732 19.4834 -45.6465 31.5957 -75 31.5957s-55.9268 -12.1123 -75 -31.5957v46.5957h-30v30zM256 253c41.4209 0 75 -33.5791 75 -75s-33.5791 -75 -75 -75
s-75 33.5791 -75 75s33.5791 75 75 75zM271 163v30h-30v-30h30zM241 418v30h30v-30h-30zM406 193h30v-30h-30v-37.5h-45v105h45v-37.5zM376 -34h30v-30h-300v30h30v30h240v-30z" />
    <glyph glyph-name="uniF107" unicode="&#xf107;" 
d="M256 88c15.5547 0 30.8193 3.02148 45 8.75781v-160.758h-90v160.757c14.1807 -5.73535 29.4453 -8.75684 45 -8.75684zM121.841 298h268.318c-3.57324 -32.0732 -18.5127 -61.8555 -42.3574 -83.9727l-2.74219 -18.9814
c-3.06348 -21.2148 -13.6807 -40.6992 -29.8955 -54.8604c-16.3818 -14.3066 -37.3926 -22.1855 -59.1641 -22.1855s-42.7832 7.87891 -59.1641 22.1855c-16.2148 14.1611 -26.832 33.6445 -29.8955 54.8613l-2.74219 18.9805
c-23.8428 22.1191 -38.7842 51.9004 -42.3574 83.9727zM271 238v30h-30v-30h30zM390.162 328h-119.162v60h-30v-60h-119.162c7.48633 67.4053 64.793 120 134.162 120s126.676 -52.5947 134.162 -120z" />
    <glyph glyph-name="uniF116" unicode="&#xf116;" 
d="M264.615 404.5l26.25 -45h-110.865v45h84.6152zM75 329.5h105v-105h-180v30c0 41.3555 33.6445 75 75 75zM0 99.5h67.9238c-14.2529 -15.9229 -22.9238 -36.9473 -22.9238 -60h-45v60zM476.146 194.5l35.8535 -7.96777v-147.032h-45c0 49.7061 -40.2939 90 -90 90
s-90 -40.2939 -90 -90h-62c0 49.7061 -40.2939 90 -90 90h-135v65h476.146zM372.631 283.188l34.2344 -58.6885h-196.865v105h82c30.0654 0 65.4824 -20.3428 80.6309 -46.3115zM135 99.5c33.1367 0 60 -26.8633 60 -60s-26.8633 -60 -60 -60s-60 26.8633 -60 60
s26.8633 60 60 60zM135 24.5c8.28418 0 15 6.71582 15 15s-6.71582 15 -15 15s-15 -6.71582 -15 -15s6.71582 -15 15 -15zM377 99.5c33.1367 0 60 -26.8633 60 -60s-26.8633 -60 -60 -60s-60 26.8633 -60 60s26.8633 60 60 60zM377 24.5c8.28418 0 15 6.71582 15 15
s-6.71582 15 -15 15s-15 -6.71582 -15 -15s6.71582 -15 15 -15z" />
    <glyph glyph-name="uniF146" unicode="&#xf146;" 
d="M90 199.5v36h332v-36h-332zM90 133.5v36h332v-36h-332zM90 67.5v36h332v-36h-332zM90 1.5v36h332v-36h-332zM256 448l256 -83.0889v-428.911h-60v329.5h-392v-329.5h-60v428.911zM90 -64v35.5h332v-35.5h-332z" />
    <glyph glyph-name="uniF14F" unicode="&#xf14f;" 
d="M30 221.844h452v-285.844h-60v195.844h-332v-195.844h-60v285.844zM422 161.844v30h-332v-30h332zM120 -64v165.84h30v-165.84h-30zM362 -64v165.84h30v-165.84h-30zM180 -64v165.84h152v-165.84h-152zM382.4 418h129.6v-166.156h-512v166.156h129.6v-113h66.4004
c18.5596 0 36.1787 -5.90527 50.9531 -17.0762l9.04688 -6.84082l9.04688 6.84082c14.7744 11.1709 32.3936 17.0762 50.9531 17.0762h66.4004v113zM316 448h36.4004v-113h-36.4004c-15.7061 0 -30.9131 -3.13574 -45 -9.1709v108.857h-0.549805
c13.5859 8.72754 29.2021 13.3135 45.5498 13.3135zM196 448c16.3477 0 31.9629 -4.58594 45.5498 -13.3135h-0.549805v-108.857c-14.0869 6.03516 -29.2939 9.1709 -45 9.1709h-36.4004v113h36.4004z" />
    <glyph glyph-name="uniF155" unicode="&#xf155;" 
d="M274.385 312.385c4.91113 -4.91113 7.61523 -11.4395 7.61523 -18.3848s-2.7041 -13.4736 -7.61523 -18.3848s-11.4404 -7.61523 -18.3848 -7.61523s-13.4736 2.70508 -18.3848 7.61523c-4.91113 4.91113 -7.61523 11.4395 -7.61523 18.3848
s2.7041 13.4736 7.61523 18.3848l18.3848 18.3848zM410.322 351h101.678v-415h-60v212h-181v-212h-30v212h-181v-212h-60v415h101.678l154.322 97zM216.402 333.598c-10.5771 -10.5762 -16.4023 -24.6396 -16.4023 -39.5977s5.8252 -29.0215 16.4023 -39.5977
c10.5762 -10.5771 24.6396 -16.4023 39.5977 -16.4023s29.0215 5.8252 39.5977 16.4023c10.5771 10.5762 16.4023 24.6396 16.4023 39.5977s-5.8252 29.0215 -16.4023 39.5977l-39.5977 39.5986zM452 178v30h-392v-30h392zM90 118h121v-182h-121v182zM181 58v30h-61v-30h61z
M301 118h121v-182h-121v182zM392 58v30h-61v-30h61z" />
    <glyph glyph-name="uniF138" unicode="&#xf138;" 
d="M466.5 298c5.13477 0 10.1504 0.519531 15 1.50098v-31.501h-30v31.501c4.84961 -0.981445 9.86523 -1.50098 15 -1.50098zM0 -64v302h91v-302h-91zM329.72 386.72c34.8232 -6.4668 61.2803 -37.0527 61.2803 -73.7197v-347h-120v-30h-30v30h-120v347
c0 36.667 26.457 67.2529 61.2803 73.7197c6.4668 34.8223 37.0518 61.2803 73.7197 61.2803s67.2529 -26.458 73.7197 -61.2803zM256 418c-19.5547 0 -36.2275 -12.542 -42.4199 -30h84.8398c-6.19238 17.458 -22.8652 30 -42.4199 30zM196 358
c-19.5547 0 -36.2275 -12.542 -42.4199 -30h204.84c-6.19238 17.458 -22.8652 30 -42.4199 30h-120zM181 -4v212h-30v-212h30zM241 -4v212h-30v-212h30zM301 -4v212h-30v-212h30zM361 -4v212h-30v-212h30zM361 238v60h-210v-60h210zM45.5 298
c5.13477 0 10.1504 0.519531 15 1.50098v-31.501h-30v31.501c4.84961 -0.981445 9.86523 -1.50098 15 -1.50098zM421 -64v302h91v-302h-91zM45.5 419c25.0889 0 45.5 -20.4111 45.5 -45.5s-20.4111 -45.5 -45.5 -45.5s-45.5 20.4111 -45.5 45.5s20.4111 45.5 45.5 45.5z
M466.5 419c25.0889 0 45.5 -20.4111 45.5 -45.5s-20.4111 -45.5 -45.5 -45.5s-45.5 20.4111 -45.5 45.5s20.4111 45.5 45.5 45.5z" />
    <glyph glyph-name="uniF13D" unicode="&#xf13d;" 
d="M256 87c8.82227 0 16 -7.17773 16 -16v-15h-32v15c0 8.82227 7.17773 16 16 16zM0 118h120v-182h-120v182zM75 26v60h-30v-60h30zM443.213 208l60 -60h-111.213v60h51.2129zM392 118h120v-182h-120v182zM467 26v60h-30v-60h30zM68.7871 208h51.2129v-60h-111.213z
M256 209c8.82227 0 16 -7.17773 16 -16s-7.17773 -16 -16 -16s-16 7.17773 -16 16s7.17773 16 16 16zM240 -64v90h32v-90h-32zM271 335.213l91 -91v-308.213h-60v135c0 25.3643 -20.6357 46 -46 46s-46 -20.6357 -46 -46v-135h-60v308.213l91 91v52.7871h-30v30h30v30h30
v-30h30v-30h-30v-52.7871zM256 147c25.3643 0 46 20.6357 46 46s-20.6357 46 -46 46s-46 -20.6357 -46 -46s20.6357 -46 46 -46z" />
    <glyph glyph-name="uniF145" unicode="&#xf145;" 
d="M422 328h90v-211h-60v-181h-30v392zM482 -64v151h30v-151h-30zM0 -64v151h30v-151h-30zM0 328h90v-392h-30v181h-60v211zM211 177v61h90v-61h-90zM256 298c8.27148 0 15 -6.72852 15 -15v-15h-30v15c0 8.27148 6.72852 15 15 15zM120 358h272v-241h-272v241zM331 147v121
h-30v15c0 24.8135 -20.1865 45 -45 45s-45 -20.1865 -45 -45v-15h-30v-121h150zM120 -64v151h121v-151h-121zM271 -64v151h121v-151h-121zM120 448h272v-30h-30v-30h-30v30h-152v-30h-30v30h-30v30z" />
    <glyph glyph-name="uniF151" unicode="&#xf151;" 
d="M421.047 27.2422v190.164h90.2549v-190.164h-90.2549zM481.388 352.046h29.9189v-104.716h-90.2549v59.8369h60.3359v44.8789zM0.693359 27.2422v190.164h90.2549v-190.164h-90.2549zM331.296 -2.66699h180.011v-59.8369h-14.96v-1.49609h-165.051v61.333z
M30.6123 307.167h60.3359v-59.8369h-90.2549v104.716h29.9189v-44.8789zM361.214 411.883h29.9189v-44.8779h-270.266v44.8779h29.9189v-32.2715l105.214 68.3887l105.214 -68.3887v32.2715zM120.867 217.411h270.267v-190.158h-59.8379v110.038h-150.591v-110.039h-59.8379
v190.159zM316.336 167.209v29.9189h-120.672v-29.9189h120.672zM270.954 27.2529v80.1221h30.417v-80.1221h-30.417zM210.618 27.2529v80.1221h30.417v-80.1221h-30.417zM210.618 -64v61.333h90.7539v-61.333h-90.7539zM0.693359 -2.66699h180.011v-61.333h-165.051v1.49609
h-14.96v59.8369zM120.862 247.325v89.7559h270.266v-89.7559h-270.266z" />
    <glyph glyph-name="uniF10A" unicode="&#xf10a;" 
d="M256 207c5.07715 0 10.0977 0.541016 15 1.55176v-32.6338c-5.14453 -0.250977 -10.1738 -1.1377 -15 -2.6543c-4.82617 1.51562 -9.85547 2.40332 -15 2.6543v32.6338c4.90234 -1.01074 9.92285 -1.55176 15 -1.55176zM169 207h30v-31.082
c-5.14453 -0.250977 -10.1738 -1.1377 -15 -2.6543c-4.82617 1.51562 -9.85547 2.40332 -15 2.6543v31.082zM313 207h30v-31.082c-5.14453 -0.250977 -10.1738 -1.1377 -15 -2.6543c-4.82617 1.51562 -9.85547 2.40332 -15 2.6543v31.082zM346 146
c16.5693 0 30 -13.4316 30 -30v-15h-240v15c0 16.5684 13.4307 30 30 30c6.75391 0 12.9863 -2.2334 18 -6c5.01367 3.7666 11.2461 6 18 6s12.9863 -2.2334 18 -6c5.01367 3.7666 11.2461 6 18 6s12.9863 -2.2334 18 -6c5.01367 3.7666 11.2461 6 18 6
s12.9863 -2.2334 18 -6c5.01367 3.7666 11.2461 6 18 6s12.9863 -2.2334 18 -6c5.01367 3.7666 11.2461 6 18 6zM61 71h390v-30h-30v-105h-330v105h-30v30zM361.5 342.499c0 -14.8164 -7.16211 -27.957 -18.2109 -36.1562
c2.01465 -13.6094 -2.21289 -27.9658 -12.6895 -38.4424s-24.833 -14.7041 -38.4434 -12.6895c-8.19922 -11.0488 -21.3398 -18.2109 -36.1562 -18.2109s-27.957 7.16211 -36.1572 18.2119c-13.6094 -2.01465 -27.9668 2.21191 -38.4424 12.6895
c-10.4766 10.4756 -14.7031 24.833 -12.6895 38.4424c-11.0488 8.19922 -18.2109 21.3398 -18.2109 36.1562s7.16211 27.957 18.2119 36.1572c-2.01465 13.6094 2.21191 27.9658 12.6895 38.4424c10.4756 10.4766 24.832 14.7041 38.4424 12.6895
c8.19922 11.0488 21.3398 18.2109 36.1562 18.2109s27.957 -7.16211 36.1562 -18.2129c13.6104 2.01465 27.9668 -2.21191 38.4434 -12.6895c10.4766 -10.4756 14.7031 -24.833 12.6895 -38.4424c11.0488 -8.19922 18.2109 -21.3398 18.2109 -36.1562zM225.5 327.5v30h-30
v-30h30zM271 282v30h-30v-30h30zM271 373v30h-30v-30h30zM316.5 327.5v30h-30v-30h30z" />
    <glyph glyph-name="uniF120" unicode="&#xf120;" 
d="M135.5 56v80h105.5v-80h-105.5zM271 56v80h105.5v-80h-105.5zM406.5 56v80h105.5v-80h-105.5zM0 26h512v-60h-30v-30h-30v30h-392v-30h-30v30h-30v60zM0 56v80h105.5v-80h-105.5zM30 166v113.5h30v-113.5h-30zM452 166v113.5h30v-113.5h-30zM256 448l256 -82.5889
v-55.9111h-512v55.9111z" />
    <glyph glyph-name="uniF14D" unicode="&#xf14d;" 
d="M90 148v30h332v-30h-332zM0 238h512v-302h-90v182h30v90h-392v-90h30v-182h-90v302zM271 -64v182h61v-182h-61zM120 -64v182h30v-182h-30zM180 -64v182h61v-182h-61zM362 -64v182h30v-182h-30zM60 448h392v-180h-392v180zM301 343v30h-30v30h-30v-30h-30v-30h30v-30h30
v30h30z" />
    <glyph glyph-name="uniF11B" unicode="&#xf11b;" 
d="M452 259.415l30 5.26465v-106.68h-30v101.415zM252.75 -34h57.25v-30h-250v30h57.75v422h135v-422zM147.75 358v-54.165l53.9082 54.165h-53.9082zM147.75 231.165v-54.165h53.9082zM147.75 147v-54.165l53.9082 54.165h-53.9082zM147.75 -34h53.9082l-53.9082 54.165
v-54.165zM222.75 -12.665v54.165h-53.9082zM222.75 71.5v54.165l-53.9082 -54.165h53.9082zM222.75 198.335v54.165h-53.9082zM222.75 282.5v54.165l-53.9082 -54.165h53.9082zM0 298v90h87.75v-90h-87.75zM0 418v30h252.75v-30h-252.75zM282.75 388h229.25v-87.5967
l-229.25 -40.2354v127.832z" />
    <glyph glyph-name="uniF12F" unicode="&#xf12f;" 
d="M420.924 237h91.0762v-150h-180v61.0762c45.916 6.59668 82.3271 43.0078 88.9238 88.9238zM422 387h90v-120h-30v90h-30v-90h-30v120zM0 387h90v-120h-30v90h-30v-90h-30v120zM210 87v60h92v-60h-92zM91.0762 237c6.59668 -45.916 43.0078 -82.3271 88.9238 -88.9238
v-61.0762h-180v150h91.0762zM0 -3v60h512v-60h-512zM150 237h212v-30h-30v-29.0684h-30v29.0684h-92v-30h-30v30h-30v30z" />
    <glyph glyph-name="uniF118" unicode="&#xf118;" 
d="M195.67 61v105h120.67v-105h-120.67zM452 61v105h60v-105h-60zM195.67 -64v95h120.67v-95h-120.67zM346.33 -64v230h75.6699v-230h-75.6699zM90 -64v230h75.6699v-230h-75.6699zM452 -64v95h60v-95h-60zM0 -64v95h60v-95h-60zM437 256
c36.2188 0 66.5225 -25.8076 73.4912 -60h-508.982c6.96875 34.1924 37.2725 60 73.4912 60h362zM0 61v105h60v-105h-60zM90 448h332v-30h-37.9014l-83.0986 -101.362v-30.6377h-30v21h-30v-21h-30v30.6377l-83.0986 101.362h-37.9014v30zM278.901 337l66.4043 81h-178.611
l66.4043 -81h45.8027z" />
    <glyph glyph-name="uniF104" unicode="&#xf104;" 
d="M434.713 268l52.5 -52.5l-52.5 -52.5h-133.713v105h133.713zM271 -34h30v-30h-90v30h30v482h30v-482zM77.2871 343h133.713v-105h-133.713l-52.5 52.5zM434.713 418l52.5 -52.5l-52.5 -52.5h-133.713v105h133.713z" />
    <glyph glyph-name="uniF10D" unicode="&#xf10d;" 
d="M316 448c41.3555 0 75 -33.6445 75 -75h-30c0 24.8135 -20.1865 45 -45 45s-45 -20.1865 -45 -45v-47h-30v47c0 24.8135 -20.1865 45 -45 45s-45 -20.1865 -45 -45h-30c0 41.3555 33.6445 75 75 75c24.5078 0 46.3047 -11.8174 60 -30.0518
c13.6953 18.2344 35.4922 30.0518 60 30.0518zM121 296h270v-30h-31.5088c-6.96875 -34.1924 -37.2725 -60 -73.4912 -60h-60c-36.2188 0 -66.5225 25.8076 -73.4912 60h-31.5088v30zM32 176h448v-30h-31.5088c-6.96875 -34.1924 -37.2725 -60 -73.4912 -60h-74v-30h-90v30
h-74c-36.2197 0 -66.5234 25.8076 -73.4912 60h-31.5088v30zM419.491 -34h31.5088v-30h-391v30h32.5088c6.96875 34.1924 37.2725 60 73.4912 60h180c36.2188 0 66.5225 -25.8076 73.4912 -60z" />
    <glyph glyph-name="uniF12D" unicode="&#xf12d;" 
d="M0 221h315v-187.5h-30c0 70.417 -57.084 127.5 -127.5 127.5s-127.5 -57.083 -127.5 -127.5h-30v187.5zM360 251v47h30v-47h-30zM345 221h167v-30h-77v-255h-30v97.5h-60v187.5zM45 251v47h30v-47h-30zM0 328v30h435v-30h-435zM375 448c33.084 0 60 -26.916 60 -60h-435
c0 33.084 26.916 60 60 60h315zM157.5 48.5c8.27148 0 15 -6.72852 15 -15s-6.72852 -15 -15 -15s-15 6.72852 -15 15s6.72852 15 15 15zM157.5 131c53.8477 0 97.5 -43.6523 97.5 -97.5s-43.6523 -97.5 -97.5 -97.5s-97.5 43.6523 -97.5 97.5s43.6523 97.5 97.5 97.5z
M157.5 -11.5c24.8135 0 45 20.1865 45 45s-20.1865 45 -45 45s-45 -20.1865 -45 -45s20.1865 -45 45 -45z" />
    <glyph glyph-name="uniF12A" unicode="&#xf12a;" 
d="M433.8 163h30v-227h-30v137h-355.6v-137h-30v227h30v-60h355.6v60zM108.4 193v120h78.3994v-120h-78.3994zM433.6 193v120h78.4004v-120h-78.4004zM325.2 193v120h78.3994v-120h-78.3994zM0 193v120h78.4004v-120h-78.4004zM216.8 193v120h78.4004v-120h-78.4004z
M40.9004 395.5c0 28.9951 23.5049 52.5 52.5 52.5c28.9941 0 52.5 -23.5049 52.5 -52.5s-23.5059 -52.5 -52.5 -52.5c-28.9951 0 -52.5 23.5049 -52.5 52.5zM366.1 395.5c0 28.9951 23.5059 52.5 52.5 52.5c28.9951 0 52.5 -23.5049 52.5 -52.5s-23.5049 -52.5 -52.5 -52.5
c-28.9941 0 -52.5 23.5049 -52.5 52.5z" />
    <glyph glyph-name="uniF162" unicode="&#xf162;" 
d="M91 357h330v-330h-330v330zM181 57v30h-30v-30h30zM181 117v30h-30v-30h30zM181 177v30h-30v-30h30zM181 237v30h-30v-30h30zM181 297v30h-30v-30h30zM241 57v30h-30v-30h30zM241 117v30h-30v-30h30zM241 177v30h-30v-30h30zM241 237v30h-30v-30h30zM241 297v30h-30v-30
h30zM301 57v30h-30v-30h30zM301 117v30h-30v-30h30zM301 177v30h-30v-30h30zM301 237v30h-30v-30h30zM301 297v30h-30v-30h30zM361 57v30h-30v-30h30zM361 117v30h-30v-30h30zM361 177v30h-30v-30h30zM361 237v30h-30v-30h30zM361 297v30h-30v-30h30zM91 387v61h330v-61
h-330zM331 -64v61h60v-61h-60zM211 -64v61h90v-61h-90zM121 -64v61h60v-61h-60z" />
    <glyph glyph-name="uniF13F" unicode="&#xf13f;" 
d="M303.437 204.306l2.33301 -46.9717h-99.5391l2.33301 46.9717c14.248 -7.22852 30.3652 -11.3057 47.4365 -11.3057s33.1885 4.07715 47.4365 11.3057zM312.012 31.667l4.75195 -95.667h-121.527l4.75195 95.667h112.023zM307.26 127.333l3.2627 -65.666h-109.045
l3.2627 65.666h102.52zM241 448h30v-46.0713c-4.90039 0.701172 -9.90625 1.07129 -15 1.07129s-10.0996 -0.370117 -15 -1.07129v46.0713zM189.668 263h132.664c-12.5771 -23.7852 -37.5547 -40 -66.332 -40s-53.7549 16.2148 -66.332 40zM329.497 313h31.5029v-20h-210v20
h31.5029c6.9502 34.2334 37.2129 60 73.4971 60s66.5479 -25.7666 73.4971 -60z" />
    <glyph glyph-name="uniF114" unicode="&#xf114;" 
d="M362 289.5h30v-285h-30v105h-332v-105h-30v285h30v-150h332v150zM317 379.5c36.2197 0 66.5225 -25.8076 73.4902 -60h-388.981c6.96875 34.1924 37.2715 60 73.4912 60h242zM452 4.5v165h30v-165h-30zM60 79.5h272v-30h-30v-45h-30v45h-152v-45h-30v45h-30v30z
M422 199.5v180h90v-180h-90z" />
    <glyph glyph-name="uniF10C" unicode="&#xf10c;" 
d="M256 -34c5.0791 0 10.085 0.321289 15 0.935547v-30.9355h-30v30.9355c4.91504 -0.615234 9.9209 -0.935547 15 -0.935547zM345.077 98.8906c0.603516 -4.20996 0.922852 -8.5127 0.922852 -12.8906c0 -49.7061 -40.2939 -90 -90 -90s-90 40.2939 -90 90
c0 4.37793 0.319336 8.68066 0.922852 12.8896l44.5439 310.556c3.12695 21.7979 21.8701 38.5547 44.5332 38.5547s41.4062 -16.7568 44.5332 -38.5547z" />
    <glyph glyph-name="uniF111" unicode="&#xf111;" 
d="M0 207v45h512v-45h-512zM0 282v45h512v-45h-512zM30 357.004v29.9961h30v-29.9961h-30zM30 -3v90h30v-90h-30zM452 357.004v29.9961h30v-29.9961h-30zM482 147.002h30v-30h-512v30h30v30h30v-30h392v30h30v-30zM452 -3v90h30v-90h-30z" />
    <glyph glyph-name="uniF132" unicode="&#xf132;" 
d="M400.6 358c5.17871 0 10.2041 0.65918 15 1.89844v-31.8984h-30v31.8984c4.79688 -1.23828 9.82227 -1.89844 15 -1.89844zM111.4 358c5.17773 0 10.2031 0.65918 15 1.89844v-31.8984h-30v31.8984c4.7959 -1.23828 9.82129 -1.89844 15 -1.89844zM81.4004 418
c0 16.5684 13.4307 30 30 30c16.5684 0 30 -13.4316 30 -30s-13.4316 -30 -30 -30c-16.5693 0 -30 13.4316 -30 30zM370.6 418c0 16.5684 13.4316 30 30 30c16.5693 0 30 -13.4316 30 -30s-13.4307 -30 -30 -30c-16.5684 0 -30 13.4316 -30 30zM0 -64v106.5h90v-106.5h-90z
M0 208h512v-135.5h-91.8828c-6.69043 26.1279 -30.4326 45.5 -58.6162 45.5s-51.9258 -19.3721 -58.6162 -45.5h-93.7686c-6.69043 26.1279 -30.4326 45.5 -58.6162 45.5s-51.9258 -19.3721 -58.6162 -45.5h-91.8838v135.5zM422 -64v106.5h90v-106.5h-90zM211 -64v106.5h90
v-106.5h-90zM0 298h512v-60h-30v30h-66.4004v-30h-30v30h-66.3994v-30h-30v30h-66.4004v-30h-30v30h-66.3994v-30h-30v30h-66.4004v-30h-30v60z" />
    <glyph glyph-name="uniF124" unicode="&#xf124;" 
d="M0 206v242h512v-242h-512zM301 146h211v-30h-512v30h211v30h90v-30zM211 56v30h90v-30h-90zM211 -64v90h90v-90h-90z" />
    <glyph glyph-name="uniF150" unicode="&#xf150;" 
d="M452 -64v195h30v-195h-30zM90 101v30h242v-30h-242zM90 -64v135h106v-135h-106zM362 -64v195h60v-195h-60zM226 -64v135h106v-135h-106zM0 -64v195h60v-195h-60zM512 341h-120v-30h120v-30h-120v-30h120v-30h-120v-30h120v-30h-512v120h205.477l196 167h110.523v-107z
" />
    <glyph glyph-name="uniF156" unicode="&#xf156;" 
d="M461.271 328l50.7285 -90h-106v90h55.2715zM346 26v62h166v-62h-166zM196 58v30h120v-30h-120zM166 118v30h180v-30h-180zM0 208h512v-90h-136v60h-240v-60h-136v90zM271 -64v92h45v-92h-45zM0 26v62h166v-62h-166zM0 -64v60h166v-60h-166zM196 -64v92h45v-92h-45z
M50.7285 328h55.2715v-90h-106zM346 -64v60h166v-60h-166zM226 358h60v-6.25781c0 -21.5889 -11.5801 -41.3242 -30 -51.9619c-18.4199 10.6377 -30 30.373 -30 51.9619v6.25781zM106 448h300v-30h-30v-180h-240v180h-30v30zM316 351.742v36.2578h-120v-36.2578
c0 -35.7734 21.1934 -68.1514 53.9932 -82.4873l6.00684 -2.625l6.00684 2.62598c32.7998 14.335 53.9932 46.7129 53.9932 82.4863z" />
    <glyph glyph-name="uniF14B" unicode="&#xf14b;" 
d="M433.6 268v60h78.4004v-60h-78.4004zM472.8 178c14.5439 0 28.0479 4.52148 39.2002 12.2158v-134.216h-78.4004v134.216c11.1523 -7.69434 24.6562 -12.2158 39.2002 -12.2158zM0 358v90h512v-90h-512zM0 268v60h78.4004v-60h-78.4004zM108.4 268v60h78.3994v-60
h-78.3994zM109.501 238h76.1982c-4.15137 -17.1895 -19.6533 -30 -38.0996 -30c-18.4453 0 -33.9463 12.8105 -38.0986 30zM1.10059 238h76.1992c-4.15137 -17.1895 -19.6533 -30 -38.0996 -30s-33.9473 12.8105 -38.0996 30zM216.8 268v60h78.4004v-60h-78.4004zM325.2 268
v60h78.3994v-60h-78.3994zM326.301 238h76.1982c-4.15234 -17.1895 -19.6533 -30 -38.0986 -30c-18.4463 0 -33.9473 12.8105 -38.0996 30zM217.9 238h76.1982c-4.15039 -17.1895 -19.6533 -30 -38.0996 -30s-33.9473 12.8105 -38.0986 30zM434.7 238h76.1992
c-4.15137 -17.1895 -19.6543 -30 -38.1006 -30s-33.9473 12.8105 -38.0986 30zM364.4 178c14.5449 0 28.0479 4.52148 39.1992 12.2158v-254.216h-132.6v243.656c15.751 3.49707 29.4922 12.3711 39.2002 24.5967c12.6865 -15.9775 32.2598 -26.2529 54.2002 -26.2529z
M0 -64v90h78.4004v-90h-78.4004zM201.8 204.253c9.70801 -12.2256 23.4492 -21.1006 39.2002 -24.5967v-243.656h-132.599v254.216c11.1514 -7.69434 24.6543 -12.2158 39.1982 -12.2158c21.9404 0 41.5137 10.2754 54.2002 26.2529zM433.6 -64v90h78.4004v-90h-78.4004z
M39.2002 178c14.5449 0 28.0479 4.52148 39.2002 12.2158v-134.216h-78.4004v134.216c11.1523 -7.69434 24.6553 -12.2158 39.2002 -12.2158z" />
    <glyph glyph-name="uniF126" unicode="&#xf126;" 
d="M18.2627 253l1.65527 -30h-19.918v30h18.2627zM493.737 253h18.2627v-30h-19.918zM422 448c24.75 0 45 -20.25 45 -45h-422c0 24.75 20.25 45 45 45h332zM45 343v30h120v-30h-120zM195 343v30h122v-30h-122zM347 343v30h120v-30h-120zM90 -19c0 24.8525 20.1475 45 45 45
s45 -20.1475 45 -45s-20.1475 -45 -45 -45s-45 20.1475 -45 45zM332 -19c0 24.8525 20.1475 45 45 45s45 -20.1475 45 -45s-20.1475 -45 -45 -45s-45 20.1475 -45 45zM0 313h512v-30h-46.6543l-12.5186 -227h-393.654l-12.5186 227h-46.6543v30z" />
    <glyph glyph-name="uniF159" unicode="&#xf159;" 
d="M75 87v30h151v-30h-151zM165 -64v121h61v-121h-61zM75 -64v121h60v-121h-60zM0 177h301v-241h-45v211h-211v-211h-45v241zM0 207v30h60v-30h-60zM406 207v151h31v-151h-31zM331 448h181v-512h-181v512zM467 177v211h-91v-211h91zM0 388h301v-121h-211v91h-90v30zM90 207
v30h211v-30h-211z" />
    <glyph glyph-name="uniF11A" unicode="&#xf11a;" 
d="M67.75 169.5v112.5h105.5v-112.5h-105.5zM474.25 -3v390h37.75v-390h-37.75zM203.25 -3v390h37.75v-390h-37.75zM135.5 312v75h37.75v-75h-37.75zM338.75 312v75h37.75v-75h-37.75zM67.75 312v75h37.75v-75h-37.75zM271 312v75h37.75v-75h-37.75zM135.5 -3v142.5h37.75
v-142.5h-37.75zM0 -3v390h37.75v-390h-37.75zM406.5 312v75h37.75v-75h-37.75zM67.75 -3v142.5h37.75v-142.5h-37.75zM444.25 169.499h-30.25v-30h30.25v-142.499h-173.25v285h173.25v-112.501z" />
    <glyph glyph-name="uniF102" unicode="&#xf102;" 
d="M241 116v62h30v-62h-30zM309.802 -34h31.1982v-30h-170v30h31.1982l10 120h87.6035zM346 403v30h30v-30h-30zM136 403v30h30v-30h-30zM346 343v30h30v-30h-30zM136 343v30h30v-30h-30zM346 283v30h30v-30h-30zM136 283v30h30v-30h-30zM196 448h120v-240h-120v240z
M271 253v30h-30v-30h30zM271 313v30h-30v-30h30zM271 373v30h-30v-30h30z" />
    <glyph glyph-name="uniF141" unicode="&#xf141;" 
d="M30 388v60h181v-60h-181zM75 -64v165h91v-165h-91zM0 358h241v-422h-45v195h-151v-195h-45v422zM196 298v30h-151v-30h151zM301 236h211v-105h-30v77.2393l-37.791 -47.2393h-75.418l-37.791 47.2393v-77.2393h-30v105zM301 266v92h211v-92h-211zM452 448
c33.084 0 60 -26.916 60 -60h-211c0 33.084 26.916 60 60 60h91zM271 -64v165h241v-165h-241z" />
    <glyph glyph-name="uniF153" unicode="&#xf153;" 
d="M461.271 268l50.7285 -90h-91v90h40.2715zM50.7285 268h40.2715v-90h-91zM0 148h91v-212h-91v212zM60 -2v45h-30v-45h30zM60 73v45h-30v-45h30zM421 148h91v-212h-91v212zM482 -2v45h-30v-45h30zM482 73v45h-30v-45h30zM211 208v30h90v-30h-90zM256 118
c19.5547 0 36.2275 -12.542 42.4189 -30h-84.8389c6.19238 17.459 22.8652 30 42.4199 30zM91 328h330v-30h-30v-362h-60v137c0 41.3555 -33.6445 75 -75 75s-75 -33.6445 -75 -75v-137h-60v362h-30v30zM331 178v90h-150v-90h150zM211 -64v122h90v-122h-90zM302 388v60h89
v-60h-89zM242 358v90h30v-90h-30z" />
    <glyph glyph-name="uniF15E" unicode="&#xf15e;" 
d="M241 418v30h30v-30h-30zM361 176v60h30v-60h-30zM121 176v60h30v-60h-30zM241 176v60h30v-60h-30zM451 326v30h30v-30h-30zM31 296h450v-120h-60v90h-90v-90h-30v90h-90v-90h-30v90h-90v-90h-60v120zM31 326v30h30v-30h-30zM211 -64v150h90v-150h-90zM31 146h450v-120
h-150v90h-150v-90h-150v120zM151 56v60h-30v-60h30zM391 56v60h-30v-60h30zM31 -64v60h150v-60h-150zM331 -64v60h150v-60h-150zM331 371c0 -24.8135 20.1865 -45 45 -45h-240c24.8135 0 45 20.1865 45 45v17h150v-17zM301 418v30h30v-30h-30zM181 418v30h30v-30h-30z" />
    <glyph glyph-name="uniF137" unicode="&#xf137;" 
d="M313.241 387.629l13.1025 -181.629h-140.688l13.1025 181.629l57.2412 60.3711zM139.612 86v90h232.774v-90h-232.774zM199.612 146v-30h112.774v30h-112.774zM30 11v45h452v-45h-452zM0 -64v45h512v-45h-512z" />
    <glyph glyph-name="uniF128" unicode="&#xf128;" 
d="M60 148h15v-212h-30v213.257c4.87988 -0.822266 9.88965 -1.25684 15 -1.25684zM452 148c5.11035 0 10.1201 0.43457 15 1.25684v-213.257h-30v212h15zM452 448c33.084 0 60 -26.916 60 -60v-150c0 -33.084 -26.916 -60 -60 -60h-392c-33.084 0 -60 26.916 -60 60v150
c0 33.084 26.916 60 60 60h392zM347 268v30h-182v-30h182zM422 328v30h-332v-30h332z" />
    <glyph glyph-name="uniF130" unicode="&#xf130;" 
d="M362 358v60h60v-60h-60zM90 358v60h60v-60h-60zM180 358v60h152v-60h-152zM332 328h30v-302h-212v302h30v-212h152v212zM30 448c16.5693 0 30 -13.4316 30 -30v-482h-60v482c0 16.5684 13.4307 30 30 30zM482 448c16.5693 0 30 -13.4316 30 -30v-482h-60v482
c0 16.5684 13.4307 30 30 30z" />
    <glyph glyph-name="uniF13A" unicode="&#xf13a;" 
d="M0 328h120.5v-135h-120.5v135zM75.25 223v60h-30v-60h30zM0 -64v227h120.5v-227h-120.5zM60.25 448l60.25 -90h-120.5zM451.75 448l60.25 -90h-120.5zM391.5 328h120.5v-135h-120.5v135zM466.75 223v60h-30v-60h30zM391.5 -64v227h120.5v-227h-120.5zM211 -64v107h30
v-107h-30zM271 -64v107h30v-107h-30zM331.25 298h30.25v-105h-211v105h30.25v30h30v-30h30.25v30h30v-30h30.25v30h30v-30zM150.5 163h211v-227h-30.5v122c0 41.3555 -33.6445 75 -75 75s-75 -33.6445 -75 -75v-122h-30.5v227zM256 103
c19.5547 0 36.2275 -12.542 42.4189 -30h-84.8389c6.19238 17.458 22.8652 30 42.4199 30z" />
    <glyph glyph-name="uniF13C" unicode="&#xf13c;" 
d="M482 193v225h30v-225h-30zM0 193v225h30v-225h-30zM256 448c44.5156 0 81.5801 -32.4893 88.7432 -75h-177.486c7.16309 42.5107 44.2275 75 88.7432 75zM166 313v30h180v-30h-180zM391 343h30v-90h-330v90h30v-60h270v60zM0 -64v227h61v-227h-61zM256 159.602
c44.3535 -13.167 75 -54.0127 75 -100.655v-122.946h-30v137.946h-90v-137.946h-30v122.946c0 46.6426 30.6465 87.4883 75 100.655zM241 -64v107.95h30v-107.95h-30zM451 -64v227h61v-227h-61zM91 223h330v-287h-60v122.946c0 61.6348 -41.6396 115.399 -101.261 130.745
l-3.73926 0.961914l-3.73926 -0.961914c-59.6211 -15.3457 -101.261 -69.1104 -101.261 -130.745v-122.946h-60v287z" />
    <glyph glyph-name="uniF134" unicode="&#xf134;" 
d="M180 -64v45h152v-45h-152zM0 -64v120h150v-120h-150zM180 11v45h152v-45h-152zM362 86v30h150v-30h-150zM362 -64v120h150v-120h-150zM0 86v30h150v-30h-150zM437 358c41.3555 0 75 -33.6445 75 -75h-512c0 41.3555 33.6445 75 75 75h362zM30 146v107h30v-107h-30z
M452 146v107h30v-107h-30zM150 146v107h30v-107h-30zM332 146v107h30v-107h-30zM377 448c33 0 60 -27 60 -60h-362c0 33 27 60 60 60h242z" />
    <glyph glyph-name="uniF133" unicode="&#xf133;" 
d="M400.6 358c5.17871 0 10.2041 0.65918 15 1.89844v-31.8984h-30v31.8984c4.79688 -1.23828 9.82227 -1.89844 15 -1.89844zM111.4 358c5.17773 0 10.2031 0.65918 15 1.89844v-31.8984h-30v31.8984c4.7959 -1.23828 9.82129 -1.89844 15 -1.89844zM0 208h512v-60
h-96.4004v-28.6328c-3.95996 -1.88965 -8.97852 -3.36719 -15 -3.36719c-6.02051 0 -11.04 1.47754 -15 3.36816v28.6318h-259.199v-28.6318c-3.95996 -1.89062 -8.97949 -3.36816 -15 -3.36816c-6.02148 0 -11.04 1.47656 -15 3.36719v28.6328h-96.4004v60zM81.4004 418
c0 16.5684 13.4307 30 30 30c16.5684 0 30 -13.4316 30 -30s-13.4316 -30 -30 -30c-16.5693 0 -30 13.4316 -30 30zM370.6 418c0 16.5684 13.4316 30 30 30c16.5693 0 30 -13.4316 30 -30s-13.4307 -30 -30 -30c-16.5684 0 -30 13.4316 -30 30zM0 298h512v-60h-30v30
h-66.4004v-30h-30v30h-66.3994v-30h-30v30h-66.4004v-30h-30v30h-66.3994v-30h-30v30h-66.4004v-30h-30v60zM497 86h15v-150h-512v150h15c14.2617 0 27.8008 4.53711 39.1533 13.1221l9.04688 6.83984l9.04688 -6.84082c11.3506 -8.58398 24.8896 -13.1211 39.1533 -13.1211
c14.2617 0 27.8008 4.53711 39.1523 13.1201l9.04688 6.84082l9.04785 -6.83984c11.3516 -8.58398 24.8906 -13.1211 39.1523 -13.1211c14.2637 0 27.8018 4.53711 39.1533 13.1211l9.04688 6.84082l9.04688 -6.84082c11.3516 -8.58398 24.8896 -13.1211 39.1533 -13.1211
c14.2617 0 27.8008 4.53711 39.1533 13.1221l9.04785 6.83984l9.04688 -6.84082c11.3506 -8.58398 24.8896 -13.1211 39.1514 -13.1211c14.2627 0 27.8018 4.53711 39.1533 13.1211l9.04688 6.84082l9.04688 -6.84082c11.3516 -8.58398 24.8906 -13.1211 39.1533 -13.1211z
" />
    <glyph glyph-name="uniF13B" unicode="&#xf13b;" 
d="M0 148v60h90v-60h-90zM60 295.42c17.459 -6.19238 30 -22.8652 30 -42.4199v-15h-90v15c0 19.5547 12.541 36.2275 30 42.4199v62.5801h30v-62.5801zM406 -64v182h106v-182h-106zM0 -64v182h106v-182h-106zM422 148v60h90v-60h-90zM482 295.42
c17.459 -6.19238 30 -22.8652 30 -42.4199v-15h-90v15c0 19.5547 12.541 36.2275 30 42.4199v62.5801h30v-62.5801zM151 313h210v-72.9912c-27.0771 26.5742 -64.1553 42.9912 -105 42.9912s-77.9229 -16.417 -105 -42.9912v72.9912zM271 416.924
c40.7871 -5.85938 74.0742 -35.2461 85.626 -73.9229h-201.252c11.5518 38.6768 44.8389 68.0635 85.626 73.9229v31.0762h30v-31.0762zM256 178c8.27148 0 15 -6.72852 15 -15s-6.72852 -15 -15 -15s-15 6.72852 -15 15s6.72852 15 15 15zM256 253
c66.2744 0 120 -53.7256 120 -120v-45h-240v45c0 66.2744 53.7256 120 120 120zM256 118c24.8135 0 45 20.1865 45 45s-20.1865 45 -45 45s-45 -20.1865 -45 -45s20.1865 -45 45 -45zM301 -64v122h75v-122h-75zM136 -64v122h75v-122h-75zM241 -64v122h30v-122h-30z" />
    <glyph glyph-name="uniF109" unicode="&#xf109;" 
d="M482 -64v30h30v-30h-30zM195 268c24.8135 0 45 -20.1865 45 -45c0 -10.7529 -3.86719 -21.168 -10.8926 -29.3311l-34.1074 -39.6631l-34.1113 39.668c-7.02148 8.1582 -10.8887 18.5732 -10.8887 29.3262c0 24.8135 20.1865 45 45 45zM210 208v30h-30v-30h30zM90 328
h332v-242h-332v242zM251.849 174.104c11.7051 13.5996 18.1514 30.9648 18.1514 48.8965c0 41.3555 -33.6445 75 -75 75s-75 -33.6445 -75 -75c0 -17.9316 6.44629 -35.2969 18.1475 -48.8916l56.8525 -66.1143zM392 132v30h-92v-30h92zM392 192v30h-92v-30h92zM392 252v30
h-92v-30h92zM482 448h30v-452h-512v452h30v-30h452v30zM452 56v302h-392v-302h392zM0 -64v30h30v-30h-30z" />
    <glyph glyph-name="uniF10F" unicode="&#xf10f;" 
d="M91 298h90v-30h-30v-30h-30v30h-30v30zM61 176h120v-120h-15c-57.8975 0 -105 47.1025 -105 105v15zM359.491 358h31.5088v-30h-210v30h31.5088c5.98145 29.3438 29.1475 52.5107 58.4912 58.4912v31.5088h30v-31.5088
c29.3438 -5.98047 52.5098 -29.1475 58.4912 -58.4912zM211 206v92h150v-92h-150zM419.475 -34h31.5254v-30h-330v30h31.5254c3.72949 18.291 14.1299 34.1758 28.5488 45c8.71094 6.53906 18.876 11.2402 29.9258 13.4932v151.507h150v-151.507
c29.3408 -5.98145 52.4922 -29.1523 58.4746 -58.4932z" />
    <glyph glyph-name="uniF160" unicode="&#xf160;" 
d="M120 102v60h272v-60h-272zM120 192v60h272v-60h-272zM422 372h90v-390h-90v390zM482 72v60h-30v-60h30zM482 162v60h-30v-60h30zM482 252v60h-30v-60h30zM362 402h30v-120h-272v120h30v-30h212v30zM120 -18v90h121v-90h-121zM0 372h90v-390h-90v390zM60 72v60h-30v-60h30
zM60 162v60h-30v-60h30zM60 252v60h-30v-60h30zM271 -18v90h121v-90h-121z" />
    <glyph glyph-name="uniF14E" unicode="&#xf14e;" 
d="M0 358h121.838c-0.546875 -4.92676 -0.837891 -9.92969 -0.837891 -15v-76h-91v61h-30v30zM390.162 358h121.838v-30h-30v-61h-91v76c0 5.07031 -0.291016 10.0732 -0.837891 15zM181 117h150v-61h-60v30h-30v-30h-60v61zM0 237h512v-90h-512v90zM452 177v30h-392v-30
h392zM90 -64v181h61v-181h-61zM181 -64v90h150v-90h-150zM361 -64v181h61v-181h-61zM0 -64v181h60v-181h-60zM452 -64v181h60v-181h-60zM256 448c57.8975 0 105 -47.1025 105 -105v-76h-210v76c0 57.8975 47.1025 105 105 105z" />
    <glyph glyph-name="uniF152" unicode="&#xf152;" 
d="M0 163h150v-227h-150v227zM60 13v45h-30v-45h30zM60 88v45h-30v-45h30zM120 13v45h-30v-45h30zM120 88v45h-30v-45h30zM362 163h150v-227h-150v227zM422 13v45h-30v-45h30zM422 88v45h-30v-45h30zM482 13v45h-30v-45h30zM482 88v45h-30v-45h30zM50.7285 283h99.2715v-90
h-150zM461.271 283l50.7285 -90h-150v90h99.2715zM271 193v60h61v-60h-61zM180 163h152v-227h-61v122h-30v-122h-61v227zM271 88v45h-30v-45h30zM180 193v60h61v-60h-61zM180 283v30h152v-30h-152zM302 418h30v-75h-152v75h30v-38.7871l31 31v37.7871h30v-37.7871l31 -31
v38.7871z" />
    <glyph glyph-name="uniF113" unicode="&#xf113;" 
d="M301 238v60h30v-60h-30zM301 148v60h30v-60h-30zM181 148v60h30v-60h-30zM241 238v60h30v-60h-30zM181 238v60h30v-60h-30zM241 148v60h30v-60h-30zM181 58v60h30v-60h-30zM241 58v60h30v-60h-30zM301 58v60h30v-60h-30zM346 448c36.2188 0 66.5225 -25.8076 73.4912 -60
h-326.982c6.96875 34.1924 37.2725 60 73.4912 60h180zM91 358h330v-422h-60v392h-210v-392h-60v422zM181 -64v92h150v-92h-150z" />
    <glyph glyph-name="uniF12B" unicode="&#xf12b;" 
d="M0 298v105h122v-105h-122zM0 268h122v-287h-122v287zM75 208v30h-30v-30h30zM448.25 268v90h63.75v-90h-63.75zM152 268v90h68.75v-90h-68.75zM250.75 268v90h68.75v-90h-68.75zM349.5 268v90h68.75v-90h-68.75z" />
    <glyph glyph-name="uniF12C" unicode="&#xf12c;" 
d="M151 298v30h210v-30h-210zM316 448c41.3555 0 75 -33.6445 75 -75v-15h-270v15c0 41.3555 33.6445 75 75 75h120zM121 -64v332h270v-332h-270z" />
    <glyph glyph-name="uniF121" unicode="&#xf121;" 
d="M31 -64v30h30v-30h-30zM451 -64v30h30v-30h-30zM121 191v182h150v-182h-150zM361 251v122h30v-122h-30zM121 161h150v-90h-150v90zM241 101v30h-90v-30h90zM31 448h450v-452h-450v452zM301 41v362h-210v-362h210zM421 161v30h-90v-30h90zM421 221v182h-90v-182h90z" />
    <glyph glyph-name="uniF101" unicode="&#xf101;" 
d="M309.802 -34h31.1982v-30h-170v30h31.1982l10 120h87.6035zM358.42 313h31.0713c-6.96875 -34.1924 -37.2715 -60 -73.4912 -60c-16.8701 0 -32.457 5.59961 -45 15.0361v-152.036h-30v152.036c-12.543 -9.43652 -28.1299 -15.0361 -45 -15.0361
c-36.2197 0 -66.5234 25.8076 -73.4912 60h31.0713c6.19238 -17.459 22.8652 -30 42.4199 -30c24.8135 0 45 20.1865 45 45v15h30v-15c0 -24.8135 20.1865 -45 45 -45c19.5547 0 36.2275 12.541 42.4199 30zM391 418h25l-10 -75h-60l-10 75h25v30h30v-30zM151 418h25
l-10 -75h-60l-10 75h25v30h30v-30z" />
    <glyph glyph-name="uniF15A" unicode="&#xf15a;" 
d="M422 418h45v-60h-120v60h45v30h30v-30zM120 418h45v-60h-120v60h45v30h30v-30zM80 66v92h61v-92h-61zM342 11v147h90v-147h-90zM171 66v92h61v-92h-61zM0 238h512v-302h-50v252h-150v-252h-312v302zM262 36v152h-212v-152h212zM478.18 328l33.8203 -60h-512l33.8203 60
h444.359zM342 -64v45h90v-45h-90z" />
    <glyph glyph-name="uniF10E" unicode="&#xf10e;" 
d="M331 356.491c34.1924 -6.96875 60 -37.2715 60 -73.4912v-197h-30v197c0 19.5547 -12.541 36.2275 -30 42.4199v-239.42c0 24.4844 -11.7959 46.2617 -30 59.959v179.461c-17.459 -6.19238 -30 -22.8652 -30 -42.4199v-123.509
c-4.84766 0.987305 -9.86426 1.50879 -15 1.50879s-10.1523 -0.522461 -15 -1.50879v123.509c0 19.5547 -12.541 36.2275 -30 42.4199v-179.461c-18.2041 -13.6973 -30 -35.4746 -30 -59.959v239.42c-17.459 -6.19238 -30 -22.8652 -30 -42.4199v-197h-30v197
c0 36.2197 25.8076 66.5225 60 73.4912v46.5088c0 24.8135 20.1865 45 45 45c11.5166 0 22.0322 -4.35352 30 -11.4951c7.96777 7.1416 18.4834 11.4951 30 11.4951c24.8135 0 45 -20.1865 45 -45v-46.5088zM241 342.964v60.0361c0 8.27148 -6.72852 15 -15 15
s-15 -6.72852 -15 -15v-46.5137c11.0771 -2.25781 21.2764 -6.95898 30 -13.5225zM301 356.486v46.5137c0 8.27148 -6.72852 15 -15 15s-15 -6.72852 -15 -15v-60.0361c8.72363 6.56348 18.9229 11.2637 30 13.5225zM256 131c24.8525 0 45 -20.1475 45 -45h-90
c0 24.8525 20.1475 45 45 45zM512 26h-30v-15.0215c18.6963 -14.0645 30 -36.3164 30 -59.9785v-15h-120v15c0 23.6621 -11.3037 45.9141 -30 59.9785v15.0215h-30v-31.6963l7.48633 -4.33301c13.8877 -8.03711 22.5137 -22.9697 22.5137 -38.9707v-15h-212v15
c0 16.001 8.62598 30.9336 22.5137 38.9707l7.48633 4.33301v31.6963h-30v-15.0215c-18.6963 -14.0645 -30 -36.3164 -30 -59.9785v-15h-120v15c0 23.6621 11.3037 45.9141 30 59.9785v15.0215h-30v30h512v-30z" />
    <glyph glyph-name="uniF144" unicode="&#xf144;" 
d="M108.4 208h78.3994v-20.7998c0 -21.6152 -17.585 -39.2002 -39.2002 -39.2002c-21.6143 0 -39.1992 17.585 -39.1992 39.2002v20.7998zM325.2 208h78.3994v-20.7998c0 -21.6152 -17.585 -39.2002 -39.1992 -39.2002c-21.6152 0 -39.2002 17.585 -39.2002 39.2002v20.7998
zM317 373c24.8135 0 45 -20.1865 45 -45v-15h-212v15c0 24.8135 20.1865 45 45 45h13.166v-30h30v30h35.667v-30h30v30h13.167zM216.8 208h78.4004v-20.7998c0 -21.6152 -17.585 -39.2002 -39.2002 -39.2002s-39.2002 17.585 -39.2002 39.2002v20.7998zM0 208h78.4004
v-20.7998c0 -21.6152 -17.585 -39.2002 -39.2002 -39.2002s-39.2002 17.585 -39.2002 39.2002v20.7998zM472.8 118c14.5439 0 28.0479 4.52148 39.2002 12.2158v-104.216h-132.6v93.6572c15.751 3.49609 29.4912 12.3701 39.1992 24.5957
c12.6875 -15.9775 32.2607 -26.2529 54.2002 -26.2529zM379.4 -64v60h132.6v-60h-132.6zM0 448h512v-210h-512v210zM392 283v45c0 41.3555 -33.6445 75 -75 75h-122c-41.3555 0 -75 -33.6445 -75 -75v-45h272zM93.4004 144.253
c9.70801 -12.2256 23.4482 -21.1006 39.1992 -24.5967v-93.6562h-132.6v104.216c11.1523 -7.69434 24.6553 -12.2158 39.2002 -12.2158c21.9395 0 41.5127 10.2754 54.2002 26.2529zM310.2 144.253c9.70801 -12.2256 23.4492 -21.1006 39.2002 -24.5967v-183.656h-186.801
v183.657c15.751 3.49609 29.4922 12.3701 39.2002 24.5957c12.6875 -15.9775 32.2598 -26.2529 54.2002 -26.2529s41.5127 10.2754 54.2002 26.2529zM0 -64v60h132.6v-60h-132.6zM433.6 208h78.4004v-20.7998c0 -21.6152 -17.585 -39.2002 -39.2002 -39.2002
s-39.2002 17.585 -39.2002 39.2002v20.7998z" />
    <glyph glyph-name="uniF140" unicode="&#xf140;" 
d="M211 -64v67h90v-67h-90zM121 213h270v-277h-30v97h-210v-97h-30v277zM361 63v110.251c-24.7686 -30.6279 -62.6328 -50.251 -105 -50.251s-80.2314 19.623 -105 50.251v-110.251h60v36.2383c14.3096 -4.0625 29.4062 -6.23828 45 -6.23828s30.6904 2.17578 45 6.23828
v-36.2383h60zM121 388v60h270v-60h-270zM391 273h30v-30h-330v30h30v85h270v-85z" />
    <glyph glyph-name="uniF139" unicode="&#xf139;" 
d="M121 238v30h271v-30h-271zM0 88h182.509c-0.987305 -4.84766 -1.50879 -9.86426 -1.50879 -15v-137h-151v122h-30v30zM329.491 88h182.509v-30h-30v-122h-151v137c0 5.13574 -0.521484 10.1523 -1.50879 15zM0 358h512v-30h-30v-210h-166v-0.0517578
c-13.6943 18.2334 -35.4922 30.0518 -60 30.0518s-46.3047 -11.8184 -60 -30.0518v0.0517578h-166v210h-30v30zM422 208v90h-331v-90h331zM0 448h512v-30h-30v-30h-121v30h-30v-30h-150v30h-30v-30h-121v30h-30v30z" />
    <glyph glyph-name="uniF125" unicode="&#xf125;" 
d="M226 88v105h60v-105h-60zM136 253h240v-227h-240v227zM316 58v165h-120v-165h120zM376 -34h30v-30h-300v30h30v30h240v-30zM256 448c50.2617 0 93.3984 -31.0654 111.236 -75h-222.473c17.8379 43.9346 60.9746 75 111.236 75zM106 343h300v-30h-30v-30h-240v30h-30v30z
" />
  </font>
</defs>
</svg>
