<?xml version="1.0" standalone="no"?>
<!DOCTYPE svg PUBLIC "-//W3C//DTD SVG 1.1//EN" "http://www.w3.org/Graphics/SVG/1.1/DTD/svg11.dtd" >
<!--
2016-6-22: Created.
-->
<svg xmlns="http://www.w3.org/2000/svg">
<metadata>
Created by FontForge 20120731 at Wed Jun 22 15:26:11 2016
 By root
Created by root with FontForge 2.0 (http://fontforge.sf.net)
</metadata>
<defs>
<font id="Flaticon" horiz-adv-x="512" >
  <font-face 
    font-family="Flaticon"
    font-weight="500"
    font-stretch="normal"
    units-per-em="512"
    panose-1="2 0 6 3 0 0 0 0 0 0"
    ascent="448"
    descent="-64"
    bbox="0 -64.002 512 448"
    underline-thickness="25.6"
    underline-position="-51.2"
    unicode-range="U+0020-F11D"
  />
    <missing-glyph />
    <glyph glyph-name="space" unicode=" " horiz-adv-x="200" 
 />
    <glyph glyph-name="uniF10E" unicode="&#xf10e;" 
d="M98.4355 264.608c0 -42.2383 16.4502 -81.9502 46.3174 -111.818c5.33691 -5.33789 5.33691 -13.9912 0 -19.3311c-2.66895 -2.66797 -6.16602 -4.00293 -9.66504 -4.00293c-3.49805 0 -6.99512 1.33496 -9.66602 4.00293
c-35.0303 35.0303 -54.3223 81.6074 -54.3223 131.148c0 49.542 19.292 96.1191 54.3223 131.148c5.34082 5.33594 13.9932 5.33398 19.3311 0c5.33691 -5.33887 5.33691 -13.9922 0 -19.3301c-29.8672 -29.8652 -46.3174 -69.5771 -46.3174 -111.817zM30.2119 264.608
c0 -60.4629 23.5469 -117.307 66.2988 -160.056c5.33887 -5.33789 5.33887 -13.9912 0.000976562 -19.3291c-2.66797 -2.66992 -6.16797 -4.00488 -9.66504 -4.00488c-3.49902 0 -6.99512 1.33594 -9.66309 4.00391c-47.918 47.9141 -74.3086 111.622 -74.3086 179.386
c0 67.7646 26.3906 131.473 74.3086 179.391c5.34082 5.33496 13.9922 5.33398 19.3301 0c5.33789 -5.33984 5.33789 -13.9932 0 -19.3311c-42.7559 -42.7539 -66.3018 -99.5957 -66.3018 -160.06zM189.978 350.533c5.33789 -5.33789 5.33789 -13.9932 -0.00195312 -19.3291
c-17.7871 -17.7891 -27.584 -41.4375 -27.584 -66.5957s9.79688 -48.8076 27.584 -66.5947c5.33984 -5.33789 5.33984 -13.9922 0.00195312 -19.3291c-2.66895 -2.6709 -6.16602 -4.00488 -9.66504 -4.00488c-3.49707 0 -6.99609 1.33594 -9.66309 4.00293
c-22.9551 22.9531 -35.5947 53.4668 -35.5947 85.9258s12.6396 62.9736 35.5947 85.9258c5.33887 5.33594 13.9922 5.33594 19.3281 -0.000976562zM386.578 395.756c35.0303 -35.0303 54.3223 -81.6045 54.3223 -131.146s-19.292 -96.1172 -54.3223 -131.147
c-2.66895 -2.66895 -6.16797 -4.00293 -9.66602 -4.00293c-3.49902 0 -6.99414 1.33398 -9.66504 4.00293c-5.33691 5.33887 -5.33691 13.9932 0 19.3301c29.8672 29.8652 46.3174 69.5771 46.3174 111.815c0 42.2393 -16.4502 81.9521 -46.3174 111.817
c-5.33691 5.33789 -5.33691 13.9912 0 19.3301c5.33984 5.33594 13.9912 5.33594 19.3311 0zM434.818 443.999c47.918 -47.918 74.3066 -111.626 74.3066 -179.391c0 -67.7637 -26.3906 -131.472 -74.3086 -179.386c-2.66699 -2.66895 -6.16602 -4.00391 -9.66309 -4.00391
c-3.49902 0 -6.99512 1.33496 -9.66504 4.00488c-5.33789 5.33789 -5.33789 13.9912 0.000976562 19.3291c42.7549 42.751 66.3008 99.5928 66.3008 160.056c0 60.4639 -23.5479 117.307 -66.3018 160.06c-5.33789 5.33594 -5.33789 13.9912 0 19.3311
c5.33887 5.33496 13.9912 5.33496 19.3301 0zM341.353 350.534c22.9531 -22.9521 35.5938 -53.4668 35.5928 -85.9258c0 -32.459 -12.6396 -62.9727 -35.5947 -85.9258c-2.66699 -2.66895 -6.16602 -4.00293 -9.66309 -4.00293
c-3.49902 0 -6.99512 1.33398 -9.66504 4.00488c-5.33789 5.33789 -5.33789 13.9912 0.00195312 19.3291c17.7891 17.7891 27.5859 41.4365 27.5859 66.5947s-9.79883 48.8086 -27.5859 66.5957c-5.33984 5.33789 -5.33984 13.9912 -0.00195312 19.3291
c5.33691 5.33691 13.9932 5.33887 19.3301 0.000976562zM285.561 293.6c16.2979 -16.3018 16.0137 -42.8213 -0.287109 -59.123c-2.73047 -2.72949 -5.92383 -5.02832 -9.34082 -6.87695v-271.099c0 -11.3223 -9.17969 -20.5029 -20.502 -20.5029
c-11.3232 0 -20.5029 9.18066 -20.5029 20.5029v271.099c-3.41699 1.84863 -6.03809 4.14355 -8.77148 6.87598c-16.3018 16.3008 -16.0156 42.8223 0.28125 59.1221c7.90039 7.89648 18.3994 12.2451 29.5635 12.2451c11.165 0 21.6641 -4.34863 29.5596 -12.2432z" />
    <glyph glyph-name="uniF10F" unicode="&#xf10f;" 
d="M255.999 374.221c96.7051 0 187.622 -37.6592 255.999 -106.04l-39.043 -39.043c-57.9512 57.9512 -134.999 89.8662 -216.956 89.8662c-81.9551 0 -159.004 -31.915 -216.956 -89.8662l-39.043 39.043c68.3809 68.3809 159.294 106.04 255.999 106.04zM69.3535 198.827
c49.8535 49.8555 116.138 77.3115 186.646 77.3115s136.794 -27.4561 186.646 -77.3115l-39.0469 -39.043c-39.4229 39.4277 -91.8418 61.1396 -147.599 61.1396c-55.7578 0 -108.176 -21.7139 -147.603 -61.1396zM138.787 129.391
c31.3076 31.3115 72.9336 48.5547 117.216 48.5547c44.2783 0 85.9043 -17.2451 117.214 -48.5547l-39.0469 -39.043c-20.8789 20.8818 -48.6406 32.3809 -78.167 32.3809c-29.5312 0 -57.291 -11.499 -78.1699 -32.3809zM256.001 68.2344
c14.3457 0 28.6904 -5.4707 39.6348 -16.418c0.417969 -0.416992 0.814453 -0.850586 1.2168 -1.28027l-40.8555 -40.7578l-40.749 40.8721c0.369141 0.389648 0.727539 0.785156 1.11035 1.16797c10.9492 10.9453 25.2949 16.416 39.6426 16.416z" />
    <glyph glyph-name="uniF110" unicode="&#xf110;" 
d="M152.967 194.092c-27.6367 27.6377 -42.8594 64.3867 -42.8594 103.471c0 39.0869 15.2227 75.835 42.8594 103.472l9.74805 9.74609l19.4961 -19.4951l-9.74609 -9.74805c-22.4336 -22.4277 -34.7871 -52.252 -34.7871 -83.9746
c0 -31.7217 12.3535 -61.5439 34.7852 -83.9736l9.74609 -9.74707l-19.4941 -19.4961zM135.247 176.371l9.74707 -9.74609l-19.4951 -19.4932l-9.74609 9.74609c-37.5801 37.5771 -58.2783 87.541 -58.2783 140.687c0 53.1445 20.6973 103.109 58.2764 140.689
l9.74805 9.74609l19.4951 -19.4951l-9.74609 -9.74805c-32.374 -32.3721 -50.2031 -75.4131 -50.2031 -121.194c0 -45.7803 17.8291 -88.8203 50.2021 -121.191zM187.86 228.981c-18.3203 18.3174 -28.4092 42.6738 -28.4092 68.5811s10.0879 50.2637 28.4111 68.582
l9.74609 9.74609l19.4941 -19.4941l-9.74805 -9.74707c-13.1133 -13.1113 -20.333 -30.5459 -20.333 -49.0869s7.22168 -35.9756 20.333 -49.085l9.74805 -9.74609l-19.4941 -19.4961zM374.32 297.562c0 31.7227 -12.3535 61.5469 -34.7861 83.9746l-9.74609 9.74805
l19.4932 19.4951l9.74805 -9.74609c27.6377 -27.6367 42.8594 -64.3848 42.8594 -103.472c0 -39.0859 -15.2217 -75.833 -42.8594 -103.471l-9.74805 -9.74609l-19.4932 19.4961l9.74609 9.74707c22.4326 22.4287 34.7861 52.252 34.7861 83.9736zM396.247 438.254
c37.5801 -37.5811 58.2764 -87.5469 58.2764 -140.691s-20.6963 -103.107 -58.2783 -140.687l-9.74609 -9.74609l-19.4951 19.4932l9.74805 9.74805c32.3721 32.3711 50.2012 75.4111 50.2012 121.191c0 45.7812 -17.8291 88.8223 -50.2031 121.194l-9.74609 9.74805
l19.4951 19.4951zM324.979 297.562c0 18.542 -7.21973 35.9756 -20.333 49.0879l-9.74805 9.74805l19.4961 19.4951l9.74609 -9.74512c18.3203 -18.3203 28.4092 -42.6768 28.4092 -68.584s-10.0889 -50.2637 -28.4092 -68.583l-9.74805 -9.74609l-19.4941 19.4961
l9.74805 9.74609c13.1113 13.1094 20.333 30.542 20.333 49.085zM323.955 -16.4072c23.5771 -10.8008 44.1289 -26.915 60.042 -47.5908h-256.001c15.918 20.6777 36.4678 36.79 60.0439 47.5908l49.459 275.495c-4.13574 2.02344 -7.95898 4.72852 -11.3105 8.08008
c-16.4404 16.4404 -16.4404 43.1816 -0.00390625 59.6201c7.96777 7.96484 18.5566 12.3359 29.8154 12.3359c11.2607 0 21.8496 -4.41309 29.8115 -12.375c16.4375 -16.4404 16.4375 -43.2422 0 -59.6807c-3.35254 -3.35547 -7.1748 -6.1709 -11.3135 -8.19531z
M256 206.173l-20.3828 -113.368h40.7656zM256.002 -1.21777c13.1182 0 25.8721 -1.54883 38.0898 -4.4668l-12.752 70.9189h-50.6797l-12.752 -70.9189c12.2188 2.91797 24.9736 4.4668 38.0938 4.4668z" />
    <glyph glyph-name="uniF11B" unicode="&#xf11b;" 
d="M256 448c141.385 0 256 -114.615 256 -256s-114.615 -256 -256 -256s-256 114.615 -256 256s114.615 256 256 256zM256 -35.3936c125.385 0 227.394 102.009 227.394 227.394s-102.009 227.394 -227.394 227.394s-227.394 -102.009 -227.394 -227.394
s102.009 -227.394 227.394 -227.394zM256 391.655c110.091 0 199.655 -89.5645 199.655 -199.655s-89.5645 -199.655 -199.655 -199.655s-199.655 89.5645 -199.655 199.655s89.5645 199.655 199.655 199.655zM272.648 72.04c9.4375 9.43457 9.4375 24.7285 0 34.168
c-4.71777 4.71875 -10.8994 7.07617 -17.084 7.07617c-6.18359 0 -12.3652 -2.35742 -17.085 -7.07617c-9.43359 -9.43848 -9.43359 -24.7334 0 -34.168c4.71973 -4.71973 10.9033 -7.07715 17.085 -7.07715c6.18262 0 12.3643 2.35742 17.084 7.07715zM324.39 124.606
c5.41602 5.41797 5.41602 14.1973 0 19.6162c-18.3828 18.3818 -42.8252 28.5059 -68.8252 28.5059c-25.999 0 -50.4375 -10.124 -68.8213 -28.5078c-5.41602 -5.41699 -5.41602 -14.1982 0.00195312 -19.6143c5.41406 -5.41406 14.1943 -5.41504 19.6123 0.00195312
c13.1426 13.1426 30.6182 20.3828 49.207 20.3828c18.5918 0 36.0684 -7.24023 49.2109 -20.3848c2.70801 -2.70801 6.25684 -4.06152 9.80762 -4.06152s7.09766 1.35547 9.80664 4.06152zM366.333 166.552c5.41602 5.41602 5.41602 14.1982 0.00390625 19.6143
c-29.5879 29.5869 -68.9238 45.8809 -110.769 45.8809c-41.8428 0 -81.1826 -16.2939 -110.769 -45.8809c-5.41602 -5.41699 -5.41602 -14.1963 0 -19.6143c2.70801 -2.70801 6.25684 -4.06152 9.80664 -4.06152c3.55078 0 7.09766 1.35547 9.80762 4.06152
c24.3467 24.3496 56.7207 37.7568 91.1523 37.7568c34.4336 0 66.8057 -13.4082 91.1523 -37.7568c5.41797 -5.41406 14.1973 -5.41602 19.6143 0zM398.421 204.389c3.54883 0 7.09961 1.35352 9.80957 4.06348c5.41699 5.41406 5.41699 14.1963 0.000976562 19.6123
c-40.7783 40.7783 -94.9941 63.2363 -152.665 63.2363c-57.6689 0 -111.889 -22.458 -152.665 -63.2363c-5.41602 -5.41699 -5.41602 -14.1982 0 -19.6143c5.41797 -5.41406 14.1963 -5.41406 19.6143 0c35.5381 35.54 82.79 55.1123 133.049 55.1123
c50.2598 0 97.5117 -19.5723 133.05 -55.1123c2.70801 -2.70801 6.25684 -4.06152 9.80664 -4.06152z" />
    <glyph glyph-name="uniF100" unicode="&#xf100;" 
d="M332.279 343.622c20.376 -20.376 31.5977 -47.4658 31.5957 -76.2764c0 -19.0068 -4.91016 -37.2461 -14.0801 -53.3203l-19.9121 22.2637c4.0791 9.70215 6.22754 20.2129 6.22754 31.0547c0 21.3984 -8.33301 41.5156 -23.4658 56.6465
c-15.1289 15.1289 -35.2461 23.4619 -56.6436 23.4619c-21.3965 0 -41.5166 -8.33105 -56.6504 -23.4619c-24.1621 -24.1689 -29.6133 -60.0596 -16.3828 -89.5332l-19.8955 -21.9229c-24.3789 41.3545 -18.8281 95.6064 16.6465 131.088
c20.3799 20.374 47.4707 31.5947 76.2842 31.5947c28.8145 0 55.9043 -11.2207 76.2764 -31.5947zM103.109 267.344c0 -32.4795 10.0908 -63.3916 28.7344 -89.2188l-19.0303 -20.9688c-24.2979 31.4414 -37.4688 69.8018 -37.4688 110.188
c0 48.2549 18.791 93.623 52.9111 127.744c34.124 34.1211 79.4922 52.9121 127.747 52.9121c48.2568 0 93.6221 -18.791 127.743 -52.916c34.123 -34.1191 52.916 -79.4854 52.916 -127.742c0 -40.0068 -12.9316 -78.0254 -36.7969 -109.299l-18.9336 21.1709
c18.1475 25.6074 27.9658 56.1035 27.9658 88.1279c0 40.8408 -15.9043 79.2334 -44.7842 108.11c-28.877 28.8809 -67.2705 44.7832 -108.11 44.7832c-40.8408 0 -79.2334 -15.9023 -108.112 -44.7812c-28.8789 -28.877 -44.7812 -67.2705 -44.7812 -108.11z
M436.848 75.042c1.30859 -4.88086 -0.178711 -10.2939 -4.21484 -13.9033c-2.64941 -2.37012 -6.02832 -3.49121 -9.32227 -3.49121c-3.8125 0 -7.75488 1.56152 -10.4961 4.62793l-37.6543 41.7773v-154.17c0 -7.66699 -5.6377 -13.8828 -13.3047 -13.8828h-213.441
c-7.66602 0 -14.46 6.21582 -14.46 13.8828v151.648l-35.4082 -39.332c-5.1543 -5.67969 -13.6445 -6.10156 -19.3213 -0.949219c-3.70312 3.36328 -5.15527 8.2666 -4.2959 12.8496c0.458008 2.44043 1.55957 4.78809 3.34863 6.76074l168.676 185.671
c1.65527 1.82617 3.74609 3.08398 6.04395 3.76953c1.35547 0.40625 2.78125 0.610352 4.23438 0.610352h0.0498047c1.83301 0 3.61816 -0.342773 5.27246 -0.992188c1.89648 -0.744141 3.62305 -1.89453 5.02344 -3.45996l166.22 -185.762
c1.50098 -1.67969 2.50781 -3.62109 3.05078 -5.65527z" />
    <glyph glyph-name="uniF10A" unicode="&#xf10a;" 
d="M413.185 249.224c7.60352 0 13.1953 -6.16504 13.1953 -13.7686v-201.357c0 -7.60352 -5.5918 -13.7686 -13.1953 -13.7686h-102.112v-56.793h29.8301c7.60352 0 13.7686 -6.16504 13.7686 -13.7686c0 -7.60254 -6.16504 -13.7676 -13.7686 -13.7676h-168.658
c-7.60352 0 -13.7686 6.16504 -13.7686 13.7676c0 7.60352 6.16504 13.7686 13.7686 13.7686h28.6836v56.793h-100.967c-7.60352 0 -14.3408 6.16504 -14.3408 13.7686v201.357c0 7.60352 6.7373 13.7686 14.3408 13.7686h313.224zM113.156 63.4746l249.292 158.213
h-249.292v-158.213zM235.345 300.675c0 14.3535 7.17644 21.5303 21.5293 21.5303c14.3535 0 21.5303 -7.17676 21.5303 -21.5303s-7.17676 -21.5303 -21.5303 -21.5303c-14.3529 0 -21.5293 7.17676 -21.5293 21.5303zM140.14 366.34
c-6.22461 4.36816 -7.72852 12.9541 -3.35938 19.1768c27.4609 39.126 72.3564 62.4834 120.096 62.4834c47.2832 0 91.9297 -23.0078 119.428 -61.5469c4.41797 -6.18848 2.98047 -14.7871 -3.20996 -19.2031c-6.18652 -4.42285 -14.79 -2.98047 -19.2031 3.20996
c-22.3418 31.3125 -58.6104 50.0039 -97.0146 50.0039c-38.7764 0 -75.2461 -18.9775 -97.5566 -50.7646c-2.67969 -3.81738 -6.94824 -5.86035 -11.2812 -5.86035c-2.7334 0 -5.49414 0.8125 -7.89844 2.50098zM309.241 330.141
c-10.5244 19.0996 -30.5879 30.9658 -52.3652 30.9658c-21.9395 0 -42.0752 -11.9941 -52.5488 -31.2998c-2.49414 -4.59863 -7.22852 -7.20801 -12.1143 -7.20801c-2.21875 0 -4.46777 0.539062 -6.55371 1.66992c-6.68457 3.62793 -9.16309 11.9844 -5.53809 18.667
c15.2959 28.1943 44.7061 45.707 76.7549 45.707c31.8125 0 61.1182 -17.3252 76.4814 -45.2148c3.66895 -6.66016 1.24414 -15.0322 -5.41406 -18.7021c-6.66016 -3.6709 -15.0332 -1.24609 -18.7021 5.41504z" />
    <glyph glyph-name="uniF11A" unicode="&#xf11a;" 
d="M334.216 132.957c-42.8994 -42.8994 -106.461 -52.5039 -158.64 -28.8633l59.0469 -168.094h-170.428l69.3223 197.364c-54.9131 55.3447 -54.7939 144.72 0.387695 199.902l90.3848 -90.3838l24.9463 24.9424c-0.689453 2.41699 -1.08203 4.95605 -1.08203 7.5918
c0 15.2646 12.3711 27.6377 27.6377 27.6377c15.2617 0 27.6367 -12.373 27.6367 -27.6377c0 -15.2637 -12.375 -27.6367 -27.6367 -27.6367c-2.30664 0 -4.5332 0.3125 -6.67285 0.844727l-25.2861 -25.2842zM393.73 394.757
c34.4688 -34.4717 54.0752 -80.4756 54.0742 -128.84h-27.6377c0.00195312 41.4551 -16.7266 80.0459 -45.9805 109.296c-29.249 29.25 -68.6699 45.1504 -110.125 45.1504v27.6367c50.0918 0.00195312 95.1973 -18.7744 129.669 -53.2432zM264.062 374.245
c29.3643 0.00195312 56.9404 -11.3105 77.4824 -31.8496c20.541 -20.541 32.4365 -47.8506 32.4346 -76.8965l-27.709 0.00292969c0.00195312 21.6631 -8.91309 42.0312 -24.2363 57.3506c-15.3193 15.3193 -35.5166 23.7559 -57.9717 23.7559v27.6367z" />
    <glyph glyph-name="uniF103" unicode="&#xf103;" 
d="M504.396 189.616c10.5176 -10.9346 10.0352 -28.3271 -0.901367 -38.8457c-10.9326 -10.5195 -28.4678 -10.1826 -38.9883 0.756836l-9.8623 9.95703v-223.807h-398.365v223.69l-9.4043 -9.95801c-5.38281 -5.53418 -12.248 -8.3125 -19.4033 -8.3125
c-6.90625 0 -13.8193 2.58789 -19.1592 7.78613c-10.874 10.582 -11.1094 27.9746 -0.527344 38.8486l249.718 256.59zM255.484 25.5547l30.3594 30.29c-8.3877 8.37207 -19.374 12.5586 -30.3613 12.5586c-10.9502 0 -21.8984 -4.16113 -30.2793 -12.4766zM320.68 90.6133
l19.4277 19.4277c-22.6035 22.6055 -52.6582 35.0537 -84.623 35.0537c-31.9678 0 -62.0215 -12.4482 -84.624 -35.0537l19.4277 -19.4258c17.4141 17.415 40.5664 27.0068 65.1963 27.0068c24.6279 0 47.7812 -9.5918 65.1953 -27.0088zM373.917 143.855l19.4248 19.4238
c-36.8213 36.8262 -85.7822 57.1064 -137.859 57.1064c-52.0791 0 -101.041 -20.2803 -137.865 -57.1045l19.4287 -19.4277c31.6357 31.6377 73.6963 49.0596 118.438 49.0596c44.7402 0 86.7998 -17.4219 118.433 -49.0576z" />
    <glyph glyph-name="uniF102" unicode="&#xf102;" 
d="M143.775 209.262c-3.52734 0 -7.05078 1.34473 -9.74219 4.03125c-30.8057 30.8076 -47.7734 71.7676 -47.7734 115.336c0 43.5674 16.9658 84.5283 47.7734 115.336c5.38184 5.37793 14.1016 5.37793 19.4834 0c5.37988 -5.38086 5.37988 -14.1016 0 -19.4834
c-25.6055 -25.6016 -39.7051 -59.6436 -39.7051 -95.8516s14.1016 -70.248 39.7051 -95.8496c5.37988 -5.37988 5.37988 -14.1025 0 -19.4834c-2.68945 -2.69043 -6.2168 -4.03516 -9.74121 -4.03516zM180.205 252.603c-20.3086 20.3086 -31.4932 47.3066 -31.4932 76.0273
s11.1846 55.7207 31.4932 76.0273c5.37988 5.37988 14.1016 5.37793 19.4814 -0.00195312c5.37988 -5.37891 5.37988 -14.1016 -0.000976562 -19.4814c-15.1045 -15.1025 -23.4219 -35.1836 -23.4219 -56.5439s8.31738 -41.4414 23.4219 -56.5439
c5.38086 -5.37988 5.38086 -14.1016 0.000976562 -19.4814c-2.68945 -2.69141 -6.2168 -4.03613 -9.74121 -4.03613c-3.52734 0 -7.05078 1.34473 -9.74023 4.03418zM358.561 232.78c52.8525 52.8496 52.8525 138.85 0 191.703c-5.37988 5.38184 -5.37988 14.1035 0 19.4834
c5.38379 5.37793 14.1035 5.375 19.4834 0c63.5947 -63.5957 63.5947 -167.074 0 -230.67c-2.68945 -2.69043 -6.21484 -4.03516 -9.74121 -4.03516c-3.52734 0 -7.05078 1.34668 -9.74219 4.03516c-5.37988 5.38086 -5.37988 14.1016 0 19.4834zM312.391 252.604
c-5.37988 5.37988 -5.37988 14.1016 0 19.4814c15.1045 15.1025 23.4219 35.1836 23.4219 56.5439s-8.31738 41.4414 -23.4219 56.5439c-5.38184 5.37988 -5.38184 14.1025 -0.00195312 19.4814c5.38379 5.38379 14.1074 5.37793 19.4834 0.00195312
c20.3086 -20.3076 31.4932 -47.3086 31.4932 -76.0273s-11.1846 -55.7188 -31.4932 -76.0273c-2.6875 -2.68945 -6.21484 -4.03418 -9.73926 -4.03418c-3.52734 0 -7.05078 1.34473 -9.74219 4.03613zM292.772 325.122c0 -20.2861 -36.7314 -74.8457 -36.7314 -74.8457
s-36.7344 54.5547 -36.7344 74.8457c0.00292969 20.2881 16.4473 36.7334 36.7344 36.7354c20.2881 -0.00195312 36.7314 -16.4453 36.7314 -36.7354zM407.078 69.6426c5.33008 -5.42969 5.17969 -14.1523 -0.25 -19.4834
c-2.68066 -2.63281 -6.24023 -3.94727 -9.72461 -3.94727c-3.56543 0 -7.27539 1.37793 -9.97168 4.12402l-19.7314 19.8008v-134.137h-84.3809v86.1035h-55.1064v-86.1035h-84.3809v133.9l-19.2168 -19.623c-5.3623 -5.39648 -13.7969 -5.42188 -19.1973 -0.0595703
c-5.39746 5.36426 -5.42285 14.085 -0.0605469 19.4834l151.874 152.82z" />
    <glyph glyph-name="uniF101" unicode="&#xf101;" 
d="M443.128 129.778c2.95215 -2.53809 4.81934 -6.29883 4.81934 -10.4941c0 -7.63867 -6.19238 -13.832 -13.833 -13.832h-0.0322266h-33.4287v-155.619c0 -7.63965 -5.61816 -13.833 -13.2578 -13.833h-74.9268v102.017c0 7.63965 -5.61816 13.833 -13.2568 13.833
h-86.4551c-7.63867 0 -14.4082 -6.19336 -14.4082 -13.833v-102.017h-73.7754c-7.63965 0 -14.4092 6.19336 -14.4092 13.833v155.619h-32.2764c-5.6543 0 -10.7383 3.43848 -12.8408 8.68457c-2.10254 5.24805 -0.801758 11.2461 3.28516 15.1504l179.251 171.181
c5.37402 5.13184 13.833 5.10156 19.1719 -0.0605469zM148.951 362.166c-8.10059 -8.10059 -21.2383 -8.10059 -29.3438 0c-8.10449 8.10449 -8.10449 21.2402 0 29.3447c36.4277 36.4287 84.8623 56.4893 136.377 56.4893s99.9473 -20.0605 136.374 -56.4893
c8.10254 -8.10449 8.10254 -21.2422 0 -29.3447c-4.0498 -4.05176 -9.36328 -6.07812 -14.6709 -6.07812c-5.31055 0 -10.6191 2.02539 -14.6719 6.07812c-28.5889 28.5918 -66.5996 44.3359 -107.031 44.3359s-78.4443 -15.7441 -107.033 -44.3359zM164.913 338.301
c24.3242 24.3271 56.667 37.7236 91.0693 37.7236c34.4043 0 66.7471 -13.3965 91.0723 -37.7236c8.10254 -8.10449 8.10254 -21.2402 0 -29.3447c-4.0498 -4.05078 -9.36328 -6.07715 -14.6719 -6.07715c-5.30957 0 -10.6182 2.02637 -14.6709 6.07715
c-16.4873 16.4893 -38.4102 25.5703 -61.7275 25.5703c-23.3164 0 -45.2402 -9.08105 -61.7266 -25.5703c-8.10352 -8.10254 -21.2393 -8.10254 -29.3447 0c-8.10449 8.10449 -8.10449 21.2422 0 29.3447z" />
    <glyph glyph-name="uniF104" unicode="&#xf104;" 
d="M453.336 249.231v-299.387c0 -7.64551 -6.19922 -13.8447 -13.8447 -13.8447h-173.056c-7.64551 0 -13.8447 6.19922 -13.8447 13.8447v299.387c0 7.64551 6.19922 13.8447 13.8447 13.8447h173.056c7.64551 0 13.8447 -6.19922 13.8447 -13.8447zM353.837 -49.917
c7.64551 0 13.8447 6.19531 13.8447 13.8447c0 7.64551 -6.19922 13.8447 -13.8447 13.8447s-13.8438 -6.19922 -13.8438 -13.8447c0 -7.64941 6.19824 -13.8447 13.8438 -13.8447zM280.279 25.6484l132.949 209.738h-132.949v-209.738zM191.271 292.447
c0 15.2552 7.62793 22.8828 22.8838 22.8828c15.2552 0 22.8828 -7.62759 22.8828 -22.8828c0 -15.2559 -7.62761 -22.8838 -22.8828 -22.8838c-15.2559 0 -22.8838 7.62793 -22.8838 22.8838zM164.763 410.607c-48.7197 -20.3545 -80.9014 -71.624 -78.2588 -124.68
c0.380859 -7.63672 -5.50293 -14.1367 -13.1387 -14.5176c-0.233398 -0.0117188 -0.466797 -0.0175781 -0.701172 -0.0175781c-7.32812 0 -13.4463 5.75488 -13.8145 13.1562c-3.21387 64.4941 35.9521 126.84 95.2412 151.607
c21.1367 8.82715 44.5791 12.8301 67.7617 11.6377c7.63574 -0.399414 13.5 -6.91309 13.1025 -14.5488c-0.400391 -7.63379 -6.90234 -13.4805 -14.5488 -13.1016c-19.0713 1 -38.3164 -2.29883 -55.6436 -9.53613zM219.542 356.939
c-18.2471 1.48633 -36.748 -5.79688 -50.7295 -19.9805c-13.874 -14.0752 -20.8359 -32.5059 -19.1016 -50.5654c0.730469 -7.61133 -4.84961 -14.3721 -12.46 -15.1045c-0.446289 -0.0410156 -0.894531 -0.0644531 -1.33789 -0.0644531
c-7.05078 0 -13.0781 5.36133 -13.7646 12.5244c-2.5166 26.2402 7.30273 52.7178 26.9443 72.6455c19.749 20.0361 46.2354 30.3037 72.6973 28.1426c7.62012 -0.620117 13.2939 -7.30176 12.6748 -14.9229c-0.621094 -7.62109 -7.26855 -13.2959 -14.9229 -12.6748z" />
    <glyph glyph-name="uniF119" unicode="&#xf119;" 
d="M399.337 248.732c0 -38.3008 -14.915 -74.3066 -41.999 -101.388l-19.5625 19.5615c21.8584 21.8545 33.8955 50.9141 33.8955 81.8262c0 30.9102 -12.0371 59.9668 -33.8955 81.8232c-21.8545 21.8584 -50.9141 33.8936 -81.8242 33.8936
s-59.9688 -12.0332 -81.8252 -33.8936c-45.1201 -45.1182 -45.1201 -118.529 0 -163.649l-19.5625 -19.5615c-55.9053 55.9053 -55.9053 146.869 0 202.774c27.084 27.084 63.0918 41.9961 101.389 41.9961c38.3008 0 74.3076 -14.9121 101.389 -41.9961
c27.0811 -27.083 41.9961 -63.0889 41.9961 -101.387zM134.609 127.388l-19.5615 -19.5615c-77.6943 77.6963 -77.6943 204.113 0 281.81c37.6367 37.6367 87.6787 58.3643 140.906 58.3643c53.2256 0 103.267 -20.7275 140.905 -58.3672
c37.6387 -37.6357 58.3652 -87.6758 58.3652 -140.9c0 -53.2266 -20.7266 -103.266 -58.3672 -140.906l-19.5605 19.5615c32.4121 32.4121 50.2627 75.5059 50.2627 121.345c0 45.8359 -17.8506 88.9297 -50.2627 121.342
c-32.4111 32.4111 -75.5049 50.2617 -121.343 50.2617c-45.8389 0 -88.9326 -17.8506 -121.345 -50.2637c-66.9082 -66.9072 -66.9082 -175.777 0 -242.685zM316.004 188.682l-19.5566 19.5615c10.8154 10.8135 16.7695 25.1914 16.7695 40.4863
c0 15.2979 -5.9541 29.6768 -16.7695 40.4893c-10.8164 10.8164 -25.1953 16.7734 -40.4912 16.7734c-15.2969 0 -29.6748 -5.95703 -40.4902 -16.7734c-10.8164 -10.8125 -16.7705 -25.1914 -16.7705 -40.4893c0 -15.2949 5.9541 -29.6729 16.7695 -40.4863
l-19.5605 -19.5615c-16.042 16.0391 -24.875 37.3652 -24.875 60.0479c0 22.6865 8.83496 44.0117 24.875 60.0518c16.0381 16.041 37.3652 24.875 60.0498 24.875s44.0117 -8.83496 60.0518 -24.875s24.873 -37.3652 24.873 -60.0518
c0 -22.6826 -8.83496 -44.0088 -24.875 -60.0479zM163.37 -21.5586l-19.498 -42.4414h-30.4307l142.344 310.622l146.278 -310.622h-30.5771l-44.5605 94.5645zM178.946 12.3232l136.091 43.3271l-19.9727 42.4141l-89.9482 -28.6338zM256.125 180.748l-35.4355 -77.3291
l62.4844 19.8936z" />
    <glyph glyph-name="uniF115" unicode="&#xf115;" 
d="M375.348 402.847c65.8105 -65.8115 65.8105 -172.894 0 -238.705l-29.3398 29.3398c49.6318 49.6328 49.6318 130.392 0 180.025zM136.648 402.847l29.3398 -29.3389c-49.6328 -49.6328 -49.6328 -130.392 0 -180.024l-29.3398 -29.3398
c-31.8809 31.8799 -49.4375 74.2666 -49.4375 119.352c0 45.084 17.5566 87.4717 49.4375 119.352zM420.503 448c43.9443 -43.9414 68.1455 -102.364 68.1475 -164.509c0 -62.1426 -24.2021 -120.565 -68.1455 -164.505l-29.3398 29.3398
c36.1084 36.1055 55.9932 84.1074 55.9932 135.167s-19.8848 99.0615 -55.9932 135.167zM120.831 418.66c-36.1045 -36.1035 -55.9883 -84.1074 -55.9883 -135.163c0 -51.0615 19.8838 -99.0645 55.9883 -135.167l-29.3398 -29.3398
c-43.9414 43.9395 -68.1396 102.362 -68.1396 164.505c0 62.1406 24.1982 120.563 68.1396 164.505zM300.687 238.81c-8.19434 -8.19434 -18.2461 -13.8633 -29.2031 -16.6084l70.958 -286.201h-172.304l70.9219 286.075c-11.167 2.69434 -21.4131 8.40332 -29.7432 16.7314
c-11.9355 11.9375 -18.5088 27.8066 -18.5088 44.6865s6.5752 32.749 18.5107 44.6816c11.9355 11.9355 27.8027 18.5088 44.6836 18.5088c16.8799 0 32.749 -6.57324 44.6846 -18.5107c24.6357 -24.6338 24.6377 -64.7217 0 -89.3633z" />
    <glyph glyph-name="uniF116" unicode="&#xf116;" 
d="M357.298 147.469l-19.5566 19.5557c21.8486 21.8467 33.8809 50.8936 33.8809 81.791c0 30.8965 -12.0322 59.9434 -33.8809 81.79c-21.8457 21.8477 -50.8926 33.8799 -81.79 33.8799c-30.8965 0 -59.9434 -12.0303 -81.79 -33.8799
c-45.1016 -45.0986 -45.1016 -118.48 0 -163.581l-19.5537 -19.5537c-55.8818 55.8818 -55.8818 146.809 0 202.69c27.0713 27.0703 63.0645 41.9775 101.345 41.9775c38.2852 0 74.2764 -14.9072 101.346 -41.9775c27.0693 -27.0713 41.9775 -63.0645 41.9775 -101.346
c0 -38.2842 -14.9082 -74.2754 -41.9775 -101.347zM134.661 127.524l-19.5537 -19.5537c-77.6592 77.6611 -77.6592 204.027 0 281.688c37.6211 37.6221 87.6426 58.3408 140.847 58.3408c53.2031 0 103.223 -20.7188 140.845 -58.3428
c37.623 -37.6191 58.3418 -87.6387 58.3418 -140.842c0 -53.2041 -20.7188 -103.224 -58.3438 -140.845l-19.5518 19.5537c32.3984 32.3984 50.2412 75.4736 50.2412 121.291c0 45.8164 -17.8428 88.8936 -50.2412 121.29
c-32.3975 32.3994 -75.4727 50.2422 -121.291 50.2422c-45.8193 0 -88.8945 -17.8428 -121.293 -50.2441c-66.8799 -66.8789 -66.8799 -175.7 0 -242.579zM283.413 198.842l117.608 -262.842h-30.2949l-19.332 43.207h-190.879l-19.334 -43.207h-30.2959l117.615 262.842
c-4.65918 2.56934 -8.9873 5.79785 -12.8516 9.66211c-22.2275 22.2295 -22.2275 58.3945 0 80.6182c10.7656 10.7656 25.0801 16.6953 40.3086 16.6953c15.2236 0 29.541 -5.92969 40.3076 -16.6953c22.2227 -22.2236 22.2236 -58.3887 0 -80.6162
c-3.86719 -3.86426 -8.19531 -7.09766 -12.8525 -9.66406zM255.648 191.816l-25.5332 -57.0664h51.6777l-25.5332 57.0664c-0.101562 0 -0.202148 -0.0078125 -0.303711 -0.0078125c-0.103516 0 -0.204102 0.0078125 -0.307617 0.0078125zM217.74 107.098l-13.9189 -31.1084
h104.266l-13.9209 31.1084h-76.4258zM172.887 6.8584h166.131l-18.5596 41.4785h-129.012z" />
    <glyph glyph-name="uniF113" unicode="&#xf113;" 
d="M507.963 277.86c5.38281 -5.38574 5.38281 -14.1133 -0.00195312 -19.4971c-2.69141 -2.68945 -6.2207 -4.03516 -9.74805 -4.03516c-3.5293 0 -7.05469 1.3457 -9.74805 4.03516c-62.0918 62.0957 -144.649 96.2949 -232.465 96.2949
c-87.8145 0 -170.373 -34.1992 -232.465 -96.2949c-5.38477 -5.38086 -14.1123 -5.37793 -19.498 0c-5.38281 5.38574 -5.38281 14.1113 0 19.4971c67.3037 67.3008 156.785 104.367 251.963 104.367c95.1807 0 184.661 -37.0645 251.963 -104.367zM256 249.158
c59.6328 0 115.697 -23.2236 157.867 -65.3936c6.72949 -6.73242 6.72949 -17.6406 -0.00195312 -24.3711c-3.36328 -3.3623 -7.77344 -5.0459 -12.1826 -5.0459c-4.41016 0 -8.81934 1.68359 -12.1846 5.0498c-35.6602 35.6592 -83.0684 55.2969 -133.496 55.2969
c-50.4297 0 -97.8418 -19.6387 -133.498 -55.2969c-6.72949 -6.73145 -17.6426 -6.73145 -24.3691 -0.00390625c-6.73145 6.73242 -6.73145 17.6406 -0.00195312 24.3711c42.167 42.1699 98.2324 65.3936 157.867 65.3936zM256 316.487
c77.6211 0 150.592 -30.2266 205.476 -85.1172c6.05762 -6.05566 6.05762 -15.876 -0.000976562 -21.9316c-3.02832 -3.0293 -6.99707 -4.54395 -10.9648 -4.54395c-3.96875 0 -7.9375 1.51465 -10.9668 4.54395c-49.0234 49.0273 -114.207 76.0293 -183.541 76.0293
c-69.335 0 -134.519 -27.002 -183.543 -76.0293c-6.05859 -6.05469 -15.876 -6.05469 -21.9346 0c-6.05762 6.05566 -6.05762 15.876 0 21.9346c54.8818 54.8877 127.855 85.1143 205.476 85.1143zM256 183.329c42.0508 0 81.5879 -16.376 111.32 -46.1162
c7.40332 -7.40527 7.40332 -19.4072 -0.00195312 -26.8076c-3.69922 -3.7002 -8.55176 -5.55078 -13.4014 -5.55078c-4.85059 0 -9.70117 1.85059 -13.4023 5.55371c-22.5762 22.5723 -52.5889 35.0088 -84.5146 35.0088s-61.9385 -12.4346 -84.5088 -35.0088
c-7.40332 -7.4043 -19.4053 -7.4082 -26.8076 -0.00292969c-7.40332 7.40039 -7.40527 19.4023 -0.00390625 26.8076c29.7324 29.7354 69.2676 46.1162 111.32 46.1162zM238.94 42.9551c9.42285 9.4209 24.6953 9.4209 34.1191 0
c9.4209 -9.42383 9.4209 -24.6963 0 -34.1211c-9.42383 -9.41699 -24.6963 -9.41699 -34.1191 0c-9.4209 9.4248 -9.4209 24.6973 0 34.1211zM191.129 90.7725c35.7695 35.7617 93.9746 35.7617 129.742 0c8.07715 -8.0752 8.0791 -21.166 0.00390625 -29.2441
c-4.03711 -4.03906 -9.33105 -6.05859 -14.623 -6.05859s-10.582 2.01953 -14.6201 6.05469c-19.6475 19.6445 -51.6143 19.6445 -71.2627 0c-8.07422 -8.07422 -21.166 -8.07129 -29.2441 0.00390625c-8.0752 8.07812 -8.07324 21.1689 0.00390625 29.2441z" />
    <glyph glyph-name="uniF114" unicode="&#xf114;" 
d="M256 373.021c96.7051 0 187.621 -37.6602 256 -106.041l-29.5137 -29.5137c-60.4961 60.498 -140.931 93.8164 -226.486 93.8164c-85.5537 0 -165.99 -33.3184 -226.486 -93.8164l-29.5137 29.5137c68.3789 68.3809 159.297 106.041 256 106.041zM77.9307 189.051
c47.5625 47.5664 110.807 73.7598 178.073 73.7598c67.2656 0 130.505 -26.1953 178.069 -73.7598l-29.5137 -29.5137c-39.6816 39.6836 -92.4404 61.5361 -148.558 61.5361c-56.1211 0 -108.879 -21.8545 -148.559 -61.5361zM155.865 111.113
c26.749 26.7471 62.3105 41.4785 100.139 41.4785c37.8252 0 73.3877 -14.7314 100.134 -41.4785l-29.5137 -29.5137c-18.8613 18.8643 -43.9414 29.2529 -70.6201 29.2529c-26.6777 0 -51.7598 -10.3877 -70.625 -29.2529zM231.653 35.3262
c0 16.2318 8.11621 24.3477 24.3486 24.3477c16.2324 3.8147e-06 24.3486 -8.11588 24.3486 -24.3477c0 -16.2324 -8.11621 -24.3486 -24.3486 -24.3486s-24.3486 8.11621 -24.3486 24.3486z" />
    <glyph glyph-name="uniF111" unicode="&#xf111;" 
d="M101.306 336.634c-38.6338 -38.6338 -59.9092 -89.998 -59.9092 -144.634c0 -54.6367 21.2754 -106 59.9111 -144.632l-29.2725 -29.2725c-46.4521 46.4502 -72.0352 108.212 -72.0352 173.904s25.583 127.454 72.0352 173.904zM141.674 306.616l29.2725 -29.2705
c-22.7988 -22.7959 -35.3525 -53.1064 -35.3525 -85.3457s12.5537 -62.5479 35.3525 -85.3438l-29.2725 -29.2725c-30.6162 30.6123 -47.4766 71.3193 -47.4766 114.616s16.8604 84.0039 47.4766 114.616zM439.965 365.904
c46.4521 -46.4502 72.0352 -108.214 72.0352 -173.906s-25.583 -127.452 -72.0352 -173.904l-29.2715 29.2725c38.6328 38.6318 59.9082 89.9961 59.9082 144.632c0 54.6367 -21.2734 106.002 -59.9082 144.634zM370.326 306.616
c30.6162 -30.6123 47.4766 -71.3193 47.4766 -114.616s-16.8604 -84.0039 -47.4766 -114.616l-29.2725 29.2725c22.7988 22.7939 35.3525 53.1025 35.3525 85.3438s-12.5537 62.5498 -35.3525 85.3457zM256.288 250.007c14.8438 0 29.6885 -5.66504 41.0146 -16.9922
c22.6494 -22.6523 22.6494 -59.376 0 -82.0312c-11.3262 -11.3271 -26.1709 -16.9922 -41.0146 -16.9922s-29.6885 5.66699 -41.0166 16.9922c-22.6494 22.6553 -22.6494 59.3789 0 82.0312c11.3281 11.3271 26.1709 16.9922 41.0166 16.9922zM268.032 180.256
c6.47168 6.47266 6.47168 17.0156 -0.000976562 23.4883c-4.2334 4.23145 -9.1748 4.86426 -11.7432 4.86426c-2.57031 0 -7.51367 -0.632812 -11.748 -4.86719c-6.47168 -6.47168 -6.47168 -17.0127 0.00488281 -23.4912
c4.22949 -4.22754 9.1748 -4.86035 11.7432 -4.86035c2.57031 0 7.51172 0.632812 11.7441 4.86621z" />
    <glyph glyph-name="uniF112" unicode="&#xf112;" 
d="M507.949 270.402c5.40137 -5.40234 5.40137 -14.1592 0.00195312 -19.5596c-2.7002 -2.70215 -6.24121 -4.05273 -9.78027 -4.05273c-3.54004 0 -7.07715 1.35059 -9.78027 4.05273c-62.0713 62.0732 -144.604 96.2607 -232.389 96.2607
c-87.7852 0 -170.316 -34.1895 -232.388 -96.2607c-5.40234 -5.40332 -14.1592 -5.39941 -19.5615 0c-5.40137 5.40234 -5.40137 14.1572 0 19.5596c67.2959 67.2969 156.773 104.361 251.947 104.361s184.651 -37.0645 251.949 -104.361zM256 297.888
c74.6387 0 144.812 -29.0654 197.59 -81.8428c5.40039 -5.40332 5.40039 -14.1582 0 -19.5605c-5.40234 -5.39844 -14.1572 -5.39844 -19.5605 0c-47.5527 47.5537 -110.779 73.7422 -178.029 73.7422c-67.2529 0 -130.479 -26.1885 -178.031 -73.7422
c-2.7002 -2.70215 -6.23926 -4.05176 -9.78027 -4.05176c-3.53906 0 -7.07812 1.34961 -9.78027 4.05176c-5.40039 5.39941 -5.40039 14.1572 0 19.5605c52.7783 52.7754 122.951 81.8428 197.592 81.8428zM255.998 222.549c54.5186 0 105.771 -21.2324 144.316 -59.7812
c5.40039 -5.40137 5.40039 -14.1592 -0.00195312 -19.5586c-2.69922 -2.70215 -6.23926 -4.05273 -9.77832 -4.05273c-3.54102 0 -7.07812 1.35059 -9.78027 4.05273c-33.3232 33.3252 -77.6299 51.6797 -124.758 51.6797s-91.4336 -18.3564 -124.757 -51.6797
c-5.40332 -5.39941 -14.1572 -5.39941 -19.5605 0c-5.40039 5.39941 -5.40039 14.1572 0 19.5596c38.5498 38.5479 89.8047 59.7803 144.319 59.7803zM255.998 146.443c34.1895 0 66.3301 -13.3154 90.501 -37.4912c5.40137 -5.40039 5.40137 -14.1592 -0.00195312 -19.5586
c-2.69824 -2.70215 -6.23926 -4.05176 -9.77832 -4.05176c-3.54004 0 -7.07715 1.34961 -9.7793 4.05176c-18.9502 18.9502 -44.1445 29.3867 -70.9434 29.3867c-26.7969 0 -51.9902 -10.4365 -70.9404 -29.3867c-5.40234 -5.40234 -14.1592 -5.39844 -19.5586 0
c-5.40234 5.40137 -5.40234 14.1592 -0.000976562 19.5586c24.1758 24.1777 56.3164 37.4912 90.502 37.4912zM256 64.5625c7.0791 0 14.1611 -2.7002 19.5596 -8.10059c10.8018 -10.8018 10.8018 -28.3203 0 -39.1191
c-5.40039 -5.40234 -12.4805 -8.10645 -19.5596 -8.10645s-14.1611 2.7041 -19.5615 8.10645c-10.8018 10.7988 -10.8018 28.3174 0 39.1191c5.40039 5.39844 12.4805 8.10059 19.5615 8.10059z" />
    <glyph glyph-name="uniF10D" unicode="&#xf10d;" 
d="M105.28 342.722c-40.2598 -40.2578 -62.4336 -93.7881 -62.4336 -150.723s22.1738 -110.461 62.4336 -150.721l-30.2979 -30.2979c-48.3535 48.3525 -74.9824 112.637 -74.9824 181.019s26.6289 132.668 74.9824 181.021zM153.926 294.072
c-27.2666 -27.2627 -42.2832 -63.5107 -42.2832 -102.071s15.0176 -74.8105 42.2832 -102.074l-30.2988 -30.2979c-35.3594 35.3545 -54.8311 82.3643 -54.8311 132.37s19.4717 97.0156 54.8311 132.372zM172.33 275.674l30.2979 -30.2949
c-14.2588 -14.2568 -22.1104 -33.2129 -22.1104 -53.376c0 -20.1611 7.85352 -39.1172 22.1084 -53.3711l-30.2939 -30.3018c-22.3506 22.3467 -34.6611 52.0625 -34.6611 83.6709s12.3076 61.3223 34.6592 83.6729zM437.018 373.02
c48.3535 -48.3525 74.9824 -112.643 74.9824 -181.022s-26.6289 -132.666 -74.9824 -181.019l-30.2979 30.2979c40.2598 40.2598 62.4336 93.7861 62.4336 150.723s-22.1738 110.463 -62.4336 150.723zM388.373 324.371c35.3594 -35.3564 54.8311 -82.3701 54.8311 -132.374
s-19.4717 -97.0137 -54.8311 -132.37l-30.2988 30.2988c27.2666 27.2646 42.2832 63.5127 42.2832 102.073s-15.0176 74.8105 -42.2832 102.073zM339.67 275.674c22.3496 -22.3506 34.6592 -52.0684 34.6592 -83.6768s-12.3096 -61.3223 -34.6611 -83.6709l-30.2939 30.3018
c14.2568 14.2559 22.1084 33.21 22.1084 53.3711c0 20.1631 -7.85352 39.1211 -22.1104 53.377zM256.001 231.322c10.0635 0 20.125 -3.83887 27.8008 -11.5176c15.3564 -15.3555 15.3564 -40.2471 0 -55.6074c-7.67676 -7.67676 -17.7373 -11.5137 -27.8008 -11.5137
s-20.124 3.83691 -27.8037 11.5137c-15.3555 15.3584 -15.3555 40.251 0 55.6074c7.67969 7.67871 17.7402 11.5176 27.8037 11.5176z" />
    <glyph glyph-name="uniF117" unicode="&#xf117;" 
d="M364.61 130.125c-13.1553 -13.1553 -28.29 -23.5986 -44.707 -31.1211c-2.36914 9.12305 -4.73047 18.2285 -7.05371 27.1709c11.7832 5.96777 22.6865 13.8047 32.2979 23.4141c49.1807 49.1777 49.1807 129.202 0 178.387
c-23.8252 23.8242 -55.502 36.9434 -89.1934 36.9434c-33.6934 0 -65.3701 -13.1191 -89.1963 -36.9443c-49.1787 -49.1816 -49.1787 -129.208 0.000976562 -178.386c9.6084 -9.60938 20.5137 -17.4443 32.2969 -23.4141
c-2.32129 -8.94238 -4.68262 -18.0479 -7.05078 -27.1709c-16.4238 7.52246 -31.5557 17.9668 -44.71 31.1211c-59.9111 59.9111 -59.9111 157.398 -0.00195312 217.313c29.0244 29.0244 67.6133 45.0059 108.66 45.0059c41.0439 0 79.6328 -15.9814 108.655 -45.0039
c59.9111 -59.917 59.9111 -157.404 0.00195312 -217.315zM403.893 386.723c39.5166 -39.5186 61.2773 -92.0596 61.2773 -147.943c0 -55.8848 -21.7607 -108.424 -61.2773 -147.94c-20.2881 -20.2861 -44.0146 -35.8818 -69.8584 -46.2676
c-2.26855 8.73145 -4.61035 17.7529 -6.98926 26.9082c21.1699 8.99902 40.6289 22.0693 57.3838 38.8232c34.3193 34.3174 53.2178 79.9434 53.2178 128.477c0 48.5312 -18.9004 94.1602 -53.2178 128.478c-34.3174 34.3193 -79.9434 53.2178 -128.476 53.2178
c-48.5332 0 -94.1621 -18.8984 -128.479 -53.2178c-70.8408 -70.8428 -70.8408 -186.111 0 -256.952c16.7568 -16.7549 36.2139 -29.8242 57.3848 -38.8232c-2.37793 -9.15723 -4.72266 -18.1777 -6.99023 -26.9082c-25.8428 10.3857 -49.5703 25.9805 -69.8584 46.2676
c-81.5723 81.5742 -81.5723 214.305 -0.00195312 295.88c39.5186 39.5166 92.0596 61.2793 147.944 61.2793c55.8838 0 108.423 -21.7627 147.939 -61.2773zM299.236 178.686c3.19531 2.31152 6.23828 4.88086 9.08203 7.72266
c13.9863 13.9863 21.6924 32.5869 21.6924 52.3691s-7.7041 38.3809 -21.6904 52.3672c-13.9863 13.9873 -32.585 21.6904 -52.3672 21.6904c-19.7842 0 -38.3818 -7.70215 -52.3682 -21.6885c-13.9863 -13.9883 -21.6904 -32.5869 -21.6904 -52.3691
s7.70215 -38.3809 21.6904 -52.3672c2.8418 -2.84375 5.88574 -5.41309 9.08008 -7.72461c-2.2793 -8.80176 -4.71875 -18.2236 -7.26367 -28.042c-7.68457 4.4248 -14.8467 9.86621 -21.2822 16.3037c-19.1855 19.1855 -29.752 44.6963 -29.752 71.832
c0 27.1367 10.5664 52.6465 29.7539 71.8311c19.1836 19.1855 44.6963 29.752 71.832 29.752c27.1348 0 52.6455 -10.5664 71.8311 -29.752c19.1855 -19.1846 29.7539 -44.6943 29.7539 -71.8311c0 -27.1357 -10.5684 -52.6465 -29.7539 -71.834
c-6.43555 -6.4375 -13.5996 -11.877 -21.2822 -16.2998c-2.5459 9.81738 -4.9873 19.2402 -7.26562 28.04zM291.158 203.573c-6.33496 -6.33594 -14.0811 -10.7432 -22.5283 -12.9521l67.0303 -254.621h-159.418l67.0293 254.621
c-8.44629 2.20703 -16.1914 6.61523 -22.5293 12.9521c-0.445312 0.446289 -0.867188 0.902344 -1.29199 1.35938c-18.0996 19.499 -17.6768 50.0879 1.29004 69.0566c9.40918 9.40527 21.9102 14.584 35.2109 14.584c13.2998 0 25.8018 -5.17871 35.2051 -14.582
c18.9688 -18.9756 19.3906 -49.5596 1.29004 -69.0615c-0.422852 -0.456055 -0.844727 -0.912109 -1.28809 -1.35645z" />
    <glyph glyph-name="uniF118" unicode="&#xf118;" 
d="M256.001 448c110.105 0 199.359 -89.2607 199.359 -199.362c0 -170.113 -199.359 -312.638 -199.359 -312.638s-199.363 145.881 -199.363 312.638c0 110.102 89.2559 199.362 199.363 199.362zM256.001 103.445c81.1445 0 146.923 65.7832 146.923 146.926
c0 81.1475 -65.7783 146.928 -146.923 146.928c-81.1484 0 -146.926 -65.7822 -146.926 -146.928c0 -81.1445 65.7793 -146.926 146.926 -146.926zM194.543 255.786c33.8848 33.8838 89.0205 33.8838 122.907 0c5.43945 -5.44043 5.43945 -14.2578 0 -19.6992
c-2.71973 -2.71973 -6.28418 -4.0791 -9.84961 -4.0791c-3.56641 0 -7.12891 1.35938 -9.85059 4.0791c-23.0234 23.0283 -60.4844 23.0215 -83.5107 0c-5.4375 -5.43945 -14.2568 -5.43945 -19.6982 0.00195312c-5.43848 5.43945 -5.43848 14.2578 0.00195312 19.6973z
M357.411 295.744c5.43945 -5.43945 5.43945 -14.2598 -0.00195312 -19.6973c-2.71777 -2.71973 -6.2832 -4.08008 -9.84766 -4.08008c-3.56641 0 -7.12793 1.36035 -9.84961 4.08203c-21.8252 21.8271 -50.8477 33.8477 -81.7129 33.8477
c-30.8691 0 -59.8887 -12.0205 -81.7158 -33.8496c-5.44141 -5.4375 -14.2588 -5.4375 -19.6992 0c-5.43945 5.44043 -5.43945 14.2578 0 19.6992c27.0889 27.0889 63.1064 42.0088 101.415 42.0088c38.3096 0 74.3232 -14.9199 101.412 -42.0107zM235.105 194.332
c0 13.9297 6.96452 20.8945 20.8936 20.8945c13.929 0 20.8936 -6.96484 20.8936 -20.8945c0 -13.929 -6.96451 -20.8936 -20.8936 -20.8936c-13.929 0 -20.8936 6.96452 -20.8936 20.8936z" />
    <glyph glyph-name="uniF11D" unicode="&#xf11d;" 
d="M241.668 140.687h-87.7227v18.7109c0 50.9756 39.5605 93.1338 87.7227 99.1953v-117.906zM153.945 113.166h201.246v-77.1934c0 -55.126 -44.2744 -99.9727 -99.4004 -99.9727h-1.30078c-55.126 0 -100.545 44.8467 -100.545 99.9727v77.1934zM269.188 258.373
c49.8818 -6.81836 86.0029 -48.5918 86.0029 -98.9756v-18.7109h-86.0029v117.687zM116.102 348.771c-5.28223 0 -10.5645 2.01465 -14.5947 6.0459c-8.06152 8.0625 -8.06152 21.1299 0 29.1914c41.2676 41.2637 96.1348 63.9912 154.496 63.9912
c58.3594 0 113.226 -22.7275 154.49 -63.9932c8.06152 -8.05957 8.06152 -21.1289 0 -29.1904c-8.06055 -8.0625 -21.1318 -8.05664 -29.1914 0c-33.4658 33.4688 -77.9668 51.9023 -125.299 51.9023c-47.3359 0 -91.8359 -18.4336 -125.307 -51.9023
c-4.02832 -4.03027 -9.31348 -6.04492 -14.5947 -6.04492zM343.825 284.161c-5.28223 0 -10.5645 2.0166 -14.5947 6.0459c-19.5586 19.5586 -45.5645 30.332 -73.2266 30.332c-27.6611 0 -53.667 -10.7734 -73.2256 -30.332
c-8.06055 -8.05957 -21.1279 -8.05957 -29.1914 0c-8.06152 8.0625 -8.06152 21.1299 0 29.1914c27.3555 27.3555 63.7285 42.4219 102.417 42.4219c38.6895 0 75.0615 -15.0664 102.418 -42.4219c8.06152 -8.06152 8.06152 -21.1289 0 -29.1914
c-4.03223 -4.0293 -9.31641 -6.0459 -14.5967 -6.0459z" />
    <glyph glyph-name="uniF10B" unicode="&#xf10b;" 
d="M273.623 149.603c-8.89844 -8.90234 -23.333 -8.90625 -32.2354 -0.00390625c-8.90137 8.89941 -8.89844 23.3369 0.00390625 32.2354c8.90234 8.90234 23.333 8.90234 32.2314 0c8.90234 -8.89844 8.89941 -23.3359 0 -32.2314zM326.168 205.769
c-5.80566 -4.93164 -14.5078 -4.22168 -19.4385 1.58105c-11.709 13.7822 -29.6475 21.6611 -49.2793 21.6611c-0.179688 0 -0.353516 -0.00195312 -0.53125 -0.00390625c-19.6875 -0.140625 -37.5723 -8.21973 -49.0732 -22.1572
c-2.72656 -3.30664 -6.6709 -5.01465 -10.6465 -5.01465c-3.08887 0 -6.19922 1.03223 -8.76758 3.15332c-5.875 4.84766 -6.70996 13.5391 -1.8623 19.4141c16.708 20.2539 42.2773 31.9873 70.1475 32.1895c28.0547 0.234375 53.915 -11.2373 71.0303 -31.3828
c4.93359 -5.80566 4.22559 -14.5078 -1.5791 -19.4404zM142.546 269.55c43.1689 47.6973 114.67 64.0176 173.874 39.7021c21.1074 -8.66797 40.4453 -22.3389 55.9277 -39.5332c5.09668 -5.65918 4.63965 -14.3809 -1.02051 -19.4785
c-5.66113 -5.09766 -14.3809 -4.63672 -19.4775 1.02051c-12.7314 14.1396 -28.6074 25.3691 -45.9102 32.4756c-48.6572 19.9863 -107.432 6.53711 -142.947 -32.6963c-2.7207 -3.00781 -6.46875 -4.53711 -10.2305 -4.53711c-3.29883 0 -6.60938 1.17773 -9.24805 3.56641
c-5.64453 5.11328 -6.0791 13.835 -0.967773 19.4805zM498.783 418.693c7.61621 0 13.2168 -6.1748 13.2168 -13.791v-343.058c0 -7.61621 -5.60059 -13.791 -13.2168 -13.791h-157.45v-55.165h16.0898c7.61621 0 13.791 -6.1748 13.791 -13.791
s-6.1748 -13.791 -13.791 -13.791h-201.697c-7.61621 0 -13.791 6.1748 -13.791 13.791s6.1748 13.791 13.791 13.791h16.665v55.165h-158.025c-7.61621 0 -14.3652 6.1748 -14.3652 13.791v343.058c0 7.61621 6.74902 13.791 14.3652 13.791h484.418zM484.418 75.6367
v315.475h-456.836v-315.475h456.836zM241.39 181.836c8.90234 8.90234 23.335 8.90234 32.2324 0c8.90234 -8.89844 8.89844 -23.3369 0 -32.2324c-8.89941 -8.90137 -23.333 -8.90527 -32.2354 -0.00292969c-8.90234 8.89844 -8.89941 23.3369 0.00292969 32.2354z
M152.766 246.505c-3.2998 0 -6.60938 1.17773 -9.24512 3.56836c-5.64941 5.11133 -6.08398 13.833 -0.970703 19.4785c43.168 47.6973 114.669 64.0156 173.873 39.7012c21.1074 -8.66895 40.4443 -22.3379 55.9287 -39.5322
c5.0957 -5.66016 4.63867 -14.3809 -1.02051 -19.4785c-5.66113 -5.09766 -14.3809 -4.6377 -19.4785 1.02051c-12.7314 14.1396 -28.6064 25.3691 -45.9092 32.4746c-48.6572 19.9873 -107.433 6.53711 -142.948 -32.6953
c-2.72168 -3.00781 -6.46777 -4.53711 -10.2295 -4.53711zM256.719 256.592c28.0547 0.234375 53.915 -11.2373 71.0322 -31.3838c4.93164 -5.80469 4.22363 -14.5088 -1.58105 -19.4395c-5.80664 -4.93164 -14.5088 -4.22168 -19.4385 1.58105
c-11.709 13.7822 -29.6484 21.6611 -49.2803 21.6611c-0.178711 0 -0.354492 -0.00195312 -0.530273 -0.00390625c-19.6875 -0.140625 -37.5732 -8.21777 -49.0732 -22.1572c-2.72656 -3.30664 -6.6709 -5.01465 -10.6465 -5.01465
c-3.08984 0 -6.19922 1.03223 -8.76758 3.15332c-5.875 4.84766 -6.70996 13.5391 -1.8623 19.4141c16.708 20.2539 42.2773 31.9873 70.1475 32.1895z" />
    <glyph glyph-name="uniF10C" unicode="&#xf10c;" 
d="M507.963 273.112c5.38281 -5.38477 5.38281 -14.1123 -0.00195312 -19.4961c-2.69141 -2.69141 -6.2207 -4.03711 -9.74805 -4.03711c-3.5293 0 -7.05469 1.3457 -9.74805 4.03711c-62.0918 62.0957 -144.649 96.292 -232.465 96.292
c-87.8145 0 -170.373 -34.1963 -232.465 -96.292c-5.38477 -5.38184 -14.1123 -5.38184 -19.498 0c-5.38281 5.38477 -5.38281 14.1113 0 19.4961c67.3037 67.2998 156.785 104.366 251.963 104.366c95.1807 0 184.661 -37.0645 251.963 -104.366zM256 240.965
c58.7129 0 113.912 -22.8672 155.429 -64.3857c5.38379 -5.38281 5.38379 -14.1113 -0.000976562 -19.4941c-2.69043 -2.69238 -6.21973 -4.03809 -9.74707 -4.03809c-3.5293 0 -7.05469 1.3457 -9.74805 4.03906c-36.3096 36.3135 -84.583 56.3096 -135.933 56.3096
s-99.627 -19.998 -135.935 -56.3096c-5.38477 -5.38477 -14.1133 -5.38281 -19.4941 -0.000976562c-5.38574 5.38281 -5.38574 14.1113 -0.00195312 19.4941c41.5166 41.5205 96.7158 64.3857 155.431 64.3857zM256 310.015c77.1592 0 149.699 -30.0469 204.256 -84.6104
c5.38281 -5.38379 5.38281 -14.1113 -0.00195312 -19.4951c-5.38086 -5.38477 -14.1094 -5.38281 -19.4941 0.00195312c-49.3496 49.3545 -114.965 76.5322 -184.76 76.5322s-135.41 -27.1777 -184.762 -76.5322c-2.69141 -2.69336 -6.2207 -4.03906 -9.74805 -4.03906
c-3.52832 0 -7.05469 1.3457 -9.74609 4.03711c-5.38477 5.38379 -5.38477 14.1113 -0.00195312 19.4951c54.5586 54.5615 127.1 84.6104 204.258 84.6104zM256 173.412c40.6709 0 78.9082 -15.8418 107.664 -44.6016
c5.38281 -5.38379 5.38281 -14.1113 -0.00195312 -19.4951c-5.38184 -5.38281 -14.1094 -5.38086 -19.4951 0.00195312c-23.5508 23.5527 -54.8623 36.5234 -88.1689 36.5234c-33.3057 0 -64.6182 -12.9707 -88.165 -36.5234
c-2.69043 -2.69336 -6.21973 -4.03906 -9.74902 -4.03906c-3.52734 0 -7.05469 1.3457 -9.74609 4.03711c-5.38477 5.38379 -5.38477 14.1113 -0.00195312 19.4951c28.7568 28.7617 66.9912 44.6016 107.664 44.6016zM241.37 21.1484
c0 9.75326 4.87663 14.6299 14.6299 14.6299c9.75327 0 14.6299 -4.87663 14.6299 -14.6299c0 -9.75326 -4.87662 -14.6299 -14.6299 -14.6299c-9.75325 4.76837e-07 -14.6299 4.87663 -14.6299 14.6299zM196.002 81.1504c33.085 33.0762 86.9141 33.0762 119.996 0
c5.38477 -5.38574 5.38477 -14.1133 0.00195312 -19.4961c-2.68945 -2.69336 -6.21875 -4.04004 -9.74805 -4.04004s-7.05273 1.34473 -9.74609 4.03809c-22.335 22.3311 -58.6768 22.3311 -81.0117 0c-5.38086 -5.38379 -14.1094 -5.38379 -19.4941 0.00195312
c-5.38281 5.38477 -5.38281 14.1123 0.00195312 19.4961z" />
    <glyph glyph-name="uniF107" unicode="&#xf107;" 
d="M471.2 104.942c7.61621 0 13.2178 -6.1748 13.2178 -13.791v-141.36c0 -7.61621 -5.60156 -13.791 -13.2178 -13.791h-429.252c-7.61621 0 -14.3662 6.1748 -14.3662 13.791v141.36c0 7.61621 6.75 13.791 14.3662 13.791h201.122v174.118
c-15.5146 5.72852 -28.5146 21.5664 -28.5146 40.2227c0 23.4844 19.2529 42.5215 42.7373 42.5215s42.3789 -19.0371 42.3789 -42.5215c0 -18.6562 -11.7793 -34.4941 -29.0186 -40.2227v-174.118h200.547zM315.475 46.3301h-118.949v-51.7168h118.949v51.7168z
M93.0908 46.3301v-51.7168h51.7168v51.7168h-51.7168zM418.909 -5.38672v51.7168h-51.7168v-51.7168h51.7168zM143.084 249.751v141.36h27.583v-141.36h-27.583zM87.9189 222.168v196.525h27.583v-196.525h-27.583zM27.582 192.862v255.138h27.583v-255.138h-27.583z
M343.058 249.751v141.36h27.582v-141.36h-27.582zM398.223 222.168v196.525h27.582v-196.525h-27.582zM456.835 192.862v255.138h27.583v-255.138h-27.583z" />
    <glyph glyph-name="uniF108" unicode="&#xf108;" 
d="M498.871 134.186c7.56543 0 13.1289 -5.32227 13.1289 -12.8877v-169.525c0 -7.56543 -5.56348 -14.5107 -13.1289 -14.5107h-484.602c-7.56543 0 -14.2695 6.94531 -14.2695 14.5107v169.525c0 7.56543 6.7041 12.8877 14.2695 12.8877h47.376v170.336
c0 15.1328 12.2656 27.3984 27.3984 27.3984c15.1318 0 27.3975 -12.2656 27.3975 -27.3984v-170.336h382.43zM426.951 15.9863c15.1328 0 27.3984 12.2666 27.3984 27.3984s-12.2656 27.3984 -27.3984 27.3984c-15.1318 0 -27.3975 -12.2666 -27.3975 -27.3984
s12.2656 -27.3984 27.3975 -27.3984zM275.883 305.664c0 40.04 -15.5918 77.6836 -43.9092 105.996c-8.02539 8.02539 -8.02539 21.0352 0 29.0605c8.02441 8.02441 21.0332 8.02441 29.0605 0c36.0762 -36.0732 55.9434 -84.0381 55.9434 -135.057
c0 -51.0166 -19.8682 -98.9824 -55.9434 -135.055c-4.00977 -4.0127 -9.27246 -6.01953 -14.5293 -6.01953c-5.25879 0 -10.5176 2.00684 -14.5293 6.01953c-8.02637 8.02539 -8.02637 21.0361 0 29.0605c28.3154 28.3125 43.9072 65.9531 43.9072 105.994zM179.28 215.475
c-8.02441 8.02441 -8.02441 21.0371 -0.00195312 29.0615c16.3301 16.3271 25.3232 38.0361 25.3232 61.1279c0 23.0928 -8.99316 44.8027 -25.3232 61.1299c-8.02539 8.02441 -8.02539 21.0352 0 29.0605c8.02441 8.02441 21.0332 8.02832 29.0615 0
c24.0889 -24.0879 37.3584 -56.1191 37.3584 -90.1904c0 -34.0693 -13.2695 -66.0996 -37.3584 -90.1895c-4.0127 -4.01172 -9.27246 -6.01855 -14.5303 -6.01855c-5.25879 0 -10.5166 2.00684 -14.5293 6.01855z" />
    <glyph glyph-name="uniF106" unicode="&#xf106;" 
d="M498.871 109.762c7.56543 0 13.1289 -6.13379 13.1289 -13.6992v-131.853c0 -7.56543 -5.56348 -13.6992 -13.1289 -13.6992h-484.602c-7.56543 0 -14.2695 6.13379 -14.2695 13.6992v131.853c0 7.56543 6.7041 13.6992 14.2695 13.6992h222.038v179.799
c0 11.3486 9.2002 20.5488 20.5488 20.5488c11.3477 0 20.5479 -9.2002 20.5479 -20.5488v-179.799h221.467zM87.0449 2.73828c15.1328 0 27.3984 12.2656 27.3984 27.3975c0 15.1328 -12.2656 27.3984 -27.3984 27.3984c-15.1318 0 -27.3975 -12.2656 -27.3975 -27.3984
c0 -15.1318 12.2656 -27.3975 27.3975 -27.3975zM169.239 2.73828c15.1318 0 27.3975 12.2656 27.3975 27.3975c0 15.1328 -12.2656 27.3984 -27.3975 27.3984c-15.1328 0 -27.3984 -12.2656 -27.3984 -27.3984c0 -15.1318 12.2656 -27.3975 27.3984 -27.3975z
M426.951 1.88184c15.1328 0 27.3984 12.2656 27.3984 27.3984c0 15.1318 -12.2656 27.3975 -27.3984 27.3975h-169.524c-6.84277 0 -13.083 -2.52344 -17.8848 -6.6709c-5.81836 -5.02441 -9.51367 -12.4375 -9.51367 -20.7266
c0 -15.1328 12.2656 -27.3984 27.3984 -27.3984h169.524zM441.127 292.415c0 40.042 -15.5918 77.6836 -43.9092 105.996c-8.02539 8.02637 -8.02539 21.0352 0 29.0605c8.02441 8.02246 21.0332 8.02246 29.0605 0c36.0752 -36.0723 55.9434 -84.0381 55.9434 -135.057
c0 -51.0166 -19.8682 -98.9814 -55.9434 -135.055c-4.00977 -4.01172 -9.27246 -6.01855 -14.5293 -6.01855c-5.25879 0 -10.5176 2.00684 -14.5293 6.01855c-8.02637 8.02637 -8.02637 21.0361 0 29.0605c28.3154 28.3125 43.9072 65.9541 43.9072 105.994z
M344.524 202.227c-8.02441 8.02441 -8.02441 21.0361 -0.000976562 29.0605c16.3291 16.3271 25.3223 38.0371 25.3223 61.1279c0 23.0938 -8.99316 44.8027 -25.3223 61.1299c-8.02637 8.02441 -8.02637 21.0352 0 29.0615c8.02344 8.02344 21.0322 8.02734 29.0605 0
c24.0898 -24.0879 37.3584 -56.1221 37.3584 -90.1914s-13.2695 -66.0986 -37.3584 -90.1885c-4.0127 -4.0127 -9.27246 -6.01953 -14.5303 -6.01953s-10.5166 2.00684 -14.5293 6.01953zM101.962 151.342c-5.25879 0 -10.5176 2.00684 -14.5312 6.01855
c-36.0762 36.0732 -55.9434 84.0381 -55.9434 135.055c0 51.0186 19.8682 98.9844 55.9434 135.057c8.02441 8.02246 21.0361 8.02246 29.0605 0c8.02441 -8.02539 8.02441 -21.0361 0 -29.0605c-28.3154 -28.3125 -43.9072 -65.9541 -43.9072 -105.996
c0 -40.0381 15.5928 -77.6816 43.9072 -105.994c8.02441 -8.02441 8.02441 -21.0342 0 -29.0605c-4.01074 -4.01172 -9.27051 -6.01855 -14.5293 -6.01855zM140.127 202.227c-24.0898 24.0898 -37.3584 56.1191 -37.3604 90.1885c0 34.0713 13.2686 66.1035 37.3584 90.1914
c8.02832 8.02539 21.0381 8.02246 29.0605 0c8.02637 -8.02637 8.02637 -21.0371 0 -29.0615c-16.3291 -16.3271 -25.3223 -38.0361 -25.3223 -61.1299c0 -23.0908 8.99316 -44.8008 25.3223 -61.1279c8.02637 -8.02441 8.02637 -21.0352 0 -29.0605
c-4.00977 -4.0127 -9.27051 -6.01953 -14.5293 -6.01953s-10.5156 2.00586 -14.5293 6.01953z" />
    <glyph glyph-name="uniF109" unicode="&#xf109;" 
d="M440.516 77.625c7.63086 0 13.2422 -6.95703 13.2422 -14.5879v-113.99c0 -7.63086 -5.61133 -13.0488 -13.2422 -13.0488h-367.879c-7.63086 0 -14.3926 5.41797 -14.3926 13.0488v113.99c0 7.63086 6.76172 14.5859 14.3926 14.5859h163.5v106.438
c-12.0898 7.40723 -20.7959 21.0762 -20.7959 36.7217c0 23.5293 19.2881 42.6016 42.8174 42.6016c23.5283 0 42.458 -19.0723 42.458 -42.6016c0 -16.3525 -9.20898 -30.5439 -23.0264 -37.6855v-105.473h162.926zM142.585 33.6768
c-15.2627 0 -27.6338 -12.3701 -27.6338 -27.6348c0 -15.2607 12.3711 -27.6338 27.6338 -27.6338s27.6348 12.373 27.6348 27.6338c0 15.2646 -12.3721 27.6348 -27.6348 27.6348zM158.796 313.867c26.5791 26.5791 61.918 41.2148 99.5059 41.2148
c37.5869 0 72.9258 -14.6357 99.5029 -41.2148c8.0957 -8.09668 8.0957 -21.2197 0 -29.3105c-4.04492 -4.04883 -9.35254 -6.07324 -14.6543 -6.07324c-5.30371 0 -10.6064 2.02441 -14.6553 6.07324c-18.749 18.748 -43.6748 29.0742 -70.1934 29.0742
c-26.5166 0 -51.4463 -10.3262 -70.1943 -29.0742c-8.09375 -8.09375 -21.2178 -8.09375 -29.3115 0c-8.09473 8.09277 -8.09473 21.2139 0 29.3105zM122.409 350.255c-8.09375 -8.0918 -21.2178 -8.0918 -29.3096 0c-8.0957 8.09668 -8.0957 21.2178 0 29.3105
c44.1279 44.1299 102.801 68.4346 165.205 68.4346c62.4053 0 121.075 -24.3047 165.202 -68.4346c8.09473 -8.09277 8.09473 -21.2178 0 -29.3105c-4.04492 -4.04492 -9.35254 -6.06934 -14.6543 -6.06934c-5.30469 0 -10.6084 2.02441 -14.6553 6.06934
c-36.2988 36.3008 -84.5586 56.2939 -135.893 56.2939s-99.5947 -19.9932 -135.896 -56.2939z" />
    <glyph glyph-name="uniF11C" unicode="&#xf11c;" 
d="M492.006 350.242c8.07227 -8.07422 8.07227 -21.1602 -0.00195312 -29.2344c-4.03418 -4.03613 -9.32715 -6.05469 -14.6152 -6.05469c-5.29004 0 -10.5791 2.01855 -14.6162 6.05469c-55.2275 55.2334 -128.661 85.6504 -206.77 85.6504
c-78.1104 0 -151.544 -30.417 -206.773 -85.6504c-8.07227 -8.07129 -21.1582 -8.07129 -29.2334 0c-8.07422 8.07422 -8.07422 21.1602 0 29.2344c63.0391 63.041 146.854 97.7578 236.007 97.7578c89.1514 0 172.966 -34.7188 236.003 -97.7578zM256.003 356.176
c64.624 0 125.379 -25.165 171.076 -70.8633c8.07324 -8.07324 8.07324 -21.1602 0 -29.2334c-4.03516 -4.03613 -9.32812 -6.05469 -14.6162 -6.05469c-5.29004 0 -10.5791 2.01855 -14.6162 6.05469c-37.8867 37.8877 -88.2617 58.7539 -141.843 58.7539
c-53.582 0 -103.957 -20.8662 -141.844 -58.7539c-8.07227 -8.07227 -21.1582 -8.07227 -29.2334 0c-8.07422 8.07324 -8.07422 21.1602 0 29.2334c45.6943 45.6982 106.45 70.8633 171.076 70.8633zM179.164 191.079
c-8.07422 -8.0752 -21.1621 -8.0752 -29.2363 -0.00292969c-8.07324 8.07324 -8.0752 21.1602 -0.00292969 29.2334c28.3311 28.335 66.002 43.9395 106.074 43.9395c40.0703 0 77.7432 -15.6045 106.078 -43.9375c8.07422 -8.07422 8.07422 -21.1602 0 -29.2344
c-4.03418 -4.03516 -9.32617 -6.05469 -14.6162 -6.05469s-10.5781 2.01953 -14.6162 6.05469c-20.5264 20.5264 -47.8154 31.8301 -76.8438 31.8301c-29.0273 0 -56.3164 -11.3037 -76.8369 -31.8281zM388.39 -42.542c1.47656 -2.19434 2.33594 -4.83496 2.33789 -7.67773
c0 -7.61035 -6.16895 -13.7803 -13.7812 -13.7803h-0.0341797h-243.971c-4.9248 0 -9.47266 2.625 -11.9355 6.89062c-2.46191 4.26465 -2.46191 9.51562 0.00195312 13.7803l121.984 211.281c2.46094 4.26465 7.01074 6.88965 11.9336 6.88965
c4.9248 0 9.47266 -2.625 11.9346 -6.88965zM239.924 106.533l-0.00195312 -86.1299c0 -7.61035 6.1709 -13.7812 13.7812 -13.7812s13.7803 6.1709 13.7803 13.7812v86.1279c0 1.50586 0.322266 2.95117 -0.124023 4.30664
c-0.592773 1.80762 -0.980469 3.44238 -2.21484 4.83203c-2.52344 2.84082 -6.27246 4.64258 -10.3721 4.64258c-4.0957 0 -7.91504 -1.79688 -10.4404 -4.63379c-1.24023 -1.39355 -2.51172 -3.03711 -3.10742 -4.85254
c-0.442383 -1.35254 -1.30078 -2.79199 -1.30078 -4.29297zM254.928 -34.8887c7.6084 0 13.7803 6.17188 13.7803 13.7812c0 7.6084 -6.17188 13.7803 -13.7803 13.7803s-13.7803 -6.17188 -13.7803 -13.7803c0 -7.60938 6.17188 -13.7812 13.7803 -13.7812z" />
    <glyph glyph-name="uniF105" unicode="&#xf105;" 
d="M498.871 78.9922c7.56543 0 13.1289 -6.13379 13.1289 -13.6992v-113.017c0 -7.56543 -5.56348 -13.6992 -13.1289 -13.6992h-484.602c-7.56543 0 -14.2695 6.13379 -14.2695 13.6992v113.017c0 7.56543 6.7041 13.6992 14.2695 13.6992h228.888v29.3975
c-39.3848 3.18555 -76.75 20.2539 -105.38 48.8838c-65.8115 65.8115 -65.5361 172.896 0.274414 238.71c31.8828 31.8809 74.2539 49.4395 119.341 49.4395c45.085 0 87.4365 -17.5586 119.317 -49.4414c31.8818 -31.8789 49.3682 -74.2676 49.3682 -119.354
c0 -45.085 -17.7012 -87.4727 -49.582 -119.354c-28.6309 -28.6299 -64.8438 -45.6982 -105.941 -48.8838v-29.3975h228.316zM72.4902 -18.6133c15.1318 0 27.3975 12.2656 27.3975 27.3975c0 15.1328 -12.2656 27.3984 -27.3975 27.3984
c-15.1328 0 -27.3984 -12.2656 -27.3984 -27.3984c0 -15.1318 12.2656 -27.3975 27.3984 -27.3975zM243.157 135.893l0.00195312 40.5625c-20.5488 2.93652 -41.6963 12.8496 -57.5244 28.6768c-39.4219 39.4229 -39.1465 103.566 0.274414 142.99
c19.0977 19.0986 44.4736 29.6162 71.4795 29.6162s52.3633 -10.5176 71.459 -29.6143c19.0967 -19.0977 29.5439 -44.4893 29.5439 -71.4971c0 -27.0068 -10.6611 -52.3984 -29.7578 -71.4951c-15.8271 -15.8271 -35.8174 -25.7383 -58.0791 -28.6768v-40.5625
c32.5352 3.11426 63.1084 17.3047 86.5576 40.7529c26.708 26.7061 41.6934 62.2119 41.6934 99.9805c0 37.7695 -14.7266 73.2754 -41.4346 99.9814c-26.7061 26.708 -62.25 41.416 -100.017 41.416s-73.3457 -14.7061 -100.054 -41.416
c-55.1289 -55.1279 -55.2705 -144.832 -0.142578 -199.961c23.4512 -23.4502 53.4639 -37.6406 85.999 -40.7539zM237.767 257.254c-10.6992 10.6982 -10.627 28.0479 0.0683594 38.749c10.6992 10.6992 28.1211 10.6992 38.8184 0
c10.7002 -10.6992 10.5576 -28.0488 -0.142578 -38.748c-1.73145 -1.72949 -2.53223 -3.15039 -5.95703 -4.32324v-48.7363c15.4111 2.70605 28.0625 9.67676 38.6963 20.3105c13.9229 13.9219 21.8682 32.4326 21.8682 52.1211
c0 19.6895 -7.68652 38.2002 -21.6104 52.1211c-13.9209 13.9219 -32.4658 21.5898 -52.1553 21.5898c-19.6885 0 -38.2715 -7.66602 -52.1963 -21.5898c-28.7373 -28.7383 -28.8789 -75.5029 -0.140625 -104.244c10.6377 -10.6348 24.4424 -17.6064 38.1416 -20.3115
v48.7354c-1.71289 1.17188 -3.65723 2.59277 -5.39062 4.32617z" />
  </font>
</defs>
</svg>
