<?xml version="1.0" standalone="no"?>
<!DOCTYPE svg PUBLIC "-//W3C//DTD SVG 1.1//EN" "http://www.w3.org/Graphics/SVG/1.1/DTD/svg11.dtd" >
<!--
2016-11-22: Created.
-->
<svg xmlns="http://www.w3.org/2000/svg">
<metadata>
Created by FontForge 20120731 at Tue Nov 22 08:43:25 2016
 By Apache
Created by Apache with FontForge 2.0 (http://fontforge.sf.net)
</metadata>
<defs>
<font id="Flaticon" horiz-adv-x="512" >
  <font-face 
    font-family="Flaticon"
    font-weight="500"
    font-stretch="normal"
    units-per-em="512"
    panose-1="2 0 6 3 0 0 0 0 0 0"
    ascent="448"
    descent="-64"
    bbox="-2.04636e-12 -64 512 448"
    underline-thickness="25.6"
    underline-position="-51.2"
    unicode-range="U+0020-F11D"
  />
    <missing-glyph />
    <glyph glyph-name="space" unicode=" " horiz-adv-x="200" 
 />
    <glyph glyph-name="uniF10C" unicode="&#xf10c;" 
d="M370.867 443.958c77.9453 0 141.133 -63.1875 141.133 -141.133c0 -33.8838 -11.9414 -64.9746 -31.8438 -89.3018l-224.156 -273.481l-224.156 273.481c-19.9023 24.3271 -31.8438 55.418 -31.8438 89.3018c0 77.9453 63.1875 141.133 141.133 141.133
c47.3594 0 89.2676 -23.3291 114.867 -59.1211c25.5996 35.792 67.5078 59.1211 114.867 59.1211z" />
    <glyph glyph-name="uniF116" unicode="&#xf116;" 
d="M0 -64v512h512v-512h-512z" />
    <glyph glyph-name="uniF11C" unicode="&#xf11c;" 
d="M512 262.439c0 -91.3584 -69.7227 -166.737 -158.752 -175.726v-56.7188h49.5303v-35.7461h-49.5303v-49.3125h-35.7471v49.3125h-49.5303v35.7461h49.5303v56.7188c-21.9229 2.21289 -42.6719 8.45898 -61.502 17.9727
c-18.8281 -9.5127 -39.5771 -15.7598 -61.501 -17.9727v-56.7188h49.5312v-35.7461h-49.5312v-49.3125h-35.7471v49.3125h-49.5303v35.7461h49.5303v56.7188c-89.0283 8.98828 -158.751 84.3672 -158.751 175.726c0 97.3906 79.2334 176.624 176.624 176.624
c28.5312 0 55.498 -6.80859 79.377 -18.8721c23.877 12.0635 50.8438 18.8721 79.375 18.8721c97.3906 0 176.624 -79.2334 176.624 -176.624zM176.624 121.561c15.2578 0 29.9531 2.44824 43.7256 6.95508c-37.6885 32.418 -61.5986 80.4287 -61.5986 133.924
c0 53.4941 23.9102 101.505 61.5986 133.923c-13.7725 4.50684 -28.4678 6.95508 -43.7256 6.95508c-77.6807 0 -140.878 -63.1982 -140.878 -140.878c0 -77.6807 63.1973 -140.879 140.878 -140.879zM317.502 262.439c0 48.2607 -24.3975 90.9258 -61.501 116.324
c-37.1055 -25.3984 -61.5029 -68.0635 -61.5029 -116.324c0 -48.2617 24.3975 -90.9268 61.5029 -116.325c37.1035 25.3984 61.501 68.0635 61.501 116.325zM353.249 262.439c0 -53.4951 -23.9102 -101.506 -61.5986 -133.924
c13.7725 -4.50684 28.4678 -6.95508 43.7256 -6.95508c77.6807 0 140.878 63.1982 140.878 140.879c0 77.6797 -63.1973 140.878 -140.878 140.878c-15.2598 0 -29.9531 -2.44824 -43.7256 -6.95508c37.6885 -32.418 61.5986 -80.4287 61.5986 -133.923z" />
    <glyph glyph-name="uniF112" unicode="&#xf112;" 
d="M418.676 213.405c-43.5039 0 -78.7695 -35.2666 -78.7695 -78.7705c0 -43.5029 35.2656 -78.7695 78.7695 -78.7695c12.958 0 25.1758 3.14941 35.959 8.69531v-128.561h-397.271v128.562c10.7822 -5.54492 22.999 -8.69531 35.959 -8.69531
c43.5029 0 78.7695 35.2666 78.7695 78.7695s-35.2666 78.7695 -78.7695 78.7695c-12.958 0 -25.1758 -3.14941 -35.959 -8.69531v128.561h128.562c-5.54492 10.7822 -8.69531 23 -8.69531 35.959c0 43.5039 35.2666 78.7695 78.7695 78.7695
s78.7695 -35.2656 78.7695 -78.7695c0 -12.958 -3.15039 -25.1758 -8.69531 -35.959h128.561v-128.562c-10.7822 5.54492 -23 8.69531 -35.959 8.69531z" />
    <glyph glyph-name="uniF102" unicode="&#xf102;" 
d="M255.994 279.209l105.497 -56.2637l99.3457 56.2637l-43.6602 -202.55h-322.354l-43.6602 202.55l99.3379 -56.2637zM98.4619 -18.9893v61.8906h315.076v-61.8906h-315.076zM0 357.979c0 30.0072 15.0036 45.0107 45.0107 45.0107
c30.0078 0 45.0117 -15.0036 45.0117 -45.0107c0 -30.0078 -15.0039 -45.0117 -45.0117 -45.0117c-30.0072 0 -45.0107 15.0039 -45.0107 45.0117zM421.979 357.979c0 30.0072 15.0036 45.0107 45.0107 45.0107s45.0107 -15.0036 45.0107 -45.0107
c0 -30.0078 -15.0036 -45.0117 -45.0107 -45.0117s-45.0107 15.0039 -45.0107 45.0117zM210.989 357.979c0 30.0072 15.0036 45.0107 45.0107 45.0107c30.0072 0 45.0107 -15.0036 45.0107 -45.0107c0 -30.0078 -15.0036 -45.0117 -45.0107 -45.0117
c-30.0072 0 -45.0107 15.0039 -45.0107 45.0117z" />
    <glyph glyph-name="uniF113" unicode="&#xf113;" 
d="M256 448c141.385 0 256 -114.615 256 -256s-114.615 -256 -256 -256s-256 114.615 -256 256s114.615 256 256 256zM341.537 283.163c-21.752 0 -39.3848 -17.6328 -39.3848 -39.3848s17.6328 -39.3848 39.3848 -39.3848c21.751 0 39.3838 17.6328 39.3838 39.3848
s-17.6328 39.3848 -39.3838 39.3848zM170.463 283.163c-21.751 0 -39.3838 -17.6328 -39.3838 -39.3848s17.6328 -39.3848 39.3838 -39.3848c21.752 0 39.3848 17.6328 39.3848 39.3848s-17.6328 39.3848 -39.3848 39.3848zM374.834 42.6885l31.6729 11.6787
c-23.1592 62.8135 -83.6445 105.016 -150.507 105.016s-127.348 -42.2021 -150.507 -105.016l31.6729 -11.6787c18.291 49.6064 66.0459 82.9365 118.834 82.9365s100.543 -33.3301 118.834 -82.9365z" />
    <glyph glyph-name="uniF104" unicode="&#xf104;" 
d="M143.493 435.3h225.014l-112.507 -153.307zM110.491 420.311l110.49 -150.56h-220.981zM512 269.751h-220.981l110.49 150.56zM238.263 -51.2998l-236.585 285.576h236.585v-285.576zM273.737 -51.2998v285.576h236.585z" />
    <glyph glyph-name="uniF109" unicode="&#xf109;" 
d="M0 448h512v-512h-512v512zM116.747 13.3623c21.752 0 39.3848 17.6338 39.3848 39.3848c0 21.752 -17.6328 39.3848 -39.3848 39.3848c-21.751 0 -39.3848 -17.6328 -39.3848 -39.3848c0 -21.751 17.6338 -39.3848 39.3848 -39.3848zM116.747 291.868
c21.752 0 39.3848 17.6328 39.3848 39.3848c0 21.751 -17.6328 39.3848 -39.3848 39.3848c-21.751 0 -39.3848 -17.6338 -39.3848 -39.3848c0 -21.752 17.6338 -39.3848 39.3848 -39.3848zM256 152.615c21.752 0 39.3848 17.6328 39.3848 39.3848
s-17.6328 39.3848 -39.3848 39.3848s-39.3848 -17.6328 -39.3848 -39.3848s17.6328 -39.3848 39.3848 -39.3848zM395.253 13.3623c21.751 0 39.3848 17.6338 39.3848 39.3848c0 21.752 -17.6338 39.3848 -39.3848 39.3848c-21.752 0 -39.3848 -17.6328 -39.3848 -39.3848
c0 -21.751 17.6328 -39.3848 39.3848 -39.3848zM395.253 291.868c21.751 0 39.3848 17.6328 39.3848 39.3848c0 21.751 -17.6338 39.3848 -39.3848 39.3848c-21.752 0 -39.3848 -17.6338 -39.3848 -39.3848c0 -21.752 17.6328 -39.3848 39.3848 -39.3848z" />
    <glyph glyph-name="uniF10A" unicode="&#xf10a;" 
d="M0 448h512v-512h-512v512zM116.747 13.3623c21.752 0 39.3848 17.6338 39.3848 39.3848c0 21.752 -17.6328 39.3848 -39.3848 39.3848c-21.751 0 -39.3848 -17.6328 -39.3848 -39.3848c0 -21.751 17.6338 -39.3848 39.3848 -39.3848zM116.747 152.615
c21.752 0 39.3848 17.6328 39.3848 39.3848s-17.6328 39.3848 -39.3848 39.3848c-21.751 0 -39.3848 -17.6328 -39.3848 -39.3848s17.6338 -39.3848 39.3848 -39.3848zM116.747 291.868c21.752 0 39.3848 17.6328 39.3848 39.3848
c0 21.751 -17.6328 39.3848 -39.3848 39.3848c-21.751 0 -39.3848 -17.6338 -39.3848 -39.3848c0 -21.752 17.6338 -39.3848 39.3848 -39.3848zM395.253 13.3623c21.751 0 39.3848 17.6338 39.3848 39.3848c0 21.752 -17.6338 39.3848 -39.3848 39.3848
c-21.752 0 -39.3848 -17.6328 -39.3848 -39.3848c0 -21.751 17.6328 -39.3848 39.3848 -39.3848zM395.253 152.615c21.751 0 39.3848 17.6328 39.3848 39.3848s-17.6338 39.3848 -39.3848 39.3848c-21.752 0 -39.3848 -17.6328 -39.3848 -39.3848
s17.6328 -39.3848 39.3848 -39.3848zM395.253 291.868c21.751 0 39.3848 17.6328 39.3848 39.3848c0 21.751 -17.6338 39.3848 -39.3848 39.3848c-21.752 0 -39.3848 -17.6338 -39.3848 -39.3848c0 -21.752 17.6328 -39.3848 39.3848 -39.3848z" />
    <glyph glyph-name="uniF106" unicode="&#xf106;" 
d="M0 448h512v-512h-512v512zM116.747 13.3623c21.752 0 39.3848 17.6338 39.3848 39.3848c0 21.752 -17.6328 39.3848 -39.3848 39.3848c-21.751 0 -39.3848 -17.6328 -39.3848 -39.3848c0 -21.751 17.6338 -39.3848 39.3848 -39.3848zM395.253 291.868
c21.751 0 39.3848 17.6328 39.3848 39.3848c0 21.751 -17.6338 39.3848 -39.3848 39.3848c-21.752 0 -39.3848 -17.6338 -39.3848 -39.3848c0 -21.752 17.6328 -39.3848 39.3848 -39.3848z" />
    <glyph glyph-name="uniF107" unicode="&#xf107;" 
d="M0 448h512v-512h-512v512zM116.747 13.3623c21.752 0 39.3848 17.6338 39.3848 39.3848c0 21.752 -17.6328 39.3848 -39.3848 39.3848c-21.751 0 -39.3848 -17.6328 -39.3848 -39.3848c0 -21.751 17.6338 -39.3848 39.3848 -39.3848zM256 152.615
c21.752 0 39.3848 17.6328 39.3848 39.3848s-17.6328 39.3848 -39.3848 39.3848s-39.3848 -17.6328 -39.3848 -39.3848s17.6328 -39.3848 39.3848 -39.3848zM395.253 291.868c21.751 0 39.3848 17.6328 39.3848 39.3848c0 21.751 -17.6338 39.3848 -39.3848 39.3848
c-21.752 0 -39.3848 -17.6338 -39.3848 -39.3848c0 -21.752 17.6328 -39.3848 39.3848 -39.3848z" />
    <glyph glyph-name="uniF108" unicode="&#xf108;" 
d="M0 448h512v-512h-512v512zM116.747 13.3623c21.752 0 39.3848 17.6338 39.3848 39.3848c0 21.752 -17.6328 39.3848 -39.3848 39.3848c-21.751 0 -39.3848 -17.6328 -39.3848 -39.3848c0 -21.751 17.6338 -39.3848 39.3848 -39.3848zM116.747 291.868
c21.752 0 39.3848 17.6328 39.3848 39.3848c0 21.751 -17.6328 39.3848 -39.3848 39.3848c-21.751 0 -39.3848 -17.6338 -39.3848 -39.3848c0 -21.752 17.6338 -39.3848 39.3848 -39.3848zM395.253 13.3623c21.751 0 39.3848 17.6338 39.3848 39.3848
c0 21.752 -17.6338 39.3848 -39.3848 39.3848c-21.752 0 -39.3848 -17.6328 -39.3848 -39.3848c0 -21.751 17.6328 -39.3848 39.3848 -39.3848zM395.253 291.868c21.751 0 39.3848 17.6328 39.3848 39.3848c0 21.751 -17.6338 39.3848 -39.3848 39.3848
c-21.752 0 -39.3848 -17.6338 -39.3848 -39.3848c0 -21.752 17.6328 -39.3848 39.3848 -39.3848z" />
    <glyph glyph-name="uniF105" unicode="&#xf105;" 
d="M0 448h512v-512h-512v512zM256 152.615c21.752 0 39.3848 17.6328 39.3848 39.3848s-17.6328 39.3848 -39.3848 39.3848s-39.3848 -17.6328 -39.3848 -39.3848s17.6328 -39.3848 39.3848 -39.3848z" />
    <glyph glyph-name="uniF115" unicode="&#xf115;" 
d="M256 65.4062c-44.7002 0 -85.792 23.8975 -108.439 61.3438h216.879c-22.6475 -37.4463 -63.7393 -61.3438 -108.439 -61.3438zM256 448c141.385 0 256 -114.615 256 -256s-114.615 -256 -256 -256s-256 114.615 -256 256s114.615 256 256 256zM341.537 283.163
c-21.752 0 -39.3848 -17.6328 -39.3848 -39.3848s17.6328 -39.3848 39.3848 -39.3848c21.751 0 39.3838 17.6328 39.3838 39.3848s-17.6328 39.3848 -39.3838 39.3848zM170.463 283.163c-21.751 0 -39.3838 -17.6328 -39.3838 -39.3848s17.6328 -39.3848 39.3838 -39.3848
c21.752 0 39.3848 17.6328 39.3848 39.3848s-17.6328 39.3848 -39.3848 39.3848zM407.55 139.491v21.0166h-303.099v-21.0166l1.04199 -2.82812c23.1592 -62.8125 83.6445 -105.015 150.507 -105.015s127.348 42.2021 150.508 105.015z" />
    <glyph glyph-name="uniF111" unicode="&#xf111;" 
d="M320 192c0 -94.7393 51.5039 -177.397 128 -221.667c-37.6631 -21.7949 -81.3555 -34.333 -128 -34.333c-141.385 0 -256 114.615 -256 256s114.615 256 256 256c46.6445 0 90.3369 -12.5381 128 -34.333c-76.4961 -44.2695 -128 -126.928 -128 -221.667z" />
    <glyph glyph-name="uniF118" unicode="&#xf118;" 
d="M477.702 320l-78.2061 -128l78.2061 -128l-149.954 3.72949l-71.748 -131.729l-71.748 131.729l-149.954 -3.72949l78.2061 128l-78.2061 128l149.954 -3.72949l71.748 131.729l71.748 -131.729z" />
    <glyph glyph-name="uniF10F" unicode="&#xf10f;" 
d="M468.336 309.696l-0.104492 63.6621l-85.2725 -85.2734c69.1328 -84.6582 64.2471 -209.986 -14.6611 -288.895c-40.749 -40.749 -94.9287 -63.1904 -152.555 -63.1904s-111.804 22.4414 -152.553 63.1904s-63.1904 94.9268 -63.1904 152.555
c0 57.627 22.4414 111.806 63.1914 152.554c40.749 40.75 94.9258 63.1924 152.554 63.1924c50.2861 0 97.9453 -17.0928 136.348 -48.5234l85.2656 85.2646l-63.6641 0.103516l0.0712891 43.6641l138.011 -0.224609l0.223633 -138.008zM337.425 30.0654
c67.0938 67.0938 67.0938 176.264 0.000976562 243.359c-32.5029 32.502 -75.7158 50.4014 -121.681 50.4014s-89.1777 -17.8994 -121.68 -50.4014s-50.4014 -75.7148 -50.4014 -121.68c0 -45.9658 17.8994 -89.1777 50.4014 -121.68s75.7119 -50.4014 121.678 -50.4014
c45.9668 0 89.1797 17.8994 121.682 50.4014z" />
    <glyph glyph-name="uniF11A" unicode="&#xf11a;" 
d="M256 126.75c16.9121 0 30.6719 -13.7598 30.6719 -30.6719s-13.7598 -30.6719 -30.6719 -30.6719s-30.6719 13.7598 -30.6719 30.6719s13.7598 30.6719 30.6719 30.6719zM256 448c141.385 0 256 -114.615 256 -256s-114.615 -256 -256 -256s-256 114.615 -256 256
s114.615 256 256 256zM131.079 243.778c0 -21.752 17.6328 -39.3848 39.3838 -39.3848c21.752 0 39.3848 17.6328 39.3848 39.3848s-17.6328 39.3848 -39.3848 39.3848c-21.751 0 -39.3838 -17.6328 -39.3838 -39.3848zM256 31.6484
c35.5264 0 64.4297 28.9033 64.4297 64.4297s-28.9033 64.4297 -64.4297 64.4297c-35.5273 0 -64.4297 -28.9033 -64.4297 -64.4297s28.9023 -64.4297 64.4297 -64.4297zM341.537 204.394c21.751 0 39.3838 17.6328 39.3838 39.3848s-17.6328 39.3848 -39.3838 39.3848
c-21.752 0 -39.3848 -17.6328 -39.3848 -39.3848s17.6328 -39.3848 39.3848 -39.3848z" />
    <glyph glyph-name="uniF101" unicode="&#xf101;" 
d="M0 192c-1.52588e-05 170.667 85.3333 256 256 256c170.667 0 256 -85.3333 256 -256c0 -170.667 -85.3333 -256 -256 -256c-170.667 0 -256 85.3333 -256 256z" />
    <glyph glyph-name="uniF11D" unicode="&#xf11d;" 
d="M204.234 342.864c2.24023 8.81836 4.68652 17.2461 7.33984 25.209c15.6436 46.9277 33.708 63.5801 44.4248 63.5801c10.7178 0 28.7832 -16.6523 44.4258 -63.5801c2.6543 -7.96191 5.09961 -16.3906 7.34082 -25.209
c-16.876 -3.73047 -34.2227 -5.66309 -51.7646 -5.66309c-17.5439 0 -34.8906 1.93262 -51.7666 5.66309zM314.86 309.783c5.50391 -30.8652 8.77051 -65.1006 9.55664 -100.867h-136.833c0.786133 35.7666 4.05371 70.001 9.55664 100.867
c19.1914 -4.22656 38.915 -6.41602 58.8604 -6.41602c19.9443 0 39.668 2.19043 58.8594 6.41602zM340.22 352.479c-2.35547 9.16992 -4.91992 17.959 -7.69727 26.292c-10.8486 32.5439 -23.1445 53.4111 -35.3691 66.4971
c42.9297 -6.92188 82.29 -24.4932 115.291 -49.9209c-21.54 -18.582 -46.0117 -33.0283 -72.2246 -42.8682zM197.14 74.2168c-5.50488 30.8662 -8.77051 65.1006 -9.55664 100.867h136.832c-0.785156 -35.7666 -4.05273 -70.001 -9.55566 -100.867
c-19.1914 4.22656 -38.915 6.41602 -58.8604 6.41602c-19.9443 0 -39.667 -2.19043 -58.8594 -6.41602zM179.478 378.771c-2.77734 -8.33301 -5.3418 -17.1221 -7.69727 -26.292c-26.2129 9.83984 -50.6846 24.2861 -72.2246 42.8682
c33.001 25.4277 72.3604 42.999 115.291 49.9209c-12.2256 -13.0859 -24.5205 -33.9531 -35.3691 -66.4971zM307.766 41.1367c-2.24121 -8.81836 -4.6875 -17.2471 -7.33984 -25.209c-15.6436 -46.9277 -33.708 -63.5791 -44.4248 -63.5791
c-10.7178 0 -28.7822 16.6514 -44.4258 63.5791c-2.6543 7.96289 -5.09961 16.3906 -7.34082 25.209c16.877 3.73047 34.2236 5.66309 51.7666 5.66309c17.542 0 34.8887 -1.93262 51.7646 -5.66309zM347.522 64.8721c6.22949 33.7441 9.90527 71.1953 10.7314 110.212
h153.746c-4.15332 -63.79 -31.6074 -121.223 -73.9502 -163.862l-1.1748 1.03516c-26.3838 23.2842 -56.75 41.0381 -89.3525 52.6152zM164.476 319.129c-6.22852 -33.7451 -9.90527 -71.1963 -10.7305 -110.212h-153.745c4.15332 63.791 31.6055 121.222 73.9492 163.861
l1.17383 -1.03516c26.3848 -23.2832 56.751 -41.0371 89.3525 -52.6143zM332.522 5.22949c2.77734 8.33203 5.3418 17.1211 7.69727 26.292c26.2129 -9.83984 50.6846 -24.2852 72.2246 -42.8682c-33.002 -25.4277 -72.3613 -42.998 -115.291 -49.9209
c12.2256 13.0859 24.5205 33.9531 35.3691 66.4971zM358.254 208.917c-0.826172 39.0156 -4.50195 76.4668 -10.7324 110.212c32.6025 11.5781 62.9688 29.3311 89.3525 52.6152l1.1748 1.03516c42.3428 -42.6396 69.7969 -100.071 73.9502 -163.862h-153.745z
M171.779 31.5205c2.35645 -9.16992 4.9209 -17.959 7.69727 -26.292c10.8477 -32.5439 23.1445 -53.4111 35.3691 -66.4971c-42.9297 6.92188 -82.2891 24.4932 -115.291 49.9209c21.54 18.582 46.0117 33.0283 72.2246 42.8682zM153.745 175.084
c0.825195 -39.0156 4.50195 -76.4678 10.7305 -110.212c-32.6016 -11.5762 -62.9678 -29.3311 -89.3525 -52.6143l-1.17383 -1.03516c-42.3438 42.6387 -69.7959 100.071 -73.9492 163.861h153.745z" />
    <glyph glyph-name="uniF103" unicode="&#xf103;" 
d="M273.236 168.74l196.949 124.019l-0.000976562 -232.74l-196.948 -124.019v232.74zM255.999 448l198.013 -124.688l-198.013 -124.688l-198.011 124.688zM41.8145 60.0186v232.74l196.948 -124.019v-232.74z" />
    <glyph glyph-name="uniF117" unicode="&#xf117;" 
d="M512 249.476l-116.146 -128.619l18.3633 -172.324l-158.217 70.7158l-158.217 -70.7158l18.3633 172.324l-116.146 128.619l169.566 35.7852l86.4336 150.207l86.4336 -150.207z" />
    <glyph glyph-name="uniF10D" unicode="&#xf10d;" 
d="M414.921 344.484l-0.078125 47.6475l-63.8721 -63.8721c22.7285 -27.8262 36.3809 -63.3398 36.3809 -101.987c0 -83.5234 -63.7422 -152.438 -145.137 -160.654v-51.8555h45.2832v-32.6807h-45.2832v-45.082h-32.6807v45.083h-45.2832v32.6807h45.2832v51.8555
c-81.3936 8.2168 -145.137 77.1309 -145.137 160.654c0 89.0391 72.4385 161.478 161.478 161.478c38.6475 0 74.1611 -13.6533 101.987 -36.3818l63.8721 63.873l-47.6484 0.0771484l0.0527344 32.6807l103.295 -0.167969l0.167969 -103.294zM225.876 97.4775
c71.0186 0 128.796 57.7773 128.796 128.796s-57.7773 128.797 -128.796 128.797s-128.797 -57.7783 -128.797 -128.797s57.7783 -128.796 128.797 -128.796z" />
    <glyph glyph-name="uniF114" unicode="&#xf114;" 
d="M256 448c141.385 0 256 -114.615 256 -256s-114.615 -256 -256 -256s-256 114.615 -256 256s114.615 256 256 256zM341.537 283.163c-21.752 0 -39.3848 -17.6328 -39.3848 -39.3848s17.6328 -39.3848 39.3848 -39.3848c21.751 0 39.3838 17.6328 39.3838 39.3848
s-17.6328 39.3848 -39.3838 39.3848zM170.463 283.163c-21.751 0 -39.3838 -17.6328 -39.3838 -39.3848s17.6328 -39.3848 39.3838 -39.3848c21.752 0 39.3848 17.6328 39.3848 39.3848s-17.6328 39.3848 -39.3848 39.3848zM256 31.6484
c66.8643 0 127.349 42.2021 150.508 105.017l-31.6738 11.6777c-18.291 -49.6064 -66.0459 -82.9365 -118.834 -82.9365s-100.543 33.3301 -118.834 82.9365l-31.6738 -11.6777c23.1592 -62.8145 83.6436 -105.017 150.508 -105.017z" />
    <glyph glyph-name="uniF100" unicode="&#xf100;" 
d="M430.343 270.367l-348.686 -334.367l111.627 256h-111.627l111.627 256h202.888l-77.4561 -177.633h111.627z" />
    <glyph glyph-name="uniF10E" unicode="&#xf10e;" 
d="M256 448c141.385 0 256 -114.615 256 -256s-114.615 -256 -256 -256s-256 114.615 -256 256s114.615 256 256 256zM341.537 283.163c-21.752 0 -39.3848 -17.6328 -39.3848 -39.3848s17.6328 -39.3848 39.3848 -39.3848c21.751 0 39.3838 17.6328 39.3838 39.3848
s-17.6328 39.3848 -39.3838 39.3848zM170.463 283.163c-21.751 0 -39.3838 -17.6328 -39.3838 -39.3848s17.6328 -39.3848 39.3838 -39.3848c21.752 0 39.3848 17.6328 39.3848 39.3848s-17.6328 39.3848 -39.3848 39.3848zM390.671 126.75l-0.000976562 33.7578h-269.341
v-33.7578h70.2412v-53.1777c0 -35.5254 28.9033 -64.4297 64.4297 -64.4297s64.4297 28.9043 64.4297 64.4297v53.1777h70.2412zM256 42.9014c-16.9121 0 -30.6719 13.7598 -30.6719 30.6709v53.1777h61.3438v-53.1777c0 -16.9111 -13.7598 -30.6709 -30.6719 -30.6709z" />
    <glyph glyph-name="uniF119" unicode="&#xf119;" 
d="M256 448c141.385 0 256 -114.615 256 -256s-114.615 -256 -256 -256s-256 114.615 -256 256s114.615 256 256 256zM131.079 243.778c0 -21.752 17.6328 -39.3848 39.3838 -39.3848c21.752 0 39.3848 17.6328 39.3848 39.3848s-17.6328 39.3848 -39.3848 39.3848
c-21.751 0 -39.3838 -17.6328 -39.3838 -39.3848zM362.598 79.1992v33.7578h-213.195v-33.7578h213.195zM341.537 204.394c21.751 0 39.3838 17.6328 39.3838 39.3848s-17.6328 39.3848 -39.3838 39.3848c-21.752 0 -39.3848 -17.6328 -39.3848 -39.3848
s17.6328 -39.3848 39.3848 -39.3848z" />
    <glyph glyph-name="uniF110" unicode="&#xf110;" 
d="M477.56 230.758l-0.0830078 50.2139l-67.2607 -67.2598c54.5303 -66.7754 50.6768 -165.629 -11.5635 -227.87c-32.1416 -32.1406 -74.875 -49.8418 -120.328 -49.8418c-45.4541 0 -88.1885 17.7012 -120.33 49.8418c-19.4014 19.4033 -33.1201 42.3652 -41.1748 66.8027
c-24.9717 8.21094 -47.8496 22.2236 -66.9775 41.3516c-32.1406 32.1406 -49.8418 74.874 -49.8418 120.329c0 45.4541 17.7012 88.1875 49.8438 120.329c32.1396 32.1406 74.873 49.8418 120.328 49.8418c39.6631 0 77.2549 -13.4824 107.546 -38.2725l67.2539 67.2549
l-50.2139 0.0810547l0.0556641 34.4404l108.856 -0.177734l0.176758 -107.977l107.977 -0.175781l0.176758 -108.856zM331.81 267.81c19.5762 -6.45605 37.8613 -16.4814 54.0605 -29.7383l67.2539 67.2549l-50.2139 0.0810547l0.0546875 33.5586l-33.5576 -0.0546875
l-0.0830078 50.2139l-67.2539 -67.2539c13.2588 -16.2002 23.2832 -34.4854 29.7393 -54.0615zM74.1953 118.349c10.2861 -10.2861 21.9336 -18.7129 34.5332 -25.1221c-3.6123 47.7842 12.8047 96.8125 49.2676 133.274c32.1406 32.1406 74.874 49.8418 120.329 49.8418
c4.3252 0 8.62598 -0.162109 12.8955 -0.479492c-6.40234 12.5625 -14.8115 24.1777 -25.0713 34.4375c-25.6377 25.6367 -59.7227 39.7549 -95.9775 39.7549c-36.2559 0 -70.3408 -14.1182 -95.9766 -39.7549c-25.6367 -25.6357 -39.7549 -59.7207 -39.7549 -95.9756
c0 -36.2559 14.1182 -70.3408 39.7549 -95.9766zM305.902 214.325c0 8.56152 -0.796875 17.002 -2.33789 25.2402c-8.23828 1.54199 -16.6777 2.33789 -25.2402 2.33789c-36.2568 0 -70.3418 -14.1182 -95.9775 -39.7539
c-32.9004 -32.9014 -45.3398 -78.6279 -37.334 -121.233c8.21289 -1.53027 16.623 -2.32227 25.1572 -2.32227c36.2568 0 70.3418 14.1182 95.9775 39.7549c25.6367 25.6357 39.7549 59.7207 39.7549 95.9766zM374.301 10.1953
c52.9219 52.9209 52.9219 139.031 -0.00195312 191.955c-10.2588 10.2588 -21.874 18.668 -34.4365 25.0713c0.316406 -4.26953 0.479492 -8.57031 0.479492 -12.8955c0 -45.4551 -17.7012 -88.1885 -49.8418 -120.329c-32.1416 -32.1426 -74.875 -49.8438 -120.33 -49.8438
c-4.30078 0 -8.57715 0.160156 -12.8242 0.474609c6.30664 -12.4189 14.6338 -24.0635 25.002 -34.4326c25.6367 -25.6367 59.7217 -39.7549 95.9775 -39.7549c36.2549 0 70.3398 14.1182 95.9756 39.7549z" />
    <glyph glyph-name="uniF10B" unicode="&#xf10b;" 
d="M480.33 339.769l-0.0751953 46.1748l-61.835 -61.835c22.7979 -27.8535 35.1953 -62.4209 35.1953 -98.8945c0 -41.7988 -16.2773 -81.0947 -45.834 -110.65c-29.5557 -29.5557 -68.8516 -45.833 -110.65 -45.833c-24.873 0 -48.8604 5.76562 -70.4375 16.6631
c-16.6523 -8.39746 -34.9951 -13.9111 -54.375 -15.8672v-50.251h43.8828v-31.6699h-43.8828v-43.6875h-31.6699v43.6885h-43.8828v31.6699h43.8828v50.251c-78.877 7.96289 -140.648 74.7461 -140.648 155.687c0 86.2852 70.1982 156.482 156.482 156.482
c25.2314 0 49.083 -6.01074 70.21 -16.6621c21.5762 10.8975 45.5625 16.6631 70.4375 16.6631c36.4746 0 71.041 -12.3975 98.8955 -35.1943l61.835 61.835l-46.1758 0.0742188l0.0517578 31.6699l100.102 -0.162109l0.162109 -100.1zM156.483 100.4
c13.4834 0 26.4707 2.1582 38.6455 6.13281c-2.96484 2.55566 -5.85059 5.23242 -8.64746 8.03027c-61.0127 61.0127 -61.0127 160.288 0 221.3c2.79688 2.79785 5.68262 5.47461 8.64746 8.03223c-12.1748 3.97363 -25.1621 6.13086 -38.6455 6.13086
c-68.8223 0 -124.813 -55.9902 -124.813 -124.812s55.9912 -124.813 124.813 -124.813zM281.296 225.214c0 42.7852 -21.6436 80.6064 -54.5527 103.104c-6.33496 -4.34375 -12.3184 -9.29785 -17.8682 -14.8477c-48.6641 -48.665 -48.6641 -127.847 0 -176.513
c5.54883 -5.54883 11.5332 -10.5039 17.8682 -14.8477c32.9092 22.4971 54.5527 60.3184 54.5527 103.104zM385.387 136.957c23.5742 23.5742 36.5576 54.917 36.5576 88.2568c0 33.3389 -12.9834 64.6816 -36.5576 88.2559s-54.917 36.5566 -88.2559 36.5566
c-13.376 0 -26.4287 -2.09473 -38.7891 -6.12012c33.4199 -28.7197 54.624 -71.2744 54.624 -118.692s-21.2041 -89.9727 -54.623 -118.693c12.3594 -4.02539 25.4131 -6.12012 38.7881 -6.12012c33.3389 0 64.6816 12.9824 88.2559 36.5566z" />
    <glyph glyph-name="uniF11B" unicode="&#xf11b;" 
d="M439.014 264.987c0 -94.6631 -72.2441 -172.769 -164.494 -182.081v-58.7705h51.3213v-37.04h-51.3213v-51.0957h-37.04v51.0957h-51.3213v37.04h51.3213v58.7705c-92.249 9.3125 -164.493 87.418 -164.493 182.081c0 100.913 82.1006 183.013 183.015 183.013
s183.013 -82.0996 183.013 -183.013zM110.025 264.987c0 -80.4912 65.4844 -145.975 145.976 -145.975c80.4902 0 145.974 65.4834 145.974 145.975c0 80.4902 -65.4824 145.974 -145.974 145.974c-80.4922 0 -145.976 -65.4834 -145.976 -145.974z" />
  </font>
</defs>
</svg>
