<?xml version="1.0" standalone="no"?>
<!DOCTYPE svg PUBLIC "-//W3C//DTD SVG 1.1//EN" "http://www.w3.org/Graphics/SVG/1.1/DTD/svg11.dtd" >
<!--
2016-6-22: Created.
-->
<svg xmlns="http://www.w3.org/2000/svg">
<metadata>
Created by FontForge 20120731 at Wed Jun 22 15:43:46 2016
 By root
Created by root with FontForge 2.0 (http://fontforge.sf.net)
</metadata>
<defs>
<font id="Flaticon" horiz-adv-x="512" >
  <font-face 
    font-family="Flaticon"
    font-weight="500"
    font-stretch="normal"
    units-per-em="512"
    panose-1="2 0 6 3 0 0 0 0 0 0"
    ascent="448"
    descent="-64"
    bbox="0 -64.001 512.001 448"
    underline-thickness="25.6"
    underline-position="-51.2"
    unicode-range="U+0020-F131"
  />
    <missing-glyph />
    <glyph glyph-name="space" unicode=" " horiz-adv-x="200" 
 />
    <glyph glyph-name="uniF103" unicode="&#xf103;" 
d="M76.7578 -64v512h171.242v-512h-171.242zM264 -64v512h171.242v-512h-171.242z" />
    <glyph glyph-name="uniF11E" unicode="&#xf11e;" 
d="M512 448v-512h-512v512h512zM256 56c75.1104 0 136 60.8896 136 136c0 75.1113 -60.8896 136 -136 136s-136 -60.8887 -136 -136c0 -75.1104 60.8896 -136 136 -136z" />
    <glyph glyph-name="uniF11B" unicode="&#xf11b;" 
d="M256 -63.9961l-0.00292969 -0.00390625v0.00585938c-230.721 201.986 -245.354 442.396 -245.354 442.396l245.354 69.5957v0.00195312l0.00292969 -0.000976562l0.00292969 0.000976562v-0.00195312l245.354 -69.5957s-14.6328 -240.41 -245.354 -442.396v-0.00585938z
M107.3 218.8l148.7 -148.701l148.7 148.701l-148.7 148.7zM186.071 218.803l69.9287 69.9287l69.9277 -69.9287l-69.9277 -69.9277z" />
    <glyph glyph-name="uniF10C" unicode="&#xf10c;" 
d="M512 448v-512h-512v512h512zM338.737 49.0586l60.2041 60.2031l-82.7383 82.7383l82.7363 82.7383l-60.2021 60.2031l-82.7373 -82.7383l-82.7373 82.7383l-60.2041 -60.2041l82.7383 -82.7373l-82.7383 -82.7383l60.2031 -60.2012l82.7383 82.7363z" />
    <glyph glyph-name="uniF100" unicode="&#xf100;" 
d="M288.001 30.4014l-163.099 163.115l163.099 163.098v91.3857h99.0967v-99.0967h-84.1826l-155.388 -155.387l158.109 -158.126l-0.293945 -0.293945h81.7549v-99.0967h-99.0967v94.4014z" />
    <glyph glyph-name="uniF10E" unicode="&#xf10e;" 
d="M0 448h512v-512h-512v512zM398.939 109.263l-82.7373 82.7383l82.7373 82.7373l-60.2021 60.2031l-82.7373 -82.7373l-82.7383 82.7373l-60.2031 -60.2031l82.7373 -82.7383l-82.7373 -82.7373l60.2031 -60.2021l82.7373 82.7373l82.7383 -82.7373z" />
    <glyph glyph-name="uniF116" unicode="&#xf116;" 
d="M442.132 241.571l-119.799 -68.8096l-119.8 68.8096v137.619l119.8 68.8096l119.799 -68.8096v-137.619zM69.8682 142.429l119.799 68.8096l119.8 -68.8096v-137.619l-119.8 -68.8096l-119.799 68.8096v137.619z" />
    <glyph glyph-name="uniF130" unicode="&#xf130;" 
d="M78.666 -64l177.334 512l177.334 -512h-354.668z" />
    <glyph glyph-name="uniF10A" unicode="&#xf10a;" 
d="M0 369.334l512 -177.334l-512 -177.334v354.668z" />
    <glyph glyph-name="uniF127" unicode="&#xf127;" 
d="M256 -29.2061l-256 442.412h512z" />
    <glyph glyph-name="uniF122" unicode="&#xf122;" 
d="M256 -64c-141.385 0 -256 114.615 -256 256s114.615 256 256 256s256 -114.615 256 -256s-114.615 -256 -256 -256zM141.399 306.601v-229.201h229.201v229.201h-229.201z" />
    <glyph glyph-name="uniF120" unicode="&#xf120;" 
d="M99.0967 -22.4521v-41.5479h-99.0967v99.0957h41.5479v313.808h-41.5479v99.0967h99.0967v-41.5479h313.807v41.5479h99.0967v-99.0967h-40.2861v-313.807h40.2861v-99.0967h-99.0957v41.5479h-313.808zM57.5488 348.903v-313.808h41.5479v-41.5479h313.808v41.5479
h42.8105v313.808h-42.8105v41.5479h-313.808v-41.5479h-41.5479z" />
    <glyph glyph-name="uniF121" unicode="&#xf121;" 
d="M431.141 18.748l80.8594 -82.748h-512v512h512l-80.8594 -82.748h-350.281v-346.504h350.281zM159.391 95.3916v193.218h193.218v-193.218h-193.218z" />
    <glyph glyph-name="uniF131" unicode="&#xf131;" 
d="M119.935 423.884l119.934 -207.267h-239.868zM392.065 423.884l119.935 -207.267h-239.869zM119.935 167.383l119.934 -207.267h-239.868zM512 -39.8838h-239.869l119.935 207.267z" />
    <glyph glyph-name="uniF11F" unicode="&#xf11f;" 
d="M373.2 309.2h-223.088l-138.8 138.8h500.688v-500.688l-138.8 138.8v223.088zM361.888 74.7998l138.8 -138.8h-500.688v500.688l138.8 -138.8v-223.088h223.088z" />
    <glyph glyph-name="uniF128" unicode="&#xf128;" 
d="M512 448v-512h-512v512h512zM90.001 64.7061l331.664 -0.000976562l-165.832 286.588zM324.775 119.304h-137.884l68.9414 119.144z" />
    <glyph glyph-name="uniF125" unicode="&#xf125;" 
d="M0 218.8v229.2h229.2v-229.2h-229.2zM282.8 218.8v229.2h229.2v-229.2h-229.2zM0 -64v229.2h229.2v-229.2h-229.2zM282.8 -64v229.2h229.2v-229.2h-229.2z" />
    <glyph glyph-name="uniF12A" unicode="&#xf12a;" 
d="M512 -27.3496h-512l256 438.699zM204.602 200.045l-37.3994 -37.4004l51.3984 -51.3984l-51.3984 -51.3984l37.3994 -37.3994l51.3984 51.3984l51.3984 -51.3975l37.4004 37.3994l-51.3984 51.3984l51.3975 51.3984l-37.3994 37.3994l-51.3984 -51.3984z" />
    <glyph glyph-name="uniF129" unicode="&#xf129;" 
d="M34.7939 192v256l442.412 -256l-442.412 -256v256zM199.136 192l-125.711 -195.477l337.816 195.477h-212.105z" />
    <glyph glyph-name="uniF12C" unicode="&#xf12c;" 
d="M256 448c141.385 0 256 -114.615 256 -256s-114.615 -256 -256 -256s-256 114.615 -256 256s114.615 256 256 256zM256 29.8164l151.26 261.402h-302.52zM256 132.745l-62.8828 108.673h125.766z" />
    <glyph glyph-name="uniF12B" unicode="&#xf12b;" 
d="M0 -64v512h512v-512h-512zM259.69 332.089l-151.02 -260.991h302.04z" />
    <glyph glyph-name="uniF12E" unicode="&#xf12e;" 
d="M129.865 203.133l126.135 217.982l126.135 -217.982h-252.27zM252.271 -37.1152h-252.271l126.135 217.982zM259.729 -37.1152l126.136 217.982l126.135 -217.982h-252.271z" />
    <glyph glyph-name="uniF126" unicode="&#xf126;" 
d="M342.688 106v-170h-342.688v342.688h169v169.312h343v-342h-169.312zM185 431.999v-153.311h157.688v-156.689h153.312v310h-311zM253.451 59.0166v96.6562l-84.1387 48.3281l-84.1396 -48.3281v-96.6562l84.1396 -48.3271z" />
    <glyph glyph-name="uniF105" unicode="&#xf105;" 
d="M401.914 448v-512l-291.828 291.827v220.173h291.828z" />
    <glyph glyph-name="uniF12F" unicode="&#xf12f;" 
d="M119.935 295.633l119.934 -207.266h-239.868zM272.132 88.3672l119.934 207.266l119.935 -207.266h-239.868z" />
    <glyph glyph-name="uniF10B" unicode="&#xf10b;" 
d="M80.001 -64c-44.001 0 -80.001 36 -80.001 80v351.999c0 44.001 36 80.001 80.001 80.001h351.998c44.001 0 80.001 -36 80.001 -80.001v-351.999c0 -44 -36 -80 -80 -80h-351.999zM130.439 264.678l72.6768 -72.6777l-72.6768 -72.6787l52.8828 -52.8828
l72.6777 72.6787l72.6787 -72.6787l52.8828 52.8838l-72.6787 72.6777l72.6777 72.6768l-52.8828 52.8838l-72.6777 -72.6787l-72.6777 72.6797z" />
    <glyph glyph-name="uniF109" unicode="&#xf109;" 
d="M256 -64c-141.385 0 -256 114.615 -256 256s114.615 256 256 256s256 -114.616 256 -256s-114.615 -256 -256 -256zM256 309.2c-64.7285 0 -117.2 -52.4717 -117.2 -117.2c0 -64.7275 52.4717 -117.2 117.2 -117.2c64.7275 0 117.2 52.4727 117.2 117.2
c0 64.7285 -52.4727 117.2 -117.2 117.2z" />
    <glyph glyph-name="uniF108" unicode="&#xf108;" 
d="M6.72266 47.3037c-3.33786e-06 74.2025 37.1012 111.304 111.304 111.304c74.2026 0 111.304 -37.1012 111.304 -111.304c0 -74.2025 -37.1012 -111.304 -111.304 -111.304c-74.2025 -7.62939e-06 -111.304 37.1012 -111.304 111.304zM283.034 47.3037
c0 74.2025 37.1012 111.304 111.304 111.304s111.304 -37.1012 111.304 -111.304s-37.1012 -111.304 -111.304 -111.304c-74.2025 -7.62939e-06 -111.304 37.1012 -111.304 111.304zM6.3584 336.696c-2.86102e-06 74.2025 37.1012 111.304 111.304 111.304
c74.2026 0 111.304 -37.1012 111.304 -111.304c0 -74.2025 -37.1012 -111.304 -111.304 -111.304c-74.2025 0.000106812 -111.304 37.1013 -111.304 111.304zM282.67 336.696c0 74.2025 37.1012 111.304 111.304 111.304s111.304 -37.1012 111.304 -111.304
s-37.1012 -111.304 -111.304 -111.304c-74.2025 0.000106812 -111.304 37.1013 -111.304 111.304z" />
    <glyph glyph-name="uniF107" unicode="&#xf107;" 
d="M0 309.066c0 92.6224 46.3112 138.934 138.934 138.934c92.6225 0 138.934 -46.3112 138.934 -138.934c0 -92.6224 -46.3112 -138.934 -138.934 -138.934c-92.6224 -1.52588e-05 -138.934 46.3112 -138.934 138.934zM234.134 74.9326
c0.000106812 92.6224 46.3113 138.934 138.934 138.934c92.6224 0 138.934 -46.3112 138.934 -138.934c0 -92.6224 -46.3112 -138.934 -138.934 -138.934s-138.934 46.3112 -138.934 138.934z" />
    <glyph glyph-name="uniF124" unicode="&#xf124;" 
d="M0 218.8v229.2h229.2v-229.2h-229.2zM282.8 218.8v229.2h229.2v-229.2h-229.2zM0 -64v229.2h229.2v-229.2h-229.2z" />
    <glyph glyph-name="uniF106" unicode="&#xf106;" 
d="M0 -64v512h512v-512h-512zM256 308.95c-64.7275 0 -117.2 -52.4717 -117.2 -117.2c0 -64.7266 52.4727 -117.199 117.2 -117.199s117.2 52.4727 117.2 117.199c0 64.7285 -52.4727 117.2 -117.2 117.2z" />
    <glyph glyph-name="uniF123" unicode="&#xf123;" 
d="M256 448c141.385 0 256 -114.615 256 -256s-114.615 -256 -256 -256s-256 114.615 -256 256s114.615 256 256 256zM407.85 140.579l-0.000976562 203.271h-203.27v-100.429h-100.429v-203.271h203.271v100.429h100.428zM307.421 156.58v86.8408h-86.8408v84.4287h171.27
v-171.27h-84.4287z" />
    <glyph glyph-name="uniF10D" unicode="&#xf10d;" 
d="M256 -64c-141.385 0 -256 114.615 -256 256s114.615 256 256 256s256 -114.615 256 -256s-114.615 -256 -256 -256zM112.001 230.414v-76.8281h105.584v-105.586h76.8291v105.586h105.587v76.8281h-105.586v105.585h-76.8291v-105.585h-105.585z" />
    <glyph glyph-name="uniF10F" unicode="&#xf10f;" 
d="M149.225 320c0 71.1836 35.5918 106.775 106.775 106.775s106.775 -35.5918 106.775 -106.775s-35.5918 -106.775 -106.775 -106.775s-106.775 35.5918 -106.775 106.775zM298.451 64c0 71.1836 35.5915 106.775 106.774 106.775
c71.1836 0 106.775 -35.5918 106.775 -106.775s-35.5918 -106.775 -106.775 -106.775c-71.183 0 -106.774 35.5918 -106.774 106.775zM0 64c0 71.1836 35.5918 106.775 106.775 106.775c71.183 0 106.775 -35.5918 106.774 -106.775
c0 -71.1836 -35.5915 -106.775 -106.774 -106.775c-71.1836 0 -106.775 35.5918 -106.775 106.775z" />
    <glyph glyph-name="uniF119" unicode="&#xf119;" 
d="M0 -64v512h512v-512h-512zM256 357.82l-165.903 -165.902l165.903 -165.904l165.903 165.902zM177.981 191.919l78.0186 78.0186l78.0186 -78.0186l-78.0186 -78.0186z" />
    <glyph glyph-name="uniF11A" unicode="&#xf11a;" 
d="M256 -64c-141.385 0 -256 114.615 -256 256s114.615 256 256 256s256 -114.615 256 -256s-114.615 -256 -256 -256zM256 357.903l-165.903 -165.903l165.903 -165.903l165.903 165.903zM177.981 192.003l78.0186 78.0186l78.0186 -78.0186l-78.0186 -78.0186z" />
    <glyph glyph-name="uniF118" unicode="&#xf118;" 
d="M256 -64c-141.385 0 -256 114.615 -256 256s114.615 256 256 256s256 -114.615 256 -256s-114.615 -256 -256 -256zM256 357.903l-165.903 -165.903l165.903 -165.903l165.903 165.903zM177.981 192.004l78.0186 78.0176l78.0176 -78.0176l-78.0176 -78.0186z" />
    <glyph glyph-name="uniF104" unicode="&#xf104;" 
d="M281.897 -64v128.785h230.103v-128.785h-230.103zM135.888 127.608v128.784h376.112v-128.784h-376.112zM0 319.214v128.786h512v-128.786h-512z" />
    <glyph glyph-name="uniF111" unicode="&#xf111;" 
d="M99.0967 23.7803v-87.7803h-99.0967v99.0967h87.7891l325.114 325.13v87.7734h99.0967v-99.0967h-87.7949l-153.585 -153.592l160.199 -160.215h81.1807v-99.0967h-99.0967v94.3887l-153.595 153.609z" />
    <glyph glyph-name="uniF110" unicode="&#xf110;" 
d="M512 448v-512h-512v512h512zM166.426 357.509c-39.8018 0 -72.0674 -32.2656 -72.0674 -72.0674c0 -39.8037 32.2656 -72.0693 72.0674 -72.0693c39.8037 0 72.0693 32.2656 72.0693 72.0693c0 39.8018 -32.2656 72.0674 -72.0693 72.0674zM166.663 25.9922
c39.8018 0 72.0684 32.2656 72.0693 72.0693c0 39.8018 -32.2676 72.0674 -72.0693 72.0674c-39.8027 0 -72.0693 -32.2656 -72.0693 -72.0674c0 -39.8037 32.2666 -72.0693 72.0693 -72.0693zM345.337 357.509c-39.8018 0 -72.0693 -32.2656 -72.0693 -72.0674
c0 -39.8037 32.2676 -72.0693 72.0693 -72.0693c39.8027 0 72.0693 32.2656 72.0693 72.0693c0 39.8018 -32.2676 72.0674 -72.0693 72.0674zM345.573 25.9922c39.8027 0 72.0684 32.2656 72.0684 72.0693c0 39.8018 -32.2666 72.0674 -72.0684 72.0674
c-39.8037 0 -72.0693 -32.2656 -72.0693 -72.0674c0 -39.8037 32.2666 -72.0693 72.0693 -72.0693z" />
    <glyph glyph-name="uniF11D" unicode="&#xf11d;" 
d="M212.621 378.518v-373.035l-212.621 212.62v160.415h212.621zM512 378.518v-160.415l-212.621 -212.62v373.035h212.621z" />
    <glyph glyph-name="uniF12D" unicode="&#xf12d;" 
d="M512 192c0 -141.385 -114.615 -256 -256 -256s-256 114.615 -256 256s114.615 256 256 256s256 -114.615 256 -256zM256 371.386l-113.179 -326.772h226.357z" />
    <glyph glyph-name="uniF117" unicode="&#xf117;" 
d="M247.63 436.078v-133.728l-111.936 -110.351l111.936 -110.351v-133.819l-247.63 242.762zM264.369 -52.0781v133.728l111.937 110.351l-111.937 110.351v133.819l247.631 -242.761z" />
    <glyph glyph-name="uniF114" unicode="&#xf114;" 
d="M256 448c141.385 0 256 -114.615 256 -256s-114.615 -256 -256 -256s-256 114.615 -256 256s114.615 256 256 256zM385.996 117.334v149.332l-129.996 74.668l-129.996 -74.667v-149.332l129.996 -74.668z" />
    <glyph glyph-name="uniF115" unicode="&#xf115;" 
d="M184.487 321.033h143.024l71.5127 -129.033l-71.5127 -129.032h-143.024l-71.5117 129.032zM0 -13.5986v411.198h85.6924v-411.198h-85.6924zM426.308 -13.5986v411.198h85.6924v-411.198h-85.6924z" />
    <glyph glyph-name="uniF113" unicode="&#xf113;" 
d="M126.967 120.488v143.023l129.033 71.5127l129.032 -71.5127v-143.023l-129.032 -71.5127zM50.4004 362.308v85.6924h411.198v-85.6924h-411.198zM50.4004 -64v85.6924h411.198v-85.6924h-411.198z" />
    <glyph glyph-name="uniF102" unicode="&#xf102;" 
d="M401.913 -0.349609v448.35h110.087v-512h-512v512h110.087v-156.522z" />
    <glyph glyph-name="uniF101" unicode="&#xf101;" 
d="M444.965 224.062l17.4873 17.4873l49.5479 -49.5488l-49.5488 -49.5479l-15.8516 15.8506l-156.896 -156.91l15.8438 -15.8438l-49.5479 -49.5488l-49.5479 49.5479l17.4824 17.4824l-156.897 156.911l-17.4893 -17.4893l-49.5479 49.5479l49.5488 49.5479
l19.125 -19.125l156.896 156.912l-19.1172 19.1172l49.5479 49.5479l49.5479 -49.5488l-17.4785 -17.4795zM278.393 12.7051l156.896 156.91l-22.3848 22.3848l20.749 20.75l-156.896 156.91l-20.7568 -20.7568l-19.1182 19.1182l-156.896 -156.91l19.1104 -19.1113
l-20.7461 -20.7461l156.896 -156.91l20.7539 20.7529z" />
    <glyph glyph-name="uniF112" unicode="&#xf112;" 
d="M486.956 64l-230.956 -128l-230.956 128v256l230.956 128l230.956 -128v-256zM124.202 265.045v-146.091l131.798 -73.0439l131.799 73.0439v146.091l-131.799 73.0439zM346.174 142.024l-90.1738 -49.9766l-90.1738 49.9766v99.9512l90.1738 49.9766l90.1738 -49.9766
v-99.9512z" />
    <glyph glyph-name="uniF11C" unicode="&#xf11c;" 
d="M255.997 -63.9941c-230.721 201.986 -245.354 442.396 -245.354 442.396l245.354 69.5957v0.00195312l0.00292969 -0.000976562l0.00292969 0.000976562v-0.00195312l245.354 -69.5957s-14.6328 -240.41 -245.354 -442.396v-0.00585938l-0.00292969 0.00390625
l-0.00292969 -0.00390625v0.00585938zM143.919 269.009l69.2705 -54.7422l-26.459 -88.5732l69.2695 54.7422l69.2695 -54.7422l-26.459 88.5732l69.2705 54.7422h-85.6221l-26.459 88.5742l-26.459 -88.5742h-85.6221z" />
  </font>
</defs>
</svg>
