<?xml version="1.0" standalone="no"?>
<!DOCTYPE svg PUBLIC "-//W3C//DTD SVG 1.1//EN" "http://www.w3.org/Graphics/SVG/1.1/DTD/svg11.dtd" >
<!--
2016-6-22: Created.
-->
<svg xmlns="http://www.w3.org/2000/svg">
<metadata>
Created by FontForge 20120731 at Wed Jun 22 15:43:40 2016
 By root
Created by root with FontForge 2.0 (http://fontforge.sf.net)
</metadata>
<defs>
<font id="Flaticon" horiz-adv-x="512" >
  <font-face 
    font-family="Flaticon"
    font-weight="500"
    font-stretch="normal"
    units-per-em="512"
    panose-1="2 0 6 3 0 0 0 0 0 0"
    ascent="448"
    descent="-64"
    bbox="0 -64 512 448"
    underline-thickness="25.6"
    underline-position="-51.2"
    unicode-range="U+0020-F118"
  />
    <missing-glyph />
    <glyph glyph-name="space" unicode=" " horiz-adv-x="200" 
 />
    <glyph glyph-name="uniF103" unicode="&#xf103;" 
d="M0 -64v230.102h128.785v-230.102h-128.785zM191.607 -64v376.112h128.784v-376.112h-128.784zM383.215 -64v512h128.785v-512h-128.785z" />
    <glyph glyph-name="uniF111" unicode="&#xf111;" 
d="M512 448v-512h-512v512h512zM359.812 88.1875v207.625h-207.625v-207.625h207.625z" />
    <glyph glyph-name="uniF110" unicode="&#xf110;" 
d="M256 447.999l0.00292969 0.000976562v-0.00195312l245.354 -69.5957s-14.6328 -240.41 -245.354 -442.396v-0.00585938l-0.00292969 0.00390625l-0.00292969 -0.00390625v0.00585938c-230.721 201.986 -245.354 442.396 -245.354 442.396l245.354 69.5957v0.00195312z
" />
    <glyph glyph-name="uniF108" unicode="&#xf108;" 
d="M404.18 448l107.82 -107.82l-148.18 -148.179l148.18 -148.18l-107.82 -107.821l-148.18 148.18l-148.18 -148.179l-107.82 107.82l148.18 148.179l-148.18 148.179l107.821 107.821l148.179 -148.179z" />
    <glyph glyph-name="uniF100" unicode="&#xf100;" 
d="M56.4297 448h134.882v-236.646l-134.882 134.882v101.764zM320.688 448h134.882v-101.764l-134.882 -134.882v236.646zM235.354 -64v512h41.292v-512h-41.292z" />
    <glyph glyph-name="uniF10D" unicode="&#xf10d;" 
d="M0 253.377v128.753l112.08 64.377l112.081 -64.377v-128.753l-112.081 -64.377zM287.839 382.13l112.08 64.377l112.081 -64.377v-128.753l-112.081 -64.377l-112.08 64.377v128.753zM144.147 130.623l112.081 64.376l112.081 -64.376v-128.753l-112.081 -64.377
l-112.081 64.377v128.753z" />
    <glyph glyph-name="uniF113" unicode="&#xf113;" 
d="M103.057 -64l58.4199 195.566l-152.943 120.867h189.048l58.4189 195.566l58.4189 -195.566h189.048l-152.942 -120.867l58.4189 -195.566l-152.943 120.867zM146.688 204.434l44.5479 -35.207l25.5527 -20.1934l-9.32227 -31.2051l-14.9121 -49.9189l33.6826 26.6182
l29.7617 23.5205l29.7617 -23.5205l33.6826 -26.6182l-14.9131 49.9189l-9.32031 31.2051l25.5518 20.1934l44.5508 35.207h-50.8945h-35.7559l-10.2344 34.2617l-12.4277 41.6016l-12.4277 -41.6016l-10.2344 -34.2617h-35.7559h-50.8936z" />
    <glyph glyph-name="uniF10E" unicode="&#xf10e;" 
d="M0 210.548v128.694h512v-128.694h-512zM0 44.7568v128.694h512v-128.694h-512z" />
    <glyph glyph-name="uniF112" unicode="&#xf112;" 
d="M432 448c44 0 80 -36 80 -80.001v-351.999c0 -44 -36 -80 -80 -80h-351.999c-44.001 0 -80.001 36 -80.001 80v351.999c0 44.001 36 80.001 80.001 80.001h351.999zM480 16l0.000976562 351.999c0 26.4678 -21.5322 48.001 -48.001 48.001h-351.999
c-26.4688 0 -48.001 -21.5332 -48.001 -48.001v-351.999c0 -26.4678 21.5322 -48 48.001 -48h351.998c26.4688 0 48.001 21.5322 48.001 48zM145.854 81.8555v220.29h220.29v-220.29h-220.29z" />
    <glyph glyph-name="uniF116" unicode="&#xf116;" 
d="M256 413.206l256 -442.412h-256h-256zM451.477 9.42383l-195.477 337.817v-212.105z" />
    <glyph glyph-name="uniF118" unicode="&#xf118;" 
d="M300.494 305.109l130.906 -226.219h80.5996v-112h-112.001v45.2959h-288v-45.2959h-111.999v112h80.5996l130.905 226.22h-11.5049v111.999h112v-112h-11.5059zM111.999 44.1875h287.999v25.0596l-136.477 235.863h-15.0449l-136.478 -235.863v-25.0596z" />
    <glyph glyph-name="uniF117" unicode="&#xf117;" 
d="M178.74 70.5391l77.2598 133.52l77.2598 -133.52h-154.52zM0 -27.3496l256 438.699l256 -438.699h-512zM90.2959 24.1055h331.409l-165.705 283.942z" />
    <glyph glyph-name="uniF107" unicode="&#xf107;" 
d="M399.997 358.625v89.375h112v-112h-89.375l-143.997 -144.001l143.997 -143.999h89.375v-112h-112v89.375l-143.996 144l-143.997 -144v-89.375h-112v112h89.375l143.996 143.999l-143.996 144.001h-89.375v112h112v-89.375l143.997 -144z" />
    <glyph glyph-name="uniF109" unicode="&#xf109;" 
d="M424.877 288.999v-28.707h87.123v-136.583h-87.123v-28.708l-100.585 -57.7734v-101.228h-136.583v101.229l-100.585 57.7734v28.708h-87.124v136.582h87.124v28.707l100.584 57.7734v101.228h136.584v-101.228zM392.877 270.477l-68.585 39.3945v-49.5791h68.585
v10.1846zM119.124 270.477v-10.1846h68.585v49.5791zM119.124 113.524l68.585 -39.3945v49.5791h-68.585v-10.1846zM392.877 113.524v10.1846h-68.585v-49.5791z" />
    <glyph glyph-name="uniF115" unicode="&#xf115;" 
d="M0 -29.2061l256 442.412l256 -442.412h-512zM143.483 51.457l225.033 0.000976562l-112.517 194.449z" />
    <glyph glyph-name="uniF106" unicode="&#xf106;" 
d="M169.312 278.688v169.312h342.688v-342.688h-169.312v-169.312h-342.688v342.688h169.312zM480 416h-278.688v-137.312h141.377v-141.377h137.312v278.688z" />
    <glyph glyph-name="uniF114" unicode="&#xf114;" 
d="M256 448c141.151 0 256 -114.849 256 -256s-114.849 -256 -256 -256s-256 114.849 -256 256s114.849 256 256 256zM256 -32.9697c124.045 0 224.97 100.925 224.97 224.97s-100.925 224.97 -224.97 224.97s-224.97 -100.925 -224.97 -224.97
s100.925 -224.97 224.97 -224.97zM255.996 369.167c97.8457 0 177.165 -79.3193 177.164 -177.165c0 -97.8438 -79.3193 -177.164 -177.164 -177.164c-97.8457 0 -177.165 79.3203 -177.165 177.164c0 97.8457 79.3193 177.165 177.165 177.165zM255.996 79.3828
c62.1982 0 112.62 50.4219 112.619 112.619c0 62.1973 -50.4219 112.619 -112.619 112.619c-62.1982 0 -112.619 -50.4219 -112.619 -112.619s50.4209 -112.619 112.619 -112.619zM209.366 192.002c0 31.0866 15.5433 46.6299 46.6299 46.6299
c31.0859 0 46.6289 -15.5433 46.6289 -46.6299s-15.543 -46.6299 -46.6289 -46.6299c-31.0866 0 -46.6299 15.5433 -46.6299 46.6299z" />
    <glyph glyph-name="uniF104" unicode="&#xf104;" 
d="M48.8281 348.984v99.0156h414.344v-99.0156h-55.2656v-313.969h55.2656v-99.0156h-414.344v99.0156h46.7969v313.969h-46.7969zM235.766 348.984h-38.0625v-313.969h38.0625v313.969zM267.766 35.0156h38.0625v313.969h-38.0625v-313.969zM127.625 348.984v-313.969
h38.0781v313.969h-38.0781zM375.906 35.0156v313.969h-38.0781v-313.969h38.0781z" />
    <glyph glyph-name="uniF10A" unicode="&#xf10a;" 
d="M512 448v-512h-512c0 512 512 512 512 512zM480 -32v156.29h-156.29v-156.29h156.29z" />
    <glyph glyph-name="uniF10F" unicode="&#xf10f;" 
d="M512 192l-256 -256l-256 256l256 256zM256 276.826l-84.8252 -84.8262l84.8252 -84.8252l84.8252 84.8252z" />
    <glyph glyph-name="uniF105" unicode="&#xf105;" 
d="M112.001 25.375v-89.375h-112.001v112h89.375l310.625 310.625v89.375h112v-112.001h-89.375z" />
    <glyph glyph-name="uniF10C" unicode="&#xf10c;" 
d="M128 412.441h256l128 -220.442l-128 -220.44h-256l-128 220.44zM300.469 115.416l44.4678 76.583l-44.4678 76.583h-88.9375l-44.4678 -76.583l44.4678 -76.583h88.9375z" />
    <glyph glyph-name="uniF102" unicode="&#xf102;" 
d="M429.252 365.254h-346.506v-346.505h346.506l82.748 -82.749h-512v512h512z" />
    <glyph glyph-name="uniF101" unicode="&#xf101;" 
d="M373.554 74.4473l138.446 -138.447h-512v512l138.446 -138.447v-235.105h235.107z" />
    <glyph glyph-name="uniF10B" unicode="&#xf10b;" 
d="M25.0439 320l230.956 128l230.956 -128v-256l-230.956 -128l-230.956 128v256zM346.174 142.024v99.9521l-90.1738 49.9756l-90.1738 -49.9756v-99.9521l90.1738 -49.9756z" />
  </font>
</defs>
</svg>
